<?xml version="1.0" encoding="UTF-8"?>
<svg version="1.1" xmlns="http://www.w3.org/2000/svg" width="512" height="512">
<path d="M0 0 C1.29189114 -0.00467997 2.58378227 -0.00935994 3.91482162 -0.01418173 C7.47590012 -0.02663423 11.03673552 -0.02054785 14.59781456 -0.01122308 C18.44791637 -0.00440917 22.29797765 -0.01492538 26.14807129 -0.02316284 C33.68061371 -0.03647747 41.21306626 -0.03363258 48.74561214 -0.02492492 C54.86943738 -0.01813983 60.99323751 -0.01723522 67.11706543 -0.02049637 C68.42622347 -0.02118592 68.42622347 -0.02118592 69.76182914 -0.0218894 C71.53504849 -0.02284861 73.30826784 -0.02382125 75.08148718 -0.02480717 C91.69489835 -0.03335441 108.30825979 -0.02353738 124.92166281 -0.00740607 C139.16557354 0.00599651 153.40941091 0.00366823 167.65332031 -0.01016235 C184.2087487 -0.02622993 200.76413354 -0.0325305 217.31956863 -0.02332556 C219.08613331 -0.02236995 220.852698 -0.02142684 222.6192627 -0.02049637 C223.48836454 -0.02003354 224.35746639 -0.01957072 225.25290465 -0.01909386 C231.36681526 -0.01650751 237.48069817 -0.02086732 243.59460449 -0.02793503 C251.0490836 -0.03636332 258.50346798 -0.034042 265.95793629 -0.0180928 C269.75869775 -0.01022793 273.55930148 -0.00708787 277.36006165 -0.01704025 C281.48562014 -0.02767945 285.61078302 -0.01494509 289.73632812 0 C291.5267132 -0.01003825 291.5267132 -0.01003825 293.35326767 -0.02027929 C303.51315457 0.05103835 311.91264023 1.66696815 319.82519531 8.29110718 C328.21768502 16.87615879 330.17346973 26.4208643 330.12886047 37.95684814 C330.13268602 39.01003554 330.13651157 40.06322293 330.14045304 41.14832509 C330.15075703 44.67106781 330.14679577 48.19364675 330.14282227 51.71640015 C330.14717017 54.24467113 330.15235358 56.77294079 330.15830994 59.3012085 C330.17031212 65.45217056 330.17285233 71.60307243 330.17050967 77.75404392 C330.16872477 82.75523512 330.17047984 87.75641308 330.17473412 92.75760269 C330.1753293 93.47009896 330.17592449 94.18259522 330.17653772 94.91668228 C330.1777495 96.36424596 330.17896364 97.81180964 330.1801801 99.25937332 C330.19105042 112.82729074 330.18889558 126.3951833 330.18279525 139.96310212 C330.17762688 152.36587264 330.1888803 164.7685646 330.20789347 177.17131959 C330.22728202 189.91700196 330.23552606 202.66264718 330.23177022 215.40834439 C330.22985967 222.55985228 330.23233139 229.71129332 330.24648476 236.86278915 C330.25966093 243.58840519 330.25712473 250.31383869 330.24407387 257.03946304 C330.24170719 259.50612694 330.244446 261.97280189 330.25269699 264.43945312 C330.26315804 267.81017995 330.25506831 271.18037848 330.24238586 274.55108643 C330.24976015 275.52396068 330.25713443 276.49683492 330.26473218 277.49919021 C330.18001257 288.22434392 326.78335905 297.54208104 319.05175781 305.17391968 C310.3671893 312.27947573 300.56121043 312.8225943 289.73632812 312.76190186 C287.79849142 312.76892181 287.79849142 312.76892181 285.8215065 312.77608359 C282.26042801 312.78853608 278.69959261 312.7824497 275.13851357 312.77312493 C271.28841176 312.76631102 267.43835048 312.77682723 263.58825684 312.7850647 C256.05571442 312.79837933 248.52326187 312.79553444 240.99071598 312.78682677 C234.86689074 312.78004168 228.74309062 312.77913708 222.6192627 312.78239822 C221.31010466 312.78308777 221.31010466 312.78308777 219.97449899 312.78379125 C218.20127963 312.78475046 216.42806029 312.7857231 214.65484095 312.78670903 C198.04142978 312.79525627 181.42806833 312.78543924 164.81466532 312.76930793 C150.57075459 312.75590535 136.32691722 312.75823363 122.08300781 312.77206421 C105.52757943 312.78813179 88.97219458 312.79443236 72.41675949 312.78522742 C70.65019481 312.78427181 68.88363012 312.78332869 67.11706543 312.78239822 C65.81341266 312.78170398 65.81341266 312.78170398 64.48342347 312.78099572 C58.36951286 312.77840937 52.25562995 312.78276918 46.14172363 312.78983688 C38.68724452 312.79826517 31.23286014 312.79594385 23.77839184 312.77999465 C19.97763037 312.77212978 16.17702665 312.76898973 12.37626648 312.77894211 C8.25070799 312.78958131 4.12554511 312.77684695 0 312.76190186 C-1.19359005 312.76859402 -2.3871801 312.77528619 -3.61693954 312.78218114 C-13.77682645 312.71086351 -22.17631211 311.09493371 -30.08886719 304.47079468 C-38.4813569 295.88574306 -40.4371416 286.34103756 -40.39253235 274.80505371 C-40.3963579 273.75186632 -40.40018344 272.69867893 -40.40412492 271.61357677 C-40.41442891 268.09083405 -40.41046765 264.56825511 -40.40649414 261.04550171 C-40.41084205 258.51723073 -40.41602546 255.98896106 -40.42198181 253.46069336 C-40.433984 247.30973129 -40.43652421 241.15882943 -40.43418155 235.00785793 C-40.43239665 230.00666674 -40.43415171 225.00548878 -40.43840599 220.00429916 C-40.43900118 219.2918029 -40.43959637 218.57930664 -40.44020959 217.84521957 C-40.44142138 216.39765589 -40.44263551 214.95009221 -40.44385197 213.50252853 C-40.45472229 199.93461111 -40.45256746 186.36671856 -40.44646712 172.79879974 C-40.44129876 160.39602922 -40.45255218 147.99333725 -40.47156534 135.59058227 C-40.4909539 122.8448999 -40.49919794 110.09925468 -40.49544209 97.35355747 C-40.49353155 90.20204958 -40.49600326 83.05060854 -40.51015663 75.8991127 C-40.52333281 69.17349667 -40.52079661 62.44806317 -40.50774574 55.72243881 C-40.50537907 53.25577491 -40.50811788 50.78909997 -40.51636887 48.32244873 C-40.52682992 44.95172191 -40.51874019 41.58152338 -40.50605774 38.21081543 C-40.51711917 36.75150406 -40.51711917 36.75150406 -40.52840406 35.26271164 C-40.44368444 24.53755794 -37.04703092 15.21982082 -29.31542969 7.58798218 C-20.63086118 0.48242612 -10.82488231 -0.06069245 0 0 Z M-21.50683594 21.81845093 C-24.26063207 26.1609756 -25.38344466 29.66892288 -25.35888672 34.81381226 C-25.35873566 35.87453445 -25.35858459 36.93525665 -25.35842896 38.02812195 C-25.34810638 39.16162582 -25.33778381 40.2951297 -25.32714844 41.46298218 C-25.32431854 42.63229782 -25.32148865 43.80161346 -25.318573 45.00636292 C-25.30739156 48.735497 -25.28229028 52.46438961 -25.25683594 56.19345093 C-25.24680352 58.72404641 -25.23767813 61.25464567 -25.22949219 63.7852478 C-25.20745886 69.98389769 -25.17400128 76.18240706 -25.13183594 82.38095093 C-5.86010996 82.45111012 13.41159 82.50397294 32.68341732 82.53638744 C41.63216871 82.55183978 50.58084064 82.57289802 59.52954102 82.60726929 C67.33151366 82.63722172 75.13342874 82.6565378 82.93545729 82.66321641 C87.06451107 82.66711879 91.19340017 82.6762557 95.32240105 82.6981411 C99.21378827 82.71859871 103.10494396 82.72476612 106.99637985 82.72027397 C108.41972553 82.72109504 109.84307945 82.72700534 111.2663784 82.73856735 C121.97963354 82.8212804 129.92055606 81.70250493 138.93457031 75.72860718 C139.99740234 75.03444702 141.06023437 74.34028687 142.15527344 73.62509155 C143.7765918 72.54517944 143.7765918 72.54517944 145.43066406 71.44345093 C160.58084845 61.44234881 170.41967631 57.09310276 188.74145508 57.06210327 C190.12208127 57.05278864 191.5027019 57.04261772 192.88331604 57.03166199 C196.60579316 57.00452073 200.32823277 56.98926008 204.05078244 56.97623396 C207.95055995 56.96053341 211.85026165 56.93376551 215.74998474 56.90820312 C223.12326073 56.86153733 230.49655118 56.82473444 237.86989874 56.79153025 C246.26902731 56.75322232 254.66807951 56.70383506 263.06714356 56.65354609 C280.33409504 56.55040783 297.60109083 56.46108893 314.86816406 56.38095093 C314.98512906 52.04784765 315.05567296 47.71515513 315.11816406 43.38095093 C315.1684375 41.54983765 315.1684375 41.54983765 315.21972656 39.68173218 C315.2985133 32.39395855 314.88518249 27.53499378 310.86816406 21.38095093 C306.26863476 16.89935827 301.78179806 15.13322723 295.40265179 15.12368202 C294.31081072 15.11723313 293.21896964 15.11078424 292.09404248 15.10413992 C290.90008778 15.10723713 289.70613307 15.11033433 288.47599792 15.11352539 C287.20330199 15.10899428 285.93060606 15.10446316 284.61934358 15.09979475 C281.08876811 15.08756041 277.55828737 15.08782571 274.02769554 15.0901835 C270.21912734 15.09059155 266.41058956 15.07955356 262.60203552 15.07006836 C255.14102478 15.05345495 247.68004564 15.04795866 240.21901795 15.0468436 C234.15417402 15.04589328 228.08934052 15.04178376 222.02449989 15.03544235 C204.82925178 15.01782891 187.63402864 15.00860363 170.43877145 15.0101033 C169.51175763 15.01018321 168.58474382 15.01026313 167.62963867 15.01034546 C166.70149285 15.01042722 165.77334704 15.01050898 164.81707559 15.01059322 C149.77514789 15.01140612 134.73332033 14.9922677 119.69142159 14.96406873 C104.24620803 14.93534216 88.80104331 14.92152831 73.35580236 14.92325628 C64.68459394 14.92392027 56.01349049 14.9184242 47.34230614 14.89690018 C39.9593689 14.87869136 32.57658421 14.87433853 25.19363423 14.88791902 C21.42753103 14.89445028 17.66172052 14.89456052 13.89564514 14.87721252 C9.8106355 14.85858912 5.72630388 14.8710321 1.64128113 14.88647461 C0.45401859 14.87618748 -0.73324395 14.86590036 -1.95648414 14.8553015 C-9.92684012 14.92196555 -15.71877182 15.87806934 -21.50683594 21.81845093 Z M159.61816406 79.06845093 C158.32251209 79.96085422 157.02561264 80.85144875 155.72753906 81.74032593 C155.08494141 82.1831189 154.44234375 82.62591187 153.78027344 83.0821228 C150.85375386 85.07000382 147.87235714 86.94948289 144.86816406 88.81845093 C143.87816406 89.43591187 142.88816406 90.0533728 141.86816406 90.68954468 C134.07998766 95.08053476 127.2137666 96.48705385 118.33180237 96.53916931 C116.42418373 96.55385254 116.42418373 96.55385254 114.47802734 96.5688324 C113.0866703 96.57473502 111.69531286 96.58054556 110.30395508 96.58627319 C108.82510613 96.59586301 107.34625986 96.60587372 105.86741638 96.61627197 C101.86797566 96.64320764 97.86852327 96.66427827 93.86904263 96.68427396 C89.68366471 96.7062038 85.49832227 96.73355812 81.31297302 96.7603302 C73.39421531 96.81016274 65.4754378 96.85513643 57.55664152 96.89835256 C48.5384895 96.94780581 39.52037309 97.00269385 30.50225556 97.05803216 C11.9575915 97.17170723 -6.58710622 97.27857756 -25.13183594 97.38095093 C-25.22530482 121.49413451 -25.29582774 145.60729091 -25.33908463 169.7206192 C-25.35970399 180.91702838 -25.38781276 192.11332496 -25.43359375 203.30966187 C-25.47348051 213.06914645 -25.4992733 222.82854948 -25.50818992 232.58811331 C-25.51340152 237.75506786 -25.52563787 242.9217891 -25.55475616 248.08866882 C-25.5819542 252.95433958 -25.59027201 257.81968143 -25.58426666 262.68542099 C-25.58536493 264.46879235 -25.59329263 266.25217499 -25.60865784 268.0354805 C-25.62865492 270.47659887 -25.62374045 272.91648673 -25.612854 275.3576355 C-25.62450537 276.05804915 -25.63615674 276.7584628 -25.64816117 277.48010111 C-25.58356638 282.86427536 -24.00645351 286.92301703 -21.13183594 291.38095093 C-16.53230664 295.86254358 -12.04546994 297.62867463 -5.66632366 297.63821983 C-4.57448259 297.64466873 -3.48264152 297.65111762 -2.35771435 297.65776193 C-1.16375965 297.65466473 0.03019505 297.65156752 1.2603302 297.64837646 C2.53302613 297.65290758 3.80572207 297.65743869 5.11698455 297.66210711 C8.64756002 297.67434144 12.17804076 297.67407614 15.70863259 297.67171836 C19.51720079 297.6713103 23.32573857 297.6823483 27.1342926 297.6918335 C34.59530335 297.7084469 42.05628249 297.7139432 49.51731018 297.71505825 C55.58215411 297.71600858 61.6469876 297.72011809 67.71182823 297.7264595 C84.90707634 297.74407294 102.10229948 297.75329823 119.29755668 297.75179856 C120.6880774 297.75167869 120.6880774 297.75167869 122.10668945 297.7515564 C123.03483527 297.75147464 123.96298109 297.75139287 124.91925254 297.75130863 C139.96118024 297.75049573 155.0030078 297.76963416 170.04490653 297.79783313 C185.49012009 297.82655969 200.93528481 297.84037355 216.38052577 297.83864558 C225.05173418 297.83798159 233.72283763 297.84347766 242.39402199 297.86500168 C249.77695923 297.8832105 257.15974392 297.88756332 264.54269389 297.87398283 C268.30879709 297.86745158 272.0746076 297.86734134 275.84068298 297.88468933 C279.92569262 297.90331274 284.01002425 297.89086975 288.095047 297.87542725 C289.28230954 297.88571437 290.46957207 297.8960015 291.69281226 297.90660036 C298.55726147 297.84918611 303.03206348 297.07662148 308.86816406 293.38095093 C314.36945878 287.73488529 315.1637252 282.38874955 315.1086731 274.7313385 C315.11038195 273.86135328 315.1120908 272.99136805 315.11385143 272.09501964 C315.1171449 269.18072472 315.10614492 266.26666018 315.09521484 263.35238647 C315.0946507 261.26300563 315.09496735 259.17362439 315.09609985 257.08424377 C315.09667424 251.4111324 315.08490596 245.7381054 315.07095194 240.06501365 C315.05845895 234.13662375 315.05727521 228.20823197 315.05490112 222.27983093 C315.04868215 211.05311713 315.03226566 199.82644223 315.01220214 188.59974557 C314.98985614 175.81874158 314.97885298 163.03773574 314.96881127 150.25671709 C314.94789982 123.96477346 314.91271571 97.67286437 314.86816406 71.38095093 C296.90027502 71.31077731 278.93242169 71.2579219 260.96442509 71.22551441 C252.6210121 71.21006511 244.2776844 71.18901275 235.93432617 71.15463257 C228.65973061 71.12467077 221.38519684 71.10536185 214.11054128 71.09868544 C210.26093896 71.09478464 206.41151337 71.0856579 202.56196785 71.06376076 C198.93322449 71.04328824 195.30472947 71.03713867 191.67593384 71.04162788 C189.72027914 71.04041843 187.76465103 71.02433291 185.80906677 71.00769043 C175.41053712 71.04397272 168.04597344 73.05533803 159.61816406 79.06845093 Z " fill="#000000" transform="translate(111.1318359375,99.61904907226563)"/>
<path d="M0 0 C4.90835462 1.43803937 8.3528135 6.0138694 11.80477905 9.58428955 C13.17404289 10.96129532 13.17404289 10.96129532 14.57096863 12.36611938 C16.50050273 14.30787467 18.41813084 16.26039807 20.32699585 18.22247314 C22.76274075 20.72593121 25.21739349 23.20967642 27.68010998 25.68657875 C30.0408837 28.06255793 32.39174244 30.44817915 34.74227905 32.83428955 C35.61837326 33.72202057 36.49446747 34.60975159 37.39710999 35.52438354 C48.05309041 46.47273188 48.05309041 46.47273188 48.10458374 51.65362549 C46.84661929 55.26058515 45.24464327 57.12444153 42.5899353 59.87335205 C42.11010193 60.37594543 41.63026855 60.87853882 41.13589478 61.3963623 C40.05670139 62.52220126 38.971425 63.64223037 37.88119507 64.75738525 C35.93911858 66.74617024 34.0169297 68.75301038 32.09579468 70.76202393 C28.46106712 74.55077781 24.7903718 78.30224421 21.10263062 82.03936768 C19.56947563 83.59946623 18.04353463 85.16668359 16.52450562 86.74053955 C14.30248684 89.04133986 12.0585949 91.31860942 9.8086853 93.59210205 C9.1356134 94.29816589 8.4625415 95.00422974 7.76907349 95.73168945 C4.4929259 98.99412117 2.93512421 100.48010958 -1.75283813 101.17510986 C-4.9256897 100.60772705 -4.9256897 100.60772705 -7.4256897 98.54522705 C-9.42877942 94.62250968 -9.03929574 92.84833886 -7.9256897 88.60772705 C-6.15709748 86.15548646 -4.03636332 84.19475372 -1.8006897 82.17022705 C-0.67040065 81.11188928 0.45718563 80.05065798 1.5821228 78.9866333 C2.44583496 78.17186523 2.44583496 78.17186523 3.32699585 77.34063721 C5.77360772 74.91419441 7.98132446 72.30493168 10.22665405 69.69342041 C13.49325163 66.00598078 17.00894531 62.56892943 20.5118103 59.10772705 C21.24335327 58.3806958 21.97489624 57.65366455 22.72860718 56.90460205 C24.50820855 55.13663206 26.29011948 53.37106328 28.0743103 51.60772705 C26.56589217 48.05292702 24.49797369 45.81213083 21.75009155 43.12335205 C20.88577515 42.26999268 20.02145874 41.4166333 19.13095093 40.53741455 C18.22538452 39.65311768 17.31981812 38.7688208 16.3868103 37.85772705 C10.90107564 32.47971226 5.51249919 27.11256777 0.51547241 21.27374268 C-1.16727473 19.32844936 -2.94851644 17.51661742 -4.8006897 15.73272705 C-7.57979685 13.05331881 -8.80813 11.68927624 -9.2381897 7.73272705 C-8.9256897 4.60772705 -8.9256897 4.60772705 -7.3631897 2.23272705 C-4.81889158 0.53652831 -3.0674289 -0.0894561 0 0 Z " fill="#000000" transform="translate(309.9256896972656,233.39227294921875)"/>
<path d="M0 0 C3.00339193 2.00226129 3.81463343 3.25853373 4.6875 6.75 C3.63502086 11.72535592 0.51920952 14.46701666 -3 18 C-3.58652344 18.58910156 -4.17304688 19.17820313 -4.77734375 19.78515625 C-5.90030843 20.90302812 -7.02709189 22.01708086 -8.15820312 23.12670898 C-9.92264351 24.92132074 -11.55916131 26.7727274 -13.19140625 28.6875 C-17.07968938 33.16010768 -21.22348912 37.33611002 -25.4375 41.5 C-26.16904297 42.22703125 -26.90058594 42.9540625 -27.65429688 43.703125 C-29.43389824 45.47109499 -31.21580918 47.23666378 -33 49 C-31.49158187 52.55480003 -29.42366339 54.79559622 -26.67578125 57.484375 C-25.81146484 58.33773437 -24.94714844 59.19109375 -24.05664062 60.0703125 C-23.15107422 60.95460938 -22.24550781 61.83890625 -21.3125 62.75 C-15.85721593 68.09816213 -10.46635448 73.41064469 -5.54711914 79.26245117 C-3.8489196 81.16967638 -2.02339464 82.85629717 -0.125 84.5625 C2.39323733 87.05799929 3.03220472 88.09830913 4.1875 91.625 C4 95 4 95 2.5 97.9375 C0 100 0 100 -3.06396484 100.67407227 C-9.20778751 99.62190167 -12.25056595 95.65264806 -16.4765625 91.27734375 C-17.36483734 90.38390762 -18.25311218 89.4904715 -19.16830444 88.56996155 C-21.04444666 86.67667577 -22.91271269 84.77844594 -24.77050781 82.86743164 C-27.13670483 80.4336232 -29.52170317 78.01944375 -31.91481972 75.61212826 C-34.21292619 73.29878593 -36.50117107 70.97578325 -38.7890625 68.65234375 C-39.63812164 67.7916478 -40.48718079 66.93095184 -41.36196899 66.04417419 C-52.93599225 54.14459638 -52.93599225 54.14459638 -53.09277344 48.89160156 C-51.76319505 45.37338743 -50.13091766 43.44247155 -47.515625 40.734375 C-46.79587494 39.98048492 -46.79587494 39.98048492 -46.06158447 39.21136475 C-44.98239108 38.08552579 -43.8971147 36.96549668 -42.80688477 35.8503418 C-40.86480828 33.86155681 -38.9426194 31.85471667 -37.02148438 29.84570312 C-33.38675682 26.05694924 -29.7160615 22.30548284 -26.02832031 18.56835938 C-24.49516533 17.00826082 -22.96922432 15.44104346 -21.45019531 13.8671875 C-19.22817654 11.5663872 -16.9842846 9.28911763 -14.734375 7.015625 C-14.0613031 6.30956116 -13.3882312 5.60349731 -12.69476318 4.8760376 C-8.5633888 0.76195956 -6.12239463 -1.04335415 0 0 Z " fill="#000000" transform="translate(207,234)"/>
<path d="M0 0 C2.4153163 2.17378467 2.94418853 3.43071254 3.26098633 6.66210938 C2.94145422 10.74877265 1.59833258 14.02407614 -0.05078125 17.71875 C-0.37675293 18.47386871 -0.70272461 19.22898743 -1.03857422 20.00698853 C-2.12040236 22.50889024 -3.2165876 25.00423964 -4.3125 27.5 C-5.87002817 31.08879977 -7.41955937 34.68103209 -8.96875 38.2734375 C-9.37442703 39.21162323 -9.78010406 40.14980896 -10.19807434 41.11642456 C-13.28131815 48.26825666 -16.26983429 55.45590073 -19.21875 62.6640625 C-19.64592819 63.70709534 -20.07310638 64.75012817 -20.51322937 65.82476807 C-22.19593407 69.9372587 -23.87676524 74.05045268 -25.54653931 78.16821289 C-26.70901805 81.03373373 -27.87930188 83.89596203 -29.05078125 86.7578125 C-29.56233765 88.03031357 -29.56233765 88.03031357 -30.08422852 89.32852173 C-31.97999825 93.94154971 -33.97182222 98.02121135 -37 102 C-39.75549952 103.00102131 -42.16843765 102.6730763 -45 102 C-47.5 100.375 -47.5 100.375 -49 98 C-49.55205518 92.82537123 -48.01874489 88.9178154 -45.94921875 84.28125 C-45.62324707 83.52613129 -45.29727539 82.77101257 -44.96142578 81.99301147 C-43.87959764 79.49110976 -42.7834124 76.99576036 -41.6875 74.5 C-40.12997183 70.91120023 -38.58044063 67.31896791 -37.03125 63.7265625 C-36.62557297 62.78837677 -36.21989594 61.85019104 -35.80192566 60.88357544 C-32.71868185 53.73174334 -29.73016571 46.54409927 -26.78125 39.3359375 C-26.35407181 38.29290466 -25.92689362 37.24987183 -25.48677063 36.17523193 C-23.80406593 32.0627413 -22.12323476 27.94954732 -20.45346069 23.83178711 C-19.29098195 20.96626627 -18.12069812 18.10403797 -16.94921875 15.2421875 C-16.60818115 14.39385345 -16.26714355 13.54551941 -15.91577148 12.67147827 C-14.02155413 8.06222776 -12.07742212 3.94037015 -9 0 C-5.4314543 -1.18951523 -3.60804584 -0.97717908 0 0 Z " fill="#000000" transform="translate(279,233)"/>
<path d="M0 0 C0.99773437 -0.00708984 1.99546875 -0.01417969 3.0234375 -0.02148438 C11.43070255 0.05176927 11.43070255 0.05176927 15 3.4375 C16.19308162 7.09628362 16.32667744 8.73747692 14.6875 12.25 C13 14.4375 13 14.4375 11 15.4375 C7.5691548 15.73009649 4.12937345 15.71541989 0.6875 15.75 C-0.26318359 15.77900391 -1.21386719 15.80800781 -2.19335938 15.83789062 C-6.58494361 15.87778622 -9.26523142 15.85985451 -13.1328125 13.63671875 C-15 11.4375 -15 11.4375 -15.5625 7.9375 C-15 4.4375 -15 4.4375 -13.65234375 2.24609375 C-9.39069392 -0.65986188 -5.03028882 -0.10073576 0 0 Z " fill="#000000" transform="translate(121,140.5625)"/>
<path d="M0 0 C1.57491211 -0.04253906 1.57491211 -0.04253906 3.18164062 -0.0859375 C10.84721253 -0.10548007 10.84721253 -0.10548007 14.28515625 2.8046875 C16.03824504 6.50386568 15.71437896 8.6124085 14.5625 12.5 C10.25050158 16.61542817 5.77330358 16.01540096 0.125 16 C-0.81666016 16.02835938 -1.75832031 16.05671875 -2.72851562 16.0859375 C-7.41616854 16.09917011 -9.72189621 16.02188657 -13.59765625 13.1953125 C-15.4375 10.5 -15.4375 10.5 -15.4375 6.875 C-13.02533631 -1.26605244 -7.41155418 -0.01813224 0 0 Z " fill="#000000" transform="translate(177.4375,140.5)"/>
</svg>
