<?xml version="1.0" encoding="UTF-8"?>
<svg version="1.1" xmlns="http://www.w3.org/2000/svg" width="512" height="512">
<path d="M0 0 C0.87011719 -0.02626465 1.74023438 -0.0525293 2.63671875 -0.07958984 C3.45914063 -0.08168457 4.2815625 -0.0837793 5.12890625 -0.0859375 C5.86310791 -0.09415527 6.59730957 -0.10237305 7.35375977 -0.11083984 C10.36913833 0.59221854 11.49380774 1.99856574 13.4375 4.375 C13.9521637 7.03100586 13.9521637 7.03100586 13.97094727 10.08984375 C13.99470177 11.81182983 13.99470177 11.81182983 14.01893616 13.56860352 C14.01397629 14.80408936 14.00901642 16.0395752 14.00390625 17.3125 C14.01010483 18.58472412 14.01630341 19.85694824 14.02268982 21.16772461 C14.02979538 23.8581426 14.02854475 26.54706674 14.01391602 29.23730469 C13.99672027 32.68113432 14.02023269 36.1232967 14.05540562 39.56694031 C14.08267009 42.85714701 14.07264417 46.14721218 14.06640625 49.4375 C14.07966446 50.67298584 14.09292267 51.90847168 14.10658264 53.18139648 C14.09404953 54.32938721 14.08151642 55.47737793 14.06860352 56.66015625 C14.06764175 57.66957275 14.06667999 58.67898926 14.06568909 59.71899414 C13.4375 62.375 13.4375 62.375 11.13633728 64.71435547 C7.54656226 66.92321048 4.49626631 66.7108302 0.4375 66.4375 C-4.72321308 66.11852604 -8.29782073 66.10645019 -12.5625 69.375 C-15.96734482 72.6852658 -17.28506625 75.53774072 -17.6640625 80.3203125 C-17.43751943 84.90345314 -15.45435454 88.31592274 -12.5625 91.75 C-8.12682953 95.35398225 -2.91468035 94.36090951 2.45703125 94.07226562 C5.9266543 93.98504046 8.13226962 94.19632387 11.1496582 95.96264648 C14.20617509 99.18550886 14.01875344 100.93983774 13.92578125 105.328125 C13.91516914 106.31845734 13.91516914 106.31845734 13.90434265 107.32879639 C13.87644727 109.42870492 13.81373287 111.52590379 13.75 113.625 C13.72491017 115.0520447 13.70209817 116.47913138 13.68164062 117.90625 C13.63089272 121.39770569 13.53307471 124.88333717 13.4375 128.375 C18.7175 128.375 23.9975 128.375 29.4375 128.375 C29.4375 125.735 29.4375 123.095 29.4375 120.375 C31.7538339 110.87803103 37.1026084 104.42942341 45.3125 99.41796875 C53.62933805 95.33599125 63.47341245 95.01707062 72.45703125 97.0625 C81.35163755 100.34161753 87.1299745 106.02916935 91.4375 114.375 C93.56963359 119.24844821 93.49634981 123.15341699 93.4375 128.375 C94.74944336 128.35405273 96.06138672 128.33310547 97.41308594 128.31152344 C102.28081344 128.2391203 107.14849335 128.19319887 112.01660156 128.15527344 C114.12345382 128.13515874 116.23025025 128.10786333 118.33691406 128.07324219 C121.36537447 128.02471832 124.39309678 128.00202984 127.421875 127.984375 C128.83457672 127.95340729 128.83457672 127.95340729 130.27581787 127.92181396 C136.76539316 127.91958749 136.76539316 127.91958749 140.03027344 130.13183594 C141.55648103 132.56465956 141.95120077 133.81076696 141.96875 136.65625 C141.97688721 137.48817871 141.98502441 138.32010742 141.9934082 139.17724609 C141.9749585 140.06750488 141.95650879 140.95776367 141.9375 141.875 C141.92046021 143.2664624 141.92046021 143.2664624 141.90307617 144.68603516 C141.08627835 174.56111082 128.56806709 202.76288505 109.4375 225.375 C108.76074219 226.18710937 108.08398438 226.99921875 107.38671875 227.8359375 C95.60705261 241.489152 80.20032395 253.48284718 63.4375 260.375 C62.7775 260.375 62.1175 260.375 61.4375 260.375 C61.4375 264.335 61.4375 268.295 61.4375 272.375 C62.4275 272.32859375 63.4175 272.2821875 64.4375 272.234375 C78.79983644 271.7541753 78.79983644 271.7541753 84.4375 276.375 C89.41990167 281.1291243 93.08580806 285.50786641 93.72802734 292.56958008 C93.76850834 295.75647941 93.8088675 298.94293165 93.80810547 302.13012695 C93.81246602 304.17159286 93.84878866 306.2108708 93.88671875 308.25195312 C93.91275045 317.03765239 93.41239947 322.83903122 87.47265625 329.6171875 C86.82167969 330.15601563 86.17070312 330.69484375 85.5 331.25 C84.85160156 331.80429687 84.20320312 332.35859375 83.53515625 332.9296875 C78.71007712 336.25422992 74.36622489 336.64284387 68.625 336.5 C67.93212891 336.49097656 67.23925781 336.48195313 66.52539062 336.47265625 C64.82927605 336.44926157 63.13334129 336.41339641 61.4375 336.375 C61.45844727 337.31706299 61.47939453 338.25912598 61.50097656 339.22973633 C61.56977489 342.77655114 61.61959814 346.32264135 61.65722656 349.86987305 C61.67715311 351.39537859 61.70430485 352.92080968 61.73925781 354.44604492 C62.04611129 368.19578842 60.26434355 379.08113815 50.4375 389.375 C41.28838214 398.10903501 31.26001176 401.00679452 18.8125 400.90625 C17.74435059 400.9100769 16.67620117 400.91390381 15.57568359 400.91784668 C13.33364918 400.9205497 11.09158234 400.91330241 8.84960938 400.89648438 C5.44588958 400.87505283 2.04428027 400.89634268 -1.359375 400.921875 C-3.55208793 400.91923144 -5.74479955 400.91410588 -7.9375 400.90625 C-9.44111084 400.91839539 -9.44111084 400.91839539 -10.97509766 400.93078613 C-22.21977718 400.78381834 -31.41113982 397.15654422 -39.5625 389.375 C-50.05663637 378.3821324 -51.14504824 366.69883849 -50.8125 352.1875 C-50.79238817 350.6478099 -50.77414574 349.1080942 -50.7578125 347.56835938 C-50.71422461 343.83669792 -50.64546116 340.10601842 -50.5625 336.375 C-51.59310547 336.39240234 -52.62371094 336.40980469 -53.68554688 336.42773438 C-55.05077716 336.44180891 -56.41601187 336.45545839 -57.78125 336.46875 C-58.45897461 336.48131836 -59.13669922 336.49388672 -59.83496094 336.50683594 C-66.67599144 336.55677047 -70.6311964 335.17200085 -75.5234375 330.50390625 C-82.51930897 322.95122052 -82.93552047 316.72059777 -82.93310547 306.61987305 C-82.93746602 304.57840714 -82.97378866 302.5391292 -83.01171875 300.49804688 C-83.03775045 291.71234761 -82.53739947 285.91096878 -76.59765625 279.1328125 C-75.94667969 278.59398437 -75.29570312 278.05515625 -74.625 277.5 C-73.97660156 276.94570313 -73.32820313 276.39140625 -72.66015625 275.8203125 C-67.80430429 272.4745672 -63.53159239 272.10615177 -57.75 272.25 C-57.05712891 272.25902344 -56.36425781 272.26804687 -55.65039062 272.27734375 C-53.95427605 272.30073843 -52.25834129 272.33660359 -50.5625 272.375 C-50.5625 268.415 -50.5625 264.455 -50.5625 260.375 C-51.7071875 260.065625 -51.7071875 260.065625 -52.875 259.75 C-83.21388001 248.43719728 -105.36936622 221.13519578 -119.375 193.0625 C-127.35209918 175.22908117 -130.99455686 156.341764 -130.9375 136.875 C-130.93695618 136.17356873 -130.93641235 135.47213745 -130.93585205 134.74945068 C-130.89379655 122.90695797 -129.82222583 111.79158606 -126.5625 100.375 C-126.25699219 99.25279053 -126.25699219 99.25279053 -125.9453125 98.10791016 C-121.33468719 81.52602391 -113.4728107 65.72064791 -102.5625 52.375 C-102.11648437 51.82505371 -101.67046875 51.27510742 -101.2109375 50.70849609 C-79.5595955 24.17257661 -48.52832884 4.93835667 -14.06640625 0.625 C-9.37669416 0.29039401 -4.70063197 0.08981565 0 0 Z M-80.1875 52.5 C-98.25313637 70.69819345 -113.38161858 98.99864518 -113.5925293 125.08984375 C-113.58261963 126.17394531 -113.57270996 127.25804687 -113.5625 128.375 C-113.00539841 128.37864563 -112.44829681 128.38229126 -111.87431335 128.38604736 C-106.08285606 128.42781472 -100.29219557 128.49711861 -94.5012207 128.58251953 C-92.33919234 128.61076861 -90.17705995 128.63196346 -88.01489258 128.64599609 C-84.90912459 128.66737096 -81.80461268 128.71399343 -78.69921875 128.765625 C-77.73038254 128.76685364 -76.76154633 128.76808228 -75.76335144 128.76934814 C-74.41229057 128.79892609 -74.41229057 128.79892609 -73.03393555 128.82910156 C-71.84479805 128.84242523 -71.84479805 128.84242523 -70.63163757 128.85601807 C-68.5625 129.375 -68.5625 129.375 -66.79475403 131.17694092 C-64.6652328 134.97551926 -65.44760216 139.22327425 -65.6796875 143.44335938 C-65.83485504 148.04235289 -65.38080007 150.71186993 -62.5625 154.375 C-58.79070306 158.23451315 -56.02115413 160.15463885 -50.578125 160.5078125 C-45.65794138 160.18361435 -42.3189885 158.03281608 -38.6875 154.875 C-34.66002147 150.13678996 -35.53519431 145.11601354 -35.77734375 139.26757812 C-35.83849248 136.26851084 -35.819017 133.89350406 -34.47485352 131.17651367 C-31.66933987 128.53360736 -29.51158031 128.8298368 -25.70703125 128.765625 C-25.04539474 128.74908875 -24.38375824 128.73255249 -23.70207214 128.71551514 C-21.59295399 128.66700712 -19.48455677 128.64566073 -17.375 128.625 C-15.94332305 128.59684223 -14.51167972 128.56691505 -13.08007812 128.53515625 C-9.57388651 128.45791841 -6.06997598 128.4174377 -2.5625 128.375 C-2.5625 123.095 -2.5625 117.815 -2.5625 112.375 C-5.0375 112.00375 -5.0375 112.00375 -7.5625 111.625 C-15.37971933 110.19820675 -23.03281515 107.15649168 -27.90625 100.5546875 C-33.71615738 91.67093378 -34.64153864 82.75382157 -33.5625 72.375 C-31.6389426 64.24407087 -27.62212113 58.22310817 -20.625 53.625 C-14.56142602 50.08885966 -9.68010342 49.26470043 -2.5625 48.375 C-2.5625 38.145 -2.5625 27.915 -2.5625 17.375 C-31.95431115 17.375 -59.51597027 32.43573842 -80.1875 52.5 Z M49.5625 117.875 C45.53502147 122.61321004 46.41019431 127.63398646 46.65234375 133.48242188 C46.71349248 136.48148916 46.694017 138.85649594 45.34985352 141.57348633 C42.54433987 144.21639264 40.38658031 143.9201632 36.58203125 143.984375 C35.92039474 144.00091125 35.25875824 144.01744751 34.57707214 144.03448486 C32.46795399 144.08299288 30.35955677 144.10433927 28.25 144.125 C26.81832305 144.15315777 25.38667972 144.18308495 23.95507812 144.21484375 C20.44888651 144.29208159 16.94497598 144.3325623 13.4375 144.375 C13.4375 149.655 13.4375 154.935 13.4375 160.375 C15.0875 160.6225 16.7375 160.87 18.4375 161.125 C26.25471933 162.55179325 33.90781515 165.59350832 38.78125 172.1953125 C44.59115738 181.07906622 45.51653864 189.99617843 44.4375 200.375 C42.5139426 208.50592913 38.49712113 214.52689183 31.5 219.125 C25.43642602 222.66114034 20.55510342 223.48529957 13.4375 224.375 C13.4375 240.215 13.4375 256.055 13.4375 272.375 C23.9975 272.375 34.5575 272.375 45.4375 272.375 C45.52881623 265.31509493 45.52881623 265.31509493 45.55517578 258.25488281 C45.76501847 251.01992917 45.76501847 251.01992917 49.01171875 247.90625 C50.14222656 247.4009375 51.27273438 246.895625 52.4375 246.375 C53.67187775 245.75781113 54.90490455 245.13791456 56.13671875 244.515625 C57.46587568 243.88484709 58.79531238 243.25465843 60.125 242.625 C71.30352072 237.16378684 80.40630799 229.89185277 89.4375 221.375 C90.11425781 220.76269531 90.79101562 220.15039062 91.48828125 219.51953125 C110.08693953 202.03902878 121.094524 176.38867133 124.4375 151.375 C124.45501218 149.04173238 124.45722784 146.70824993 124.4375 144.375 C123.88039841 144.37135437 123.32329681 144.36770874 122.74931335 144.36395264 C116.95785606 144.32218528 111.16719557 144.25288139 105.3762207 144.16748047 C103.21419234 144.13923139 101.05205995 144.11803654 98.88989258 144.10400391 C95.78412459 144.08262904 92.67961268 144.03600657 89.57421875 143.984375 C88.60538254 143.98314636 87.63654633 143.98191772 86.63835144 143.98065186 C85.7376442 143.96093323 84.83693695 143.9412146 83.90893555 143.92089844 C83.11617722 143.91201599 82.32341888 143.90313354 81.50663757 143.89398193 C79.4375 143.375 79.4375 143.375 77.66975403 141.57305908 C75.5402328 137.77448074 76.32260216 133.52672575 76.5546875 129.30664062 C76.70985504 124.70764711 76.25580007 122.03813007 73.4375 118.375 C69.66570306 114.51548685 66.89615413 112.59536115 61.453125 112.2421875 C56.53294138 112.56638565 53.1939885 114.71718392 49.5625 117.875 Z M-113.5625 144.375 C-112.7332037 155.76145854 -112.7332037 155.76145854 -110.4375 166.6875 C-110.21795654 167.4916333 -109.99841309 168.2957666 -109.7722168 169.12426758 C-103.96259873 189.51520306 -93.39479301 206.37246547 -78.5625 221.375 C-77.98371094 222.02597656 -77.40492188 222.67695313 -76.80859375 223.34765625 C-67.74496056 233.35788299 -54.95028699 240.05372959 -42.890625 245.71875 C-37.85771131 248.22339249 -37.85771131 248.22339249 -35.5625 250.375 C-35.01660156 252.73510742 -35.01660156 252.73510742 -34.953125 255.48046875 C-34.92250977 256.36629639 -34.89189453 257.25212402 -34.86035156 258.16479492 C-34.83666504 259.84665894 -34.83666504 259.84665894 -34.8125 261.5625 C-34.73 265.130625 -34.6475 268.69875 -34.5625 272.375 C-24.0025 272.375 -13.4425 272.375 -2.5625 272.375 C-2.53671875 267.93417969 -2.5109375 263.49335938 -2.484375 258.91796875 C-2.45270385 255.37895772 -2.41705424 251.84003661 -2.37870789 248.30109406 C-2.33931053 244.56423545 -2.30693989 240.82761712 -2.29150391 237.09057617 C-2.27636886 233.49170809 -2.2419814 229.89349359 -2.19419098 226.29491615 C-2.17934425 224.92144766 -2.17145709 223.54788586 -2.17061615 222.17433739 C-2.16825502 220.25177532 -2.1389413 218.32930331 -2.10839844 216.40698242 C-2.09507477 214.76484016 -2.09507477 214.76484016 -2.08148193 213.08952332 C-1.5625 210.375 -1.5625 210.375 0.23944092 208.50971985 C4.08070759 206.52671513 8.30440676 207.26112686 12.50585938 207.4921875 C17.10485289 207.64735504 19.77436993 207.19330007 23.4375 204.375 C27.29701315 200.60320306 29.21713885 197.83365413 29.5703125 192.390625 C29.24611435 187.47044138 27.09531608 184.1314885 23.9375 180.5 C19.19928996 176.47252147 14.17851354 177.34769431 8.33007812 177.58984375 C5.33101084 177.65099248 2.95600406 177.631517 0.23901367 176.28735352 C-2.40389264 173.48183987 -2.1076632 171.32408031 -2.171875 167.51953125 C-2.18841125 166.85789474 -2.20494751 166.19625824 -2.22198486 165.51457214 C-2.27049288 163.40545399 -2.29183927 161.29705677 -2.3125 159.1875 C-2.34065777 157.75582305 -2.37058495 156.32417972 -2.40234375 154.89257812 C-2.47958159 151.38638651 -2.5200623 147.88247598 -2.5625 144.375 C-7.8425 144.375 -13.1225 144.375 -18.5625 144.375 C-18.93375 146.85 -18.93375 146.85 -19.3125 149.375 C-20.73929325 157.19221933 -23.78100832 164.84531515 -30.3828125 169.71875 C-39.26656622 175.52865738 -48.18367843 176.45403864 -58.5625 175.375 C-66.69342913 173.4514426 -72.71439183 169.43462113 -77.3125 162.4375 C-80.84864034 156.37392602 -81.67279957 151.49260342 -82.5625 144.375 C-92.7925 144.375 -103.0225 144.375 -113.5625 144.375 Z M-64.5625 291.375 C-67.04292417 295.38513822 -66.89632441 299.71922209 -66.875 304.3125 C-66.89111328 305.00279297 -66.90722656 305.69308594 -66.92382812 306.40429688 C-66.9283079 311.13046453 -66.24053486 314.46005143 -63.5625 318.375 C-60.0088108 320.16884959 -57.09470423 320.62698595 -53.14222717 320.63569641 C-52.06701309 320.64278122 -50.99179901 320.64986603 -49.88400269 320.65716553 C-48.7145108 320.65468811 -47.54501892 320.65221069 -46.34008789 320.6496582 C-45.10053848 320.65476913 -43.86098907 320.65988007 -42.58387756 320.66514587 C-39.19123629 320.67665391 -35.79883956 320.67911715 -32.40619588 320.67658257 C-29.57074193 320.67551135 -26.73531041 320.6804001 -23.89986128 320.685188 C-17.20902124 320.69627521 -10.51823735 320.69672497 -3.82739258 320.69067383 C3.06807593 320.68463339 9.96334042 320.69694849 16.85877413 320.7182439 C22.78589677 320.7358737 28.71295455 320.7418591 34.64010245 320.73860615 C38.1770807 320.7367954 41.7139134 320.73940863 45.25086784 320.75332069 C49.1958908 320.76825788 53.14065491 320.7589168 57.08569336 320.74731445 C58.83689484 320.75878006 58.83689484 320.75878006 60.62347412 320.77047729 C68.4517138 320.72580677 68.4517138 320.72580677 75.4375 317.375 C77.91792417 313.36486178 77.77132441 309.03077791 77.75 304.4375 C77.76611328 303.74720703 77.78222656 303.05691406 77.79882812 302.34570312 C77.8033079 297.61953547 77.11553486 294.28994857 74.4375 290.375 C70.8838108 288.58115041 67.96970423 288.12301405 64.01722717 288.11430359 C62.94201309 288.10721878 61.86679901 288.10013397 60.75900269 288.09283447 C59.00476486 288.0965506 59.00476486 288.0965506 57.21508789 288.1003418 C55.97553848 288.09523087 54.73598907 288.09011993 53.45887756 288.08485413 C50.06623629 288.07334609 46.67383956 288.07088285 43.28119588 288.07341743 C40.44574193 288.07448865 37.61031041 288.0695999 34.77486128 288.064812 C28.08402124 288.05372479 21.39323735 288.05327503 14.70239258 288.05932617 C7.80692407 288.06536661 0.91165958 288.05305151 -5.98377413 288.0317561 C-11.91089677 288.0141263 -17.83795455 288.0081409 -23.76510245 288.01139385 C-27.3020807 288.0132046 -30.8389134 288.01059137 -34.37586784 287.99667931 C-38.3208908 287.98174212 -42.26565491 287.9910832 -46.21069336 288.00268555 C-47.37816101 287.99504181 -48.54562866 287.98739807 -49.74847412 287.97952271 C-57.5767138 288.02419323 -57.5767138 288.02419323 -64.5625 291.375 Z M-34.5625 336.375 C-34.61683769 340.18769492 -34.65633796 343.99960221 -34.6875 347.8125 C-34.70425781 348.88177734 -34.72101563 349.95105469 -34.73828125 351.05273438 C-34.79780638 360.78509257 -34.13617272 369.73352258 -27.5625 377.375 C-18.73133972 384.97211168 -7.76909399 384.70168419 3.29394531 384.63574219 C5.43323101 384.62502139 7.57167725 384.63568629 9.7109375 384.6484375 C24.00486314 384.73686758 24.00486314 384.73686758 36.4375 378.375 C42.63992145 372.12795681 45.20093658 366.385237 45.55102539 357.49072266 C45.54578857 356.5166748 45.54055176 355.54262695 45.53515625 354.5390625 C45.53193359 353.47558594 45.52871094 352.41210938 45.52539062 351.31640625 C45.51701172 350.22199219 45.50863281 349.12757813 45.5 348 C45.49548828 346.88238281 45.49097656 345.76476562 45.48632812 344.61328125 C45.47459258 341.86716434 45.45665866 339.12107515 45.4375 336.375 C40.1575 336.375 34.8775 336.375 29.4375 336.375 C29.40011719 338.36144531 29.36273438 340.34789062 29.32421875 342.39453125 C29.27554184 344.32074613 29.22676192 346.24695995 29.17504883 348.1730957 C29.12548681 350.1679063 29.09098867 352.16307257 29.05664062 354.15820312 C29.02119141 355.41181641 28.98574219 356.66542969 28.94921875 357.95703125 C28.92303467 359.11436768 28.89685059 360.2717041 28.86987305 361.46411133 C28.4375 364.375 28.4375 364.375 27.02661133 366.2512207 C25.04094068 367.65543671 23.85493724 367.77747088 21.4375 367.75 C20.756875 367.75773437 20.07625 367.76546875 19.375 367.7734375 C16.76985687 367.23770242 16.03785568 366.50317675 14.4375 364.375 C14.00512695 361.46411133 14.00512695 361.46411133 13.92578125 357.95703125 C13.89033203 356.70341797 13.85488281 355.44980469 13.81835938 354.15820312 C13.78452148 352.19270508 13.78452148 352.19270508 13.75 350.1875 C13.71682334 348.85217987 13.68233334 347.51689168 13.64648438 346.18164062 C13.56388491 342.91306175 13.49901996 339.64404356 13.4375 336.375 C8.1575 336.375 2.8775 336.375 -2.5625 336.375 C-2.59988281 338.36144531 -2.63726562 340.34789062 -2.67578125 342.39453125 C-2.72445816 344.32074613 -2.77323808 346.24695995 -2.82495117 348.1730957 C-2.87451319 350.1679063 -2.90901133 352.16307257 -2.94335938 354.15820312 C-2.97880859 355.41181641 -3.01425781 356.66542969 -3.05078125 357.95703125 C-3.07696533 359.11436768 -3.10314941 360.2717041 -3.13012695 361.46411133 C-3.5625 364.375 -3.5625 364.375 -4.97338867 366.2512207 C-6.95905932 367.65543671 -8.14506276 367.77747088 -10.5625 367.75 C-11.243125 367.75773437 -11.92375 367.76546875 -12.625 367.7734375 C-15.23014313 367.23770242 -15.96214432 366.50317675 -17.5625 364.375 C-17.99487305 361.46411133 -17.99487305 361.46411133 -18.07421875 357.95703125 C-18.12739258 356.07661133 -18.12739258 356.07661133 -18.18164062 354.15820312 C-18.20419922 352.84787109 -18.22675781 351.53753906 -18.25 350.1875 C-18.28317666 348.85217987 -18.31766666 347.51689168 -18.35351562 346.18164062 C-18.43611509 342.91306175 -18.50098004 339.64404356 -18.5625 336.375 C-23.8425 336.375 -29.1225 336.375 -34.5625 336.375 Z " fill="#000000" transform="translate(250.5625,87.625)"/>
<path d="M0 0 C1.20257446 -0.00471313 1.20257446 -0.00471313 2.42944336 -0.00952148 C3.71153687 0.02419556 3.71153687 0.02419556 5.01953125 0.05859375 C5.9122876 0.07398193 6.80504395 0.08937012 7.72485352 0.10522461 C35.06873045 0.88508996 62.62302926 11.20547043 83.83203125 28.49609375 C84.63302246 29.13321289 84.63302246 29.13321289 85.45019531 29.78320312 C112.10552401 51.07743191 131.30120568 82.79017489 135.58203125 116.9921875 C135.91663724 121.68189959 136.1172156 126.35796178 136.20703125 131.05859375 C136.2332959 131.92871094 136.25956055 132.79882812 136.28662109 133.6953125 C136.28871582 134.51773438 136.29081055 135.34015625 136.29296875 136.1875 C136.30118652 136.92170166 136.3094043 137.65590332 136.31787109 138.41235352 C135.61481271 141.42773208 134.20846551 142.55240149 131.83203125 144.49609375 C129.17602539 145.01075745 129.17602539 145.01075745 126.1171875 145.02954102 C124.96919678 145.04537735 123.82120605 145.06121368 122.63842773 145.07752991 C120.78519897 145.0700901 120.78519897 145.0700901 118.89453125 145.0625 C117.62230713 145.06869858 116.35008301 145.07489716 115.03930664 145.08128357 C112.34888865 145.08838913 109.65996451 145.0871385 106.96972656 145.07250977 C103.52589693 145.05531402 100.08373455 145.07882644 96.64009094 145.11399937 C93.34988424 145.14126384 90.05981907 145.13123792 86.76953125 145.125 C84.91630249 145.14488731 84.91630249 145.14488731 83.02563477 145.16517639 C81.87764404 145.15264328 80.72965332 145.14011017 79.546875 145.12719727 C78.5374585 145.1262355 77.52804199 145.12527374 76.48803711 145.12428284 C73.83203125 144.49609375 73.83203125 144.49609375 71.49267578 142.19493103 C69.28382077 138.60515601 69.49620105 135.55486006 69.76953125 131.49609375 C70.08850521 126.33538067 70.10058106 122.76077302 66.83203125 118.49609375 C63.52176545 115.09124893 60.66929053 113.7735275 55.88671875 113.39453125 C51.30357811 113.62107432 47.89110851 115.60423921 44.45703125 118.49609375 C40.853049 122.93176422 41.84612174 128.1439134 42.13476562 133.515625 C42.21949787 136.88608555 41.9865954 139.20437927 40.3996582 142.19946289 C36.60461437 145.59396488 33.32891035 145.19887988 28.39453125 145.125 C27.47744385 145.12741196 26.56035645 145.12982391 25.61547852 145.13230896 C23.67882966 145.13133058 21.74215281 145.11793918 19.80566406 145.09301758 C16.84213209 145.05871068 13.88158226 145.0723577 10.91796875 145.09179688 C9.03514356 145.08489828 7.15232607 145.07522578 5.26953125 145.0625 C4.38402588 145.06745987 3.49852051 145.07241974 2.58618164 145.07752991 C-1.1941373 145.00519768 -3.49633654 144.92235138 -6.73339844 142.86791992 C-8.62947571 139.73306785 -8.62501538 137.63365854 -8.55859375 133.98046875 C-8.53925781 132.10488281 -8.53925781 132.10488281 -8.51953125 130.19140625 C-8.48601562 128.88945312 -8.4525 127.5875 -8.41796875 126.24609375 C-8.39992188 124.92867188 -8.381875 123.61125 -8.36328125 122.25390625 C-8.31613146 119.00057067 -8.25032919 115.7486975 -8.16796875 112.49609375 C-9.38355469 112.52960938 -10.59914063 112.563125 -11.8515625 112.59765625 C-19.46733419 112.587598 -26.10632027 109.36440223 -31.63671875 104.19921875 C-39.03038166 95.9756549 -40.74986942 87.2616374 -40.48046875 76.484375 C-40.0061424 68.09868044 -36.39327352 61.09315675 -30.16796875 55.49609375 C-23.05239775 50.14518435 -16.96773608 48.39691604 -8.16796875 48.49609375 C-8.18891602 47.18415039 -8.20986328 45.87220703 -8.23144531 44.52050781 C-8.30384845 39.65278031 -8.34976988 34.7851004 -8.38769531 29.91699219 C-8.40781001 27.81013993 -8.43510542 25.7033435 -8.46972656 23.59667969 C-8.51825043 20.56821928 -8.54093891 17.54049697 -8.55859375 14.51171875 C-8.57923889 13.5699176 -8.59988403 12.62811646 -8.62115479 11.65777588 C-8.62338199 5.16607123 -8.62338199 5.16607123 -6.40405273 1.90112305 C-4.00157632 0.39154211 -2.80753869 -0.00734039 0 0 Z M7.83203125 17.49609375 C7.82838562 18.05319534 7.82473999 18.61029694 7.82098389 19.1842804 C7.77921653 24.97573769 7.70991264 30.76639818 7.62451172 36.55737305 C7.59626264 38.71940141 7.57506779 40.8815338 7.56103516 43.04370117 C7.53966029 46.14946916 7.49303782 49.25398107 7.44140625 52.359375 C7.43956329 53.81262932 7.43956329 53.81262932 7.43768311 55.29524231 C7.40810516 56.64630318 7.40810516 56.64630318 7.37792969 58.0246582 C7.36904724 58.81741653 7.36016479 59.61017487 7.35101318 60.42695618 C6.83203125 62.49609375 6.83203125 62.49609375 5.03009033 64.26383972 C1.23151199 66.39336095 -3.016243 65.61099159 -7.23632812 65.37890625 C-11.83532164 65.22373871 -14.50483868 65.67779368 -18.16796875 68.49609375 C-22.0274819 72.26789069 -23.9476076 75.03743962 -24.30078125 80.48046875 C-23.9765831 85.40065237 -21.82578483 88.73960525 -18.66796875 92.37109375 C-13.92975871 96.39857228 -8.90898229 95.52339944 -3.06054688 95.28125 C-0.06147959 95.22010127 2.31352719 95.23957675 5.03051758 96.58374023 C7.67342389 99.38925388 7.37719445 101.54701344 7.44140625 105.3515625 C7.46621063 106.34401726 7.46621063 106.34401726 7.49151611 107.35652161 C7.54002413 109.46563976 7.56137052 111.57403698 7.58203125 113.68359375 C7.61018902 115.1152707 7.6401162 116.54691403 7.671875 117.97851562 C7.74911284 121.48470724 7.78959355 124.98861777 7.83203125 128.49609375 C13.11203125 128.49609375 18.39203125 128.49609375 23.83203125 128.49609375 C24.07953125 126.84609375 24.32703125 125.19609375 24.58203125 123.49609375 C26.0088245 115.67887442 29.05053957 108.0257786 35.65234375 103.15234375 C44.53609747 97.34243637 53.45320968 96.41705511 63.83203125 97.49609375 C71.96296038 99.41965115 77.98392308 103.43647262 82.58203125 110.43359375 C86.11817159 116.49716773 86.94233082 121.37849033 87.83203125 128.49609375 C98.06203125 128.49609375 108.29203125 128.49609375 118.83203125 128.49609375 C118.02005743 117.18008928 118.02005743 117.18008928 115.76953125 106.30859375 C115.55401611 105.51251709 115.33850098 104.71644043 115.11645508 103.89624023 C111.24598381 90.315475 105.29273583 77.82144634 96.83203125 66.49609375 C96.2184375 65.66078125 95.60484375 64.82546875 94.97265625 63.96484375 C75.40629439 38.4153795 46.72380378 21.95369377 14.83203125 17.49609375 C12.49877415 17.47723264 10.16526711 17.47476587 7.83203125 17.49609375 Z " fill="#000000" transform="translate(320.16796875,23.50390625)"/>
<path d="M0 0 C5.07992162 3.17286908 7.24355678 7.47630531 9.9375 12.625 C10.80671618 14.25230637 11.67779874 15.87861726 12.55078125 17.50390625 C12.9679541 18.28266113 13.38512695 19.06141602 13.81494141 19.86376953 C15.28837253 22.51983098 16.94351531 25.03428193 18.625 27.5625 C20.96277256 31.41882568 21.86379354 34.55858484 21.51953125 39.08203125 C21 41 21 41 18.875 43.5625 C15.49160462 45.25419769 13.73175586 45.62195931 10 45 C6.02453435 42.29773553 3.86152468 39.57150957 1.5546875 35.38671875 C0.95269531 34.30326172 0.35070312 33.21980469 -0.26953125 32.10351562 C-0.88183594 30.97623047 -1.49414062 29.84894531 -2.125 28.6875 C-2.74503906 27.57181641 -3.36507812 26.45613281 -4.00390625 25.30664062 C-12.23734936 10.37135188 -12.23734936 10.37135188 -11.4375 5.75 C-8.72600235 0.5627871 -5.82892651 -0.83270379 0 0 Z " fill="#000000" transform="translate(163,49)"/>
<path d="M0 0 C5.91779675 1.13416978 10.91457351 4.67375164 15.99389648 7.77587891 C17.1621577 8.46639199 18.33142367 9.1552081 19.50170898 9.84228516 C33.31687821 18.05800357 33.31687821 18.05800357 34.74389648 22.96337891 C34.74389648 26.88881741 34.09514684 28.4511669 31.74389648 31.52587891 C30.74389648 32.52587891 30.74389648 32.52587891 27.07592773 33.06884766 C20.34228328 32.98752667 14.93534339 29.31459556 9.32177734 25.96459961 C7.43004663 24.83757471 5.52201306 23.74349112 3.60913086 22.65283203 C-6.85622556 16.56888814 -6.85622556 16.56888814 -10.25610352 11.52587891 C-10.87806283 7.79412305 -10.51030121 6.03427429 -8.81860352 2.65087891 C-5.81961022 0.16390886 -3.84742314 -0.09532341 0 0 Z " fill="#000000" transform="translate(396.256103515625,295.47412109375)"/>
<path d="M0 0 C3.06862356 2.54471222 3.84823663 4.08941981 4.5 8 C3.87062611 11.77624332 2.58152638 13.1948875 0 16 C-2.70141602 17.82104492 -2.70141602 17.82104492 -5.75390625 19.48046875 C-6.85541016 20.08697266 -7.95691406 20.69347656 -9.09179688 21.31835938 C-10.23712891 21.93517578 -11.38246094 22.55199219 -12.5625 23.1875 C-14.83506286 24.43020824 -17.10721742 25.6736635 -19.37890625 26.91796875 C-20.88819702 27.73430786 -20.88819702 27.73430786 -22.42797852 28.56713867 C-25.11667083 30.02026006 -25.11667083 30.02026006 -28 32 C-30.15625 32.30078125 -30.15625 32.30078125 -32.5 32.3125 C-33.66015625 32.33763672 -33.66015625 32.33763672 -34.84375 32.36328125 C-37.53653943 31.90960477 -38.37253291 31.16163573 -40 29 C-40.96233987 25.28811766 -41.47108548 23.02270688 -39.84326172 19.48876953 C-37.70236397 16.59813223 -35.75680285 15.31978146 -32.6328125 13.5546875 C-31.58222656 12.95269531 -30.53164062 12.35070312 -29.44921875 11.73046875 C-27.80373047 10.81201172 -27.80373047 10.81201172 -26.125 9.875 C-25.03574219 9.25496094 -23.94648437 8.63492187 -22.82421875 7.99609375 C-20.79377968 6.84045829 -18.76039645 5.68996914 -16.72314453 4.54638672 C-14.89379982 3.50756034 -13.08337037 2.43476297 -11.29272461 1.33056641 C-7.61276112 -0.80507421 -4.12456243 -0.81567839 0 0 Z " fill="#000000" transform="translate(122,296)"/>
<path d="M0 0 C3.41503906 1.3894043 3.41503906 1.3894043 6.765625 3.32421875 C7.36630798 3.6674971 7.96699097 4.01077545 8.58587646 4.36445618 C9.8442409 5.08851443 11.09783176 5.82092784 12.34667969 6.5612793 C14.24826063 7.68647079 16.1650027 8.78129433 18.0859375 9.87304688 C28.61552082 15.9731122 28.61552082 15.9731122 32 21 C32.62195931 24.73175586 32.25419769 26.49160462 30.5625 29.875 C27.56350671 32.36197005 25.59131962 32.62120231 21.74389648 32.52587891 C15.82609974 31.39170912 10.82932298 27.85212727 5.75 24.75 C4.58173878 24.05948692 3.41247281 23.37067081 2.2421875 22.68359375 C-11.57298172 14.46787533 -11.57298172 14.46787533 -13 9.5625 C-13 5.62891627 -12.41868244 4.04574825 -10 1 C-6.79129786 -0.60435107 -3.48701675 -0.39085868 0 0 Z " fill="#000000" transform="translate(94,120)"/>
<path d="M0 0 C0.87269531 -0.0038269 1.74539063 -0.00765381 2.64453125 -0.01159668 C4.48699092 -0.0143149 6.32948924 -0.00695994 8.171875 0.00976562 C10.99045934 0.03117752 13.80649485 0.00996199 16.625 -0.015625 C18.41667229 -0.01298171 20.20834299 -0.00785669 22 0 C22.84175781 -0.00809692 23.68351562 -0.01619385 24.55078125 -0.02453613 C30.38715618 0.06889601 30.38715618 0.06889601 33.52929688 2.43945312 C35.12144695 4.7039853 35.542797 5.7922417 35.5 8.53125 C35.5103125 9.19125 35.520625 9.85125 35.53125 10.53125 C34.72011424 13.58493756 33.53019712 14.62236769 31 16.53125 C28.00263779 17.13239553 25.04890723 17.09182764 22 17.0625 C21.12730469 17.0663269 20.25460937 17.07015381 19.35546875 17.07409668 C17.51300908 17.0768149 15.67051076 17.06945994 13.828125 17.05273438 C11.00954066 17.03132248 8.19350515 17.05253801 5.375 17.078125 C3.58332771 17.07548171 1.79165701 17.07035669 0 17.0625 C-0.84175781 17.07059692 -1.68351562 17.07869385 -2.55078125 17.08703613 C-8.38715618 16.99360399 -8.38715618 16.99360399 -11.52929688 14.62304688 C-13.12144695 12.3585147 -13.542797 11.2702583 -13.5 8.53125 C-13.51546875 7.54125 -13.51546875 7.54125 -13.53125 6.53125 C-11.69061453 -0.39820116 -5.94975317 -0.05723107 0 0 Z " fill="#000000" transform="translate(421,215.46875)"/>
<path d="M0 0 C0.87269531 -0.0038269 1.74539062 -0.00765381 2.64453125 -0.01159668 C4.48699092 -0.0143149 6.32948924 -0.00695994 8.171875 0.00976562 C10.99045934 0.03117752 13.80649485 0.00996199 16.625 -0.015625 C18.41667229 -0.01298171 20.20834299 -0.00785669 22 0 C22.84175781 -0.00809692 23.68351562 -0.01619385 24.55078125 -0.02453613 C30.38715618 0.06889601 30.38715618 0.06889601 33.52929688 2.43945312 C35.12144695 4.7039853 35.542797 5.7922417 35.5 8.53125 C35.5103125 9.19125 35.520625 9.85125 35.53125 10.53125 C34.72011424 13.58493756 33.53019712 14.62236769 31 16.53125 C28.00263779 17.13239553 25.04890723 17.09182764 22 17.0625 C21.12730469 17.0663269 20.25460938 17.07015381 19.35546875 17.07409668 C17.51300908 17.0768149 15.67051076 17.06945994 13.828125 17.05273438 C11.00954066 17.03132248 8.19350515 17.05253801 5.375 17.078125 C3.58332771 17.07548171 1.79165701 17.07035669 0 17.0625 C-0.84175781 17.07059692 -1.68351562 17.07869385 -2.55078125 17.08703613 C-8.38715618 16.99360399 -8.38715618 16.99360399 -11.52929688 14.62304688 C-13.12144695 12.3585147 -13.542797 11.2702583 -13.5 8.53125 C-13.51546875 7.54125 -13.51546875 7.54125 -13.53125 6.53125 C-11.69061453 -0.39820116 -5.94975317 -0.05723107 0 0 Z " fill="#000000" transform="translate(69,215.46875)"/>
<path d="M0 0 C0.66 -0.0103125 1.32 -0.020625 2 -0.03125 C5.05368756 0.77988576 6.09111769 1.96980288 8 4.5 C8.60114553 7.49736221 8.56057764 10.45109277 8.53125 13.5 C8.5350769 14.37269531 8.53890381 15.24539062 8.54284668 16.14453125 C8.5455649 17.98699092 8.53820994 19.82948924 8.52148438 21.671875 C8.50007248 24.49045934 8.52128801 27.30649485 8.546875 30.125 C8.54423171 31.91667229 8.53910669 33.70834299 8.53125 35.5 C8.53934692 36.34175781 8.54744385 37.18351562 8.55578613 38.05078125 C8.46235399 43.88715618 8.46235399 43.88715618 6.09179688 47.02929688 C3.8272647 48.62144695 2.7390083 49.042797 0 49 C-0.99 49.01546875 -0.99 49.01546875 -2 49.03125 C-5.05368756 48.22011424 -6.09111769 47.03019712 -8 44.5 C-8.60114553 41.50263779 -8.56057764 38.54890723 -8.53125 35.5 C-8.5350769 34.62730469 -8.53890381 33.75460938 -8.54284668 32.85546875 C-8.5455649 31.01300908 -8.53820994 29.17051076 -8.52148438 27.328125 C-8.50007248 24.50954066 -8.52128801 21.69350515 -8.546875 18.875 C-8.54423171 17.08332771 -8.53910669 15.29165701 -8.53125 13.5 C-8.53934692 12.65824219 -8.54744385 11.81648438 -8.55578613 10.94921875 C-8.46235399 5.11284382 -8.46235399 5.11284382 -6.09179688 1.97070312 C-3.8272647 0.37855305 -2.7390083 -0.042797 0 0 Z " fill="#000000" transform="translate(256,23.5)"/>
</svg>
