<?xml version="1.0" encoding="UTF-8"?>
<svg version="1.1" xmlns="http://www.w3.org/2000/svg" width="512" height="512">
<path d="M0 0 C2.62292529 -0.00299559 5.24585014 -0.00639904 7.86877441 -0.01017761 C14.23046878 -0.01844097 20.59215387 -0.02123048 26.95385315 -0.02178999 C32.13121199 -0.02226719 37.3085678 -0.02433204 42.48592567 -0.02749062 C57.20373449 -0.03628524 71.92153605 -0.04091184 86.63934752 -0.04016014 C87.82648134 -0.04010021 87.82648134 -0.04010021 89.03759766 -0.04003906 C90.22620106 -0.03997774 90.22620106 -0.03997774 91.43881664 -0.03991518 C104.27159742 -0.039509 117.10434883 -0.04907466 129.93712112 -0.06317743 C143.15198669 -0.07758414 156.36683797 -0.08444527 169.58171159 -0.08358365 C176.98547344 -0.08325317 184.38920449 -0.08593443 191.79295921 -0.0967617 C198.09757836 -0.10592343 204.40215272 -0.10799585 210.70677569 -0.10125228 C213.91512891 -0.09801548 217.12337985 -0.09894028 220.33172798 -0.10660553 C250.10705973 -0.17308938 276.78802036 1.4312225 300.11645508 22.14526367 C300.80223633 22.73694336 301.48801758 23.32862305 302.19458008 23.93823242 C316.2496641 36.9142844 324.60881764 56.3594015 325.40405273 75.3215332 C325.52954226 80.12339186 325.5385387 84.92240371 325.50756836 89.72558594 C325.49131458 92.73376634 325.50758326 95.74063656 325.52661133 98.7487793 C325.52463163 100.67391245 325.52079365 102.59904479 325.51489258 104.52416992 C325.52096527 105.41689102 325.52703796 106.30961212 325.53329468 107.22938538 C325.46280859 113.45584408 324.25623201 116.74611984 320.05395508 121.45776367 C315.75269257 123.92870171 311.95987071 124.02870268 307.11645508 123.14526367 C303.32128394 121.3912582 301.43761587 119.01279702 299.97729492 115.06811523 C298.80280014 110.54991927 298.83769644 106.0850769 298.84301758 101.44213867 C298.82272243 99.55541406 298.80187153 97.66869535 298.78051758 95.78198242 C298.7579964 92.84198999 298.741469 89.90223275 298.7355957 86.9621582 C298.88817355 71.58221085 298.88817355 71.58221085 294.11645508 57.14526367 C293.59825195 56.10112305 293.08004883 55.05698242 292.54614258 53.98120117 C283.447648 39.57906151 270.69933555 31.76449797 254.40118778 27.78590381 C249.2328388 26.77789125 244.19256829 26.72795153 238.94117737 26.75758362 C237.7762842 26.75219808 236.61139104 26.74681254 235.41119808 26.74126381 C232.2138473 26.72952465 229.01683619 26.73101146 225.81948316 26.73843062 C222.35722148 26.74319336 218.89501372 26.73062526 215.43276978 26.72041321 C208.66418145 26.70328077 201.89568618 26.70237353 195.12708182 26.70762611 C189.62213067 26.71167914 184.11720687 26.71021085 178.612257 26.70487785 C177.82665833 26.70412943 177.04105965 26.70338101 176.23165495 26.70260991 C174.63536286 26.70107832 173.03907078 26.69953997 171.4427787 26.69799494 C156.49791781 26.68429021 141.55310939 26.68969349 126.60824972 26.70118015 C112.95720568 26.71111225 99.30629718 26.69816867 85.65527404 26.67424596 C71.61215318 26.64982295 57.56909537 26.64025483 43.52595371 26.64689869 C35.65226259 26.65038356 27.77867567 26.64820725 19.90500069 26.63064766 C13.20308151 26.61588562 6.50133996 26.61534233 -0.20057588 26.63271857 C-3.61495529 26.64119788 -7.02901794 26.64345421 -10.44338036 26.62806702 C-14.15631027 26.61481668 -17.8683895 26.62644189 -21.58128357 26.64405823 C-23.1755854 26.62965072 -23.1755854 26.62965072 -24.80209535 26.61495215 C-39.77883245 26.76030286 -52.67466308 32.40528021 -63.52026367 42.55932617 C-74.66693501 54.75617977 -76.3361172 68.1571747 -76.27172852 83.91088867 C-76.2758 85.5907017 -76.2811451 87.27051205 -76.28765869 88.95031738 C-76.30126958 93.48750955 -76.29605951 98.02449578 -76.28652143 102.56169128 C-76.27889243 107.32425465 -76.28597941 112.08680113 -76.29067993 116.84936523 C-76.29612807 124.84516545 -76.28897062 132.84088237 -76.2746582 140.83666992 C-76.25833351 150.06280824 -76.26362269 159.28874763 -76.28013742 168.51488113 C-76.29377915 176.45574259 -76.29565883 184.39654439 -76.28782141 192.33741379 C-76.28315965 197.07161466 -76.28247867 201.80572222 -76.29243088 206.53991699 C-76.30113748 210.99206288 -76.29501159 215.44395385 -76.27774811 219.89607239 C-76.27380291 221.52378416 -76.27488334 223.15151762 -76.2815361 224.77922058 C-76.33841937 240.11826284 -73.43841072 253.87094949 -62.61791992 265.52807617 C-50.89466209 276.45922199 -36.72602951 280.22830293 -21.06713867 280.35620117 C-19.14981217 280.3842526 -17.23249456 280.41291693 -15.31518555 280.44213867 C-12.31103608 280.48347002 -9.3070558 280.52038588 -6.30273438 280.54663086 C-3.39052775 280.57423697 -0.47906019 280.62008351 2.43286133 280.66870117 C3.77677696 280.67358047 3.77677696 280.67358047 5.14784241 280.67855835 C9.93156723 280.77277408 13.26172451 280.99305482 17.11645508 284.14526367 C20.01195939 288.53844263 20.67523874 291.9299495 20.11645508 297.14526367 C18.90451909 300.46214112 17.87089677 302.50825732 15.16845703 304.79003906 C10.63808472 306.80172586 6.37724393 306.59331817 1.47192383 306.57885742 C0.42933914 306.58409927 -0.61324554 306.58934113 -1.68742371 306.59474182 C-3.89723829 306.60116148 -6.10708704 306.59982578 -8.31689453 306.59130859 C-11.64639973 306.58288921 -14.974135 306.61141424 -18.3034668 306.64331055 C-33.50783623 306.69510824 -47.66481079 305.71776748 -61.32104492 298.33276367 C-62.31503296 297.8134729 -62.31503296 297.8134729 -63.32910156 297.28369141 C-68.64774231 294.43174224 -73.4083285 291.2112677 -77.88354492 287.14526367 C-78.62862305 286.49170898 -79.37370117 285.8381543 -80.14135742 285.16479492 C-94.59266839 271.71772759 -102.1322936 252.58041452 -103.16028976 233.0712738 C-103.30300098 228.7984058 -103.29012492 224.52734621 -103.27172852 220.25268555 C-103.27580707 218.63098297 -103.28115606 217.00928317 -103.28765869 215.3875885 C-103.30118573 211.0342237 -103.29609496 206.68107525 -103.28652143 202.32770729 C-103.27884814 197.74015406 -103.28599149 193.15261755 -103.29067993 188.56506348 C-103.2961154 180.86568934 -103.28900425 173.16640194 -103.2746582 165.46704102 C-103.25833598 156.60557397 -103.26362606 147.74431411 -103.28013742 138.88285208 C-103.29381564 131.23136945 -103.29564118 123.57994866 -103.28782141 115.92845774 C-103.28317951 111.37747719 -103.2824228 106.82659356 -103.29243088 102.27561951 C-103.30119124 97.99409375 -103.29491595 93.71283129 -103.27774811 89.43133354 C-103.2738311 87.87386446 -103.27483343 86.31637263 -103.2815361 84.75891304 C-103.36971166 62.16105935 -98.12970573 40.24723474 -82.16088867 23.29760742 C-58.11888958 0.57523778 -30.99263182 -0.00707077 0 0 Z " fill="#000000" transform="translate(144.883544921875,43.854736328125)"/>
<path d="M0 0 C9.70709547 9.31756515 13.67841701 19.99360464 14 33.3125 C13.69202039 46.5288422 8.81982069 57.0247749 -0.140625 66.67578125 C-8.7161231 74.63660204 -19.17951665 78.33665909 -30.75 78.1875 C-31.57999512 78.17992676 -32.40999023 78.17235352 -33.26513672 78.16455078 C-46.39989986 77.81316188 -55.42110697 71.79635255 -65.375 63.75 C-65.94081787 64.09554932 -66.50663574 64.44109863 -67.08959961 64.79711914 C-82.47459059 74.188358 -97.90770891 83.49506175 -113.375 92.75 C-109.68034727 95.84354032 -105.81423991 98.41976918 -101.67578125 100.8671875 C-101.04069138 101.24682648 -100.4056015 101.62646545 -99.75126648 102.01760864 C-97.73207327 103.22357049 -95.70987736 104.42438721 -93.6875 105.625 C-91.6891858 106.81648425 -89.69148349 108.00898642 -87.69406128 109.20196533 C-86.39855387 109.97380773 -85.10147006 110.74301083 -83.80276489 111.50946045 C-80.94052622 113.20071384 -78.11884046 114.91633737 -75.32958984 116.72753906 C-74.45125488 117.2944043 -73.57291992 117.86126953 -72.66796875 118.4453125 C-71.92442139 118.94305176 -71.18087402 119.44079102 -70.41479492 119.95361328 C-68.36255513 121.00984783 -68.36255513 121.00984783 -66.20483398 119.9909668 C-64.22784747 118.6502033 -62.82898602 117.22675301 -61.25 115.4375 C-54.01463432 107.98476282 -43.90497122 104.58381898 -33.66357422 104.31860352 C-20.25190003 104.28468769 -9.25041552 107.13643262 0.625 116.75 C10.6605127 127.39481169 14.19345932 138.28470132 13.8984375 152.76171875 C13.05280805 165.09582835 7.82251409 175.03984106 -1.0625 183.5 C-10.92437858 191.50686111 -22.09240488 195.27922435 -34.80078125 194.5546875 C-47.58180804 192.90261588 -57.92787159 188.29424969 -66.41796875 178.359375 C-73.93635489 168.16386628 -76.62519792 158.25989595 -76.375 145.75 C-77.07939209 145.48840088 -77.78378418 145.22680176 -78.50952148 144.95727539 C-81.58321387 143.66227592 -84.34665908 142.12278064 -87.22265625 140.43359375 C-87.78379623 140.10475693 -88.34493622 139.7759201 -88.92308044 139.43711853 C-90.13280679 138.72714297 -91.34152172 138.01544176 -92.54931641 137.30218506 C-94.460196 136.17410146 -96.3744155 135.05185106 -98.2890625 133.93017578 C-105.02578129 129.97274094 -111.71127293 125.94471427 -118.33984375 121.80859375 C-119.61768516 121.01559035 -120.89559742 120.22270109 -122.17358398 119.42993164 C-124.60961663 117.9180583 -127.03226473 116.38721886 -129.44946289 114.84545898 C-130.54895264 114.16169189 -131.64844238 113.4779248 -132.78125 112.7734375 C-133.74353516 112.16419434 -134.70582031 111.55495117 -135.69726562 110.92724609 C-138.87175433 109.53160564 -140.13607419 109.62737466 -143.375 110.75 C-145.39879148 111.73062339 -145.39879148 111.73062339 -147.33203125 113.0234375 C-148.09862061 113.50893066 -148.86520996 113.99442383 -149.6550293 114.49462891 C-150.49074463 115.03265137 -151.32645996 115.57067383 -152.1875 116.125 C-162.91881836 122.90542221 -173.80523079 129.39754669 -184.74365234 135.83666992 C-190.58675844 139.28117451 -196.41121008 142.72828099 -202.109375 146.41015625 C-203.3310437 147.19302002 -203.3310437 147.19302002 -204.57739258 147.99169922 C-206.00015899 148.91202939 -207.41283968 149.84828574 -208.8112793 150.80517578 C-213.55219707 153.86028279 -217.76398957 154.65448144 -223.375 153.75 C-227.1776029 151.7449912 -228.99290841 150.32313738 -231.375 146.75 C-232.49082394 142.28670423 -232.77793755 138.70978979 -230.69018555 134.48461914 C-225.21700473 127.2659539 -214.5587404 122.78704632 -206.875 118.3125 C-204.50192985 116.92131649 -202.13137274 115.52589959 -199.76171875 114.12890625 C-199.15901657 113.77373932 -198.55631439 113.41857239 -197.93534851 113.05264282 C-191.13529717 109.03458189 -184.40745193 104.90021954 -177.6875 100.75 C-177.11257813 100.39503448 -176.53765625 100.04006897 -175.9453125 99.67434692 C-172.7532609 97.70270114 -169.56319941 95.72786813 -166.375 93.75 C-170.07845797 90.64130555 -173.95684322 88.0868541 -178.125 85.66015625 C-178.77195831 85.27900162 -179.41891663 84.89784698 -180.08547974 84.50514221 C-181.46657432 83.69167287 -182.84860902 82.87979786 -184.23150635 82.06939697 C-187.84498595 79.95053295 -191.44965325 77.81678492 -195.0546875 75.68359375 C-195.76938202 75.26094238 -196.48407654 74.83829102 -197.22042847 74.40283203 C-203.34478045 70.77707642 -209.43900825 67.105993 -215.5 63.375 C-216.32628906 62.87105713 -217.15257812 62.36711426 -218.00390625 61.84790039 C-229.20837784 54.9124175 -229.20837784 54.9124175 -231.46875 50.72265625 C-232.44415358 46.13638364 -232.58783647 43.07946266 -230.375 38.75 C-226.82480858 34.75603465 -225.04092458 32.87476861 -219.671875 32.47265625 C-215.34523415 32.54360072 -212.26137437 33.93842736 -208.625 36.1875 C-207.96725586 36.57510498 -207.30951172 36.96270996 -206.63183594 37.36206055 C-204.20039973 38.80474516 -201.78816163 40.27695127 -199.375 41.75 C-197.18782592 43.07085234 -195.00030053 44.39112305 -192.8125 45.7109375 C-187.97723865 48.63288058 -183.15037885 51.56836589 -178.328125 54.51171875 C-172.35742486 58.15570466 -166.37318826 61.77643864 -160.375 65.375 C-159.63024414 65.82270752 -158.88548828 66.27041504 -158.11816406 66.73168945 C-151.9019594 70.45848927 -145.64059607 74.10699586 -139.375 77.75 C-138.68390137 77.32928223 -137.99280273 76.90856445 -137.28076172 76.47509766 C-134.56080184 74.81991616 -131.84041345 73.16544191 -129.11965942 71.51156616 C-127.87386296 70.75424636 -126.62815566 69.99677987 -125.38253784 69.23916626 C-117.94271368 64.71515778 -110.49088456 60.21261861 -103.01171875 55.75390625 C-101.99322845 55.1460025 -101.99322845 55.1460025 -100.9541626 54.52581787 C-97.66005005 52.55978995 -94.36386965 50.5974035 -91.06396484 48.64111328 C-89.85634552 47.92106578 -88.64882116 47.20085898 -87.44140625 46.48046875 C-86.38896729 45.85551514 -85.33652832 45.23056152 -84.25219727 44.58666992 C-81.43940421 42.79111268 -78.85704775 40.98203291 -76.375 38.75 C-75.9200059 36.1418861 -75.9200059 36.1418861 -76.3125 33.3125 C-76.79455486 20.92971586 -71.73846171 9.88312447 -63.56640625 0.72265625 C-45.38021844 -16.55611262 -18.71407379 -15.75775215 0 0 Z M-48.140625 22.7734375 C-50.85426721 27.11870002 -51.64948077 31.22555008 -51.09765625 36.30078125 C-49.50985336 43.13974925 -46.10112058 46.86077355 -40.375 50.75 C-36.01659289 53.32034266 -31.31450108 53.30951871 -26.375 52.75 C-20.73340479 50.6886479 -17.26562242 47.18080026 -13.625 42.5 C-11.21957515 37.20806533 -10.6457658 32.04072344 -12.5625 26.5 C-15.13533273 20.71112635 -18.32035919 17.11629329 -24.09765625 14.48046875 C-34.06254876 11.28418247 -41.8974356 14.88553691 -48.140625 22.7734375 Z M-46.75 136.9375 C-50.4242189 141.66868598 -51.74547242 146.3426973 -51.09765625 152.30078125 C-49.51924751 159.09928688 -46.08508256 162.89213232 -40.375 166.75 C-35.82889643 169.45406959 -31.53481498 169.34835204 -26.375 168.75 C-20.20435065 167.13129093 -16.73946924 163.56578207 -13.5078125 158.1796875 C-11.03003353 152.86527882 -10.68928157 148.07868741 -12.5 142.5 C-14.75130548 137.32919336 -18.74087973 133.83941351 -23.375 130.75 C-32.35268181 127.7574394 -40.28409796 130.20544703 -46.75 136.9375 Z " fill="#000000" transform="translate(452.375,273.25)"/>
<path d="M0 0 C0.95261719 -0.03996094 1.90523437 -0.07992187 2.88671875 -0.12109375 C11.32049127 1.25408238 18.1377138 6.47488933 24.625 11.75 C26.19701756 12.99982964 27.7699728 14.24848056 29.34375 15.49609375 C30.56191406 16.46651611 30.56191406 16.46651611 31.8046875 17.45654297 C36.03514 20.79823802 40.33053505 24.05374719 44.625 27.3125 C46.38417376 28.64966173 48.14328781 29.98690202 49.90234375 31.32421875 C50.78519043 31.99501465 51.66803711 32.66581055 52.57763672 33.35693359 C55.41000645 35.51167872 58.23866579 37.67121521 61.06640625 39.83203125 C62.47829224 40.91025146 62.47829224 40.91025146 63.91870117 42.01025391 C65.71241885 43.38025501 67.50558582 44.75097758 69.2980957 46.12255859 C70.1149585 46.74598145 70.93182129 47.3694043 71.7734375 48.01171875 C72.54703613 48.60267334 73.32063477 49.19362793 74.11767578 49.80249023 C76.11181845 51.28800452 78.14306508 52.68659544 80.203125 54.078125 C83.26268371 56.3996997 84.83141452 58.18263176 86.6875 61.5 C87.16960937 62.33660156 87.65171875 63.17320312 88.1484375 64.03515625 C91.42133329 70.78962239 90.95060832 77.17607303 88.5625 84.125 C86.06943771 90.96113508 81.89022958 95.0459028 76.1875 99.375 C75.58131836 99.84317139 74.97513672 100.31134277 74.35058594 100.79370117 C73.03397469 101.81037337 71.71554496 102.824694 70.39550781 103.83691406 C67.52415014 106.04326907 64.66904268 108.27023054 61.81298828 110.49633789 C59.52793814 112.27693186 57.2408425 114.05486592 54.953125 115.83203125 C51.15151404 118.78538183 47.35078152 121.73985501 43.55175781 124.6965332 C42.06274983 125.85419957 40.57252009 127.01029626 39.08105469 128.16479492 C35.20150468 131.17098049 31.34934952 134.2050935 27.53125 137.2890625 C26.74105469 137.92070312 25.95085937 138.55234375 25.13671875 139.203125 C23.64183115 140.39903508 22.15418088 141.6040788 20.67578125 142.8203125 C13.43053308 148.58388703 5.70577825 152.49803141 -3.6875 151.4375 C-9.89876396 149.90821152 -15.14150969 147.05719868 -18.91015625 141.69921875 C-21.7441515 136.95557796 -22.80454929 133.14518638 -22.84140015 127.69589233 C-22.85000061 126.74563171 -22.85860107 125.79537109 -22.86746216 124.8163147 C-22.87172211 123.78042206 -22.87598206 122.74452942 -22.88037109 121.67724609 C-22.88854858 120.58081787 -22.89672607 119.48438965 -22.90515137 118.35473633 C-22.92997806 114.72347557 -22.94651565 111.09225388 -22.9609375 107.4609375 C-22.96626118 106.21937519 -22.97158485 104.97781288 -22.97706985 103.69862747 C-22.9982939 98.47770464 -23.01742274 93.25678765 -23.02869225 88.03583336 C-23.04490511 80.57589607 -23.07802661 73.11648172 -23.13509309 65.6567415 C-23.17861871 59.76424503 -23.19445306 53.87190926 -23.20082474 47.97926712 C-23.20752887 45.48109848 -23.22272889 42.9829372 -23.24671555 40.48487473 C-23.27843824 36.98088986 -23.27839219 33.47821268 -23.27099609 29.97412109 C-23.28740143 28.95037384 -23.30380676 27.92662659 -23.32070923 26.87185669 C-23.25336095 19.0413557 -21.31563362 12.33161601 -15.87337303 6.49037743 C-11.11349611 2.10599895 -6.52042663 0.14799366 0 0 Z M2.3125 28.4375 C2.3125 59.7875 2.3125 91.1375 2.3125 123.4375 C9.90424004 118.38976926 9.90424004 118.38976926 16.875 112.8125 C21.49236623 108.87244816 26.24860651 105.1761667 31.125 101.5625 C38.43106987 96.14262914 45.55168739 90.52049215 52.62451172 84.80078125 C55.15902049 82.753819 57.70462642 80.72093487 60.25 78.6875 C61.04277344 78.05328125 61.83554687 77.4190625 62.65234375 76.765625 C63.20019531 76.32734375 63.74804688 75.8890625 64.3125 75.4375 C60.25755788 71.16788447 55.85014668 67.58696236 51.1875 64 C50.40052734 63.39091797 49.61355469 62.78183594 48.80273438 62.15429688 C42.42748026 57.24287783 35.96009527 52.46312364 29.45874023 47.72045898 C22.82639625 42.86570114 16.34411947 37.83230012 9.921875 32.703125 C9.21417969 32.14367187 8.50648438 31.58421875 7.77734375 31.0078125 C7.154646 30.51039551 6.53194824 30.01297852 5.89038086 29.50048828 C4.35313785 28.25125964 4.35313785 28.25125964 2.3125 28.4375 Z " fill="#000000" transform="translate(223.6875,121.5625)"/>
</svg>
