<?xml version="1.0" encoding="UTF-8"?>
<svg version="1.1" xmlns="http://www.w3.org/2000/svg" width="512" height="512">
<path d="M0 0 C1.41428314 -0.00258616 2.82856555 -0.00560002 4.24284697 -0.0090034 C8.1202174 -0.01704733 11.99756929 -0.01886152 15.87494707 -0.01960087 C20.06056747 -0.02145601 24.24617835 -0.02900571 28.43179321 -0.03573608 C37.58085309 -0.04930201 46.72990857 -0.05534158 55.87897682 -0.05974674 C61.59607155 -0.06251245 67.31316459 -0.06675044 73.03025818 -0.07125092 C88.87130883 -0.08344195 104.71235815 -0.09374118 120.55341339 -0.09712601 C121.56675238 -0.09734557 122.58009138 -0.09756514 123.62413761 -0.09779136 C124.63985113 -0.09800964 125.65556465 -0.09822791 126.70205736 -0.09845281 C128.7601525 -0.09889627 130.81824764 -0.09934283 132.87634277 -0.09979248 C133.89722109 -0.10001391 134.9180994 -0.10023534 135.96991342 -0.10046348 C152.50072999 -0.10440898 169.03150241 -0.12185617 185.56230193 -0.145152 C202.55007415 -0.16889776 219.53782424 -0.18132935 236.52561331 -0.18249393 C246.0571645 -0.18340894 255.58865818 -0.18911738 265.12019348 -0.20731354 C273.2388384 -0.22275818 281.35740803 -0.22780938 289.47606486 -0.21957543 C293.61362297 -0.21568416 297.75102967 -0.21652347 301.88856888 -0.23063278 C305.68623022 -0.24346388 309.48362782 -0.24209453 313.28128928 -0.23004207 C315.28501972 -0.22719064 317.28875512 -0.23895069 319.29244852 -0.25146413 C343.93806405 -0.11875791 365.88244683 9.06031956 383.45349121 26.27325439 C398.17271634 41.64154919 408.29568012 62.51712209 408.33380604 84.09429646 C408.33826388 85.26966317 408.34272173 86.44502989 408.34731466 87.65601379 C408.34703811 89.57927852 408.34703811 89.57927852 408.34675598 91.54139709 C408.35005789 92.92451842 408.35378414 94.30763878 408.35789746 95.69075793 C408.3678888 99.48671325 408.37162964 103.28265276 408.37428677 107.07861936 C408.37819846 111.17499864 408.38777631 115.27136549 408.39649963 119.36773682 C408.41624161 129.25935896 408.42632824 139.1509821 408.43522742 149.04261902 C408.4396148 153.70610894 408.44498052 158.36959774 408.45021629 163.03308678 C408.46722774 178.54554032 408.48171988 194.05799316 408.48896503 209.5704546 C408.49087479 213.59402785 408.49279514 217.61760109 408.49475098 221.64117432 C408.49523472 222.64115921 408.49571846 223.6411441 408.49621686 224.67143156 C408.50450955 240.85501649 408.52983399 257.03852731 408.56233165 273.22207991 C408.59545802 289.85500595 408.6134189 306.48789441 408.61660928 323.1208536 C408.61876942 332.45241465 408.62744498 341.78386771 408.65307045 351.1153965 C408.67485393 359.06603936 408.68279053 367.01654799 408.67310367 374.9672173 C408.66858075 379.01797804 408.6703268 383.06846228 408.68986511 387.11918449 C408.82452763 416.68693031 405.16240602 440.94891999 385.19958496 464.14044189 C384.68009277 464.74501221 384.16060059 465.34958252 383.62536621 465.97247314 C368.1126411 482.65744449 345.61466385 491.64112827 323.12713623 492.50862122 C315.18214872 492.69305748 307.2381652 492.68915668 299.29147816 492.66334057 C295.11960631 492.65419798 290.94779856 492.66830489 286.77593994 492.67926025 C278.62683548 492.69695291 270.47787923 492.69324706 262.32876921 492.68160969 C255.69985975 492.67253895 249.07099153 492.67136703 242.44207764 492.67570496 C241.4949892 492.67631789 240.54790076 492.67693082 239.57211268 492.67756233 C237.64751544 492.67884136 235.72291822 492.68013821 233.79832101 492.68145269 C215.79399966 492.69283138 197.78976006 492.67978748 179.78545213 492.65825123 C164.37072113 492.64038272 148.95611066 492.6434876 133.54138184 492.66192627 C115.59705055 492.68338104 97.65279073 492.691733 79.70844841 492.67947721 C77.79132971 492.67820315 75.874211 492.67694567 73.95709229 492.67570496 C72.54257528 492.6747793 72.54257528 492.6747793 71.09948218 492.67383495 C64.48628676 492.67039584 57.87313706 492.67617918 51.25994873 492.68562317 C43.18956283 492.6968959 35.11933235 492.6936931 27.04896402 492.67250019 C22.93928136 492.6620602 18.82985686 492.65774583 14.7201767 492.6710968 C-12.21733427 492.75112693 -37.23315058 491.06300585 -58.80041504 473.14044189 C-60.09398926 472.07309814 -60.09398926 472.07309814 -61.41369629 470.98419189 C-78.63751103 456.13877949 -88.77787142 436.58474402 -91.80041504 414.14044189 C-92.07204611 409.47928742 -92.075057 404.83083443 -92.06111145 400.16271973 C-92.06413788 398.7779815 -92.06802981 397.39324495 -92.07270402 396.0085113 C-92.08292963 392.23136532 -92.08081617 388.45431484 -92.07652342 384.67716122 C-92.07404622 380.59249299 -92.08308271 376.50784716 -92.09056091 372.42318726 C-92.1032829 364.43125012 -92.10510469 356.43934663 -92.10276065 348.44740108 C-92.10097435 341.94750217 -92.10273382 335.44761345 -92.10698509 328.94771576 C-92.10758028 328.02101562 -92.10817547 327.09431547 -92.1087887 326.1395335 C-92.11000051 324.25664435 -92.11121464 322.37375519 -92.11243107 320.49086604 C-92.12329721 302.8491309 -92.12114864 285.2074149 -92.11504623 267.56567869 C-92.10987923 251.44897036 -92.12112843 235.33232252 -92.14014445 219.21562615 C-92.15954692 202.64356791 -92.16777454 186.07153824 -92.16402119 169.49946856 C-92.16211263 160.20496044 -92.16456288 150.91050377 -92.17873573 141.61600494 C-92.19068133 133.70239851 -92.19201898 125.78887518 -92.17994557 117.87526754 C-92.17407881 113.84299821 -92.17289589 109.81088067 -92.18494797 105.77862167 C-92.19588157 102.07733323 -92.19261586 98.37632194 -92.17868628 94.67504606 C-92.17482876 92.72320666 -92.18552509 90.7713546 -92.19698316 88.81954503 C-92.04479284 63.61472824 -82.25362932 42.08468224 -64.92541504 23.95294189 C-47.06104259 6.74382635 -24.27006617 -0.01607933 0 0 Z " fill="#E4E7EB" transform="translate(97.8004150390625,9.85955810546875)"/>
<path d="M0 0 C1.41428314 -0.00258616 2.82856555 -0.00560002 4.24284697 -0.0090034 C8.1202174 -0.01704733 11.99756929 -0.01886152 15.87494707 -0.01960087 C20.06056747 -0.02145601 24.24617835 -0.02900571 28.43179321 -0.03573608 C37.58085309 -0.04930201 46.72990857 -0.05534158 55.87897682 -0.05974674 C61.59607155 -0.06251245 67.31316459 -0.06675044 73.03025818 -0.07125092 C88.87130883 -0.08344195 104.71235815 -0.09374118 120.55341339 -0.09712601 C121.56675238 -0.09734557 122.58009138 -0.09756514 123.62413761 -0.09779136 C124.63985113 -0.09800964 125.65556465 -0.09822791 126.70205736 -0.09845281 C128.7601525 -0.09889627 130.81824764 -0.09934283 132.87634277 -0.09979248 C133.89722109 -0.10001391 134.9180994 -0.10023534 135.96991342 -0.10046348 C152.50072999 -0.10440898 169.03150241 -0.12185617 185.56230193 -0.145152 C202.55007415 -0.16889776 219.53782424 -0.18132935 236.52561331 -0.18249393 C246.0571645 -0.18340894 255.58865818 -0.18911738 265.12019348 -0.20731354 C273.2388384 -0.22275818 281.35740803 -0.22780938 289.47606486 -0.21957543 C293.61362297 -0.21568416 297.75102967 -0.21652347 301.88856888 -0.23063278 C305.68623022 -0.24346388 309.48362782 -0.24209453 313.28128928 -0.23004207 C315.28501972 -0.22719064 317.28875512 -0.23895069 319.29244852 -0.25146413 C343.93806405 -0.11875791 365.88244683 9.06031956 383.45349121 26.27325439 C398.17271634 41.64154919 408.29568012 62.51712209 408.33380604 84.09429646 C408.33826388 85.26966317 408.34272173 86.44502989 408.34731466 87.65601379 C408.34703811 89.57927852 408.34703811 89.57927852 408.34675598 91.54139709 C408.35005789 92.92451842 408.35378414 94.30763878 408.35789746 95.69075793 C408.3678888 99.48671325 408.37162964 103.28265276 408.37428677 107.07861936 C408.37819846 111.17499864 408.38777631 115.27136549 408.39649963 119.36773682 C408.41624161 129.25935896 408.42632824 139.1509821 408.43522742 149.04261902 C408.4396148 153.70610894 408.44498052 158.36959774 408.45021629 163.03308678 C408.46722774 178.54554032 408.48171988 194.05799316 408.48896503 209.5704546 C408.49087479 213.59402785 408.49279514 217.61760109 408.49475098 221.64117432 C408.49523472 222.64115921 408.49571846 223.6411441 408.49621686 224.67143156 C408.50450955 240.85501649 408.52983399 257.03852731 408.56233165 273.22207991 C408.59545802 289.85500595 408.6134189 306.48789441 408.61660928 323.1208536 C408.61876942 332.45241465 408.62744498 341.78386771 408.65307045 351.1153965 C408.67485393 359.06603936 408.68279053 367.01654799 408.67310367 374.9672173 C408.66858075 379.01797804 408.6703268 383.06846228 408.68986511 387.11918449 C408.82452763 416.68693031 405.16240602 440.94891999 385.19958496 464.14044189 C384.68009277 464.74501221 384.16060059 465.34958252 383.62536621 465.97247314 C368.1126411 482.65744449 345.61466385 491.64112827 323.12713623 492.50862122 C315.18214872 492.69305748 307.2381652 492.68915668 299.29147816 492.66334057 C295.11960631 492.65419798 290.94779856 492.66830489 286.77593994 492.67926025 C278.62683548 492.69695291 270.47787923 492.69324706 262.32876921 492.68160969 C255.69985975 492.67253895 249.07099153 492.67136703 242.44207764 492.67570496 C241.4949892 492.67631789 240.54790076 492.67693082 239.57211268 492.67756233 C237.64751544 492.67884136 235.72291822 492.68013821 233.79832101 492.68145269 C215.79399966 492.69283138 197.78976006 492.67978748 179.78545213 492.65825123 C164.37072113 492.64038272 148.95611066 492.6434876 133.54138184 492.66192627 C115.59705055 492.68338104 97.65279073 492.691733 79.70844841 492.67947721 C77.79132971 492.67820315 75.874211 492.67694567 73.95709229 492.67570496 C72.54257528 492.6747793 72.54257528 492.6747793 71.09948218 492.67383495 C64.48628676 492.67039584 57.87313706 492.67617918 51.25994873 492.68562317 C43.18956283 492.6968959 35.11933235 492.6936931 27.04896402 492.67250019 C22.93928136 492.6620602 18.82985686 492.65774583 14.7201767 492.6710968 C-12.21733427 492.75112693 -37.23315058 491.06300585 -58.80041504 473.14044189 C-60.09398926 472.07309814 -60.09398926 472.07309814 -61.41369629 470.98419189 C-78.63751103 456.13877949 -88.77787142 436.58474402 -91.80041504 414.14044189 C-92.07204611 409.47928742 -92.075057 404.83083443 -92.06111145 400.16271973 C-92.06413788 398.7779815 -92.06802981 397.39324495 -92.07270402 396.0085113 C-92.08292963 392.23136532 -92.08081617 388.45431484 -92.07652342 384.67716122 C-92.07404622 380.59249299 -92.08308271 376.50784716 -92.09056091 372.42318726 C-92.1032829 364.43125012 -92.10510469 356.43934663 -92.10276065 348.44740108 C-92.10097435 341.94750217 -92.10273382 335.44761345 -92.10698509 328.94771576 C-92.10758028 328.02101562 -92.10817547 327.09431547 -92.1087887 326.1395335 C-92.11000051 324.25664435 -92.11121464 322.37375519 -92.11243107 320.49086604 C-92.12329721 302.8491309 -92.12114864 285.2074149 -92.11504623 267.56567869 C-92.10987923 251.44897036 -92.12112843 235.33232252 -92.14014445 219.21562615 C-92.15954692 202.64356791 -92.16777454 186.07153824 -92.16402119 169.49946856 C-92.16211263 160.20496044 -92.16456288 150.91050377 -92.17873573 141.61600494 C-92.19068133 133.70239851 -92.19201898 125.78887518 -92.17994557 117.87526754 C-92.17407881 113.84299821 -92.17289589 109.81088067 -92.18494797 105.77862167 C-92.19588157 102.07733323 -92.19261586 98.37632194 -92.17868628 94.67504606 C-92.17482876 92.72320666 -92.18552509 90.7713546 -92.19698316 88.81954503 C-92.04479284 63.61472824 -82.25362932 42.08468224 -64.92541504 23.95294189 C-47.06104259 6.74382635 -24.27006617 -0.01607933 0 0 Z M1.32458496 82.07794189 C-2.45056033 87.51859246 -3.03426367 91.93075071 -3.17541504 98.45294189 C-3.49462848 105.86639881 -4.16686614 111.31701633 -9.44494629 116.87091064 C-14.50167622 121.50900062 -18.94952468 123.37179907 -25.87585449 123.45928955 C-27.07672195 123.47915924 -28.27758942 123.49902893 -29.5148468 123.51950073 C-31.4447773 123.53682755 -31.4447773 123.53682755 -33.41369629 123.55450439 C-34.75177693 123.57322788 -36.0898459 123.59280217 -37.42790222 123.6131897 C-40.9376842 123.66439259 -44.44750442 123.70408125 -47.9574585 123.74133301 C-51.54387782 123.78144728 -55.13013974 123.83250563 -58.71643066 123.88262939 C-65.74431003 123.97924817 -72.77228826 124.06369757 -79.80041504 124.14044189 C-79.84621853 160.64269437 -79.88144747 197.1449418 -79.9025457 233.64721711 C-79.90504703 237.95916774 -79.90763569 242.27111831 -79.91027832 246.58306885 C-79.91080294 247.44148049 -79.91132756 248.29989213 -79.91186808 249.18431624 C-79.92056457 263.07345919 -79.93633038 276.96258553 -79.95472063 290.85171864 C-79.97344071 305.10913718 -79.98453622 319.36654704 -79.98859203 333.62397736 C-79.99133271 342.41762128 -79.99998097 351.21121826 -80.01624797 360.00484773 C-80.02684088 366.03951254 -80.03001045 372.07415319 -80.02741779 378.10882661 C-80.02614009 381.58760425 -80.02806314 385.06630003 -80.03882599 388.54506302 C-80.04880604 392.32478965 -80.04637258 396.10431703 -80.04092407 399.88404846 C-80.04674976 400.97260032 -80.05257544 402.06115217 -80.05857766 403.18269044 C-79.97498731 424.70152762 -71.85528992 443.98964626 -56.78088379 459.35137939 C-40.05545757 475.50504362 -19.62906074 480.64593486 2.95735168 480.5146637 C4.36575611 480.51741357 5.77415847 480.52147351 7.18255585 480.52670735 C11.0017876 480.53716693 14.82078095 480.52924939 18.64000189 480.51795685 C22.77835699 480.50903551 26.91668351 480.51758088 31.05503845 480.52381897 C39.14055716 480.53326195 47.22598603 480.52674749 55.31149802 480.51455603 C64.73897867 480.50087496 74.16643839 480.50257916 83.59392645 480.50468936 C100.41798267 480.50787245 117.24199641 480.49624902 134.06604004 480.47662354 C150.37236829 480.45760713 166.67864681 480.4505408 182.98498535 480.45611572 C200.77137548 480.46217872 218.5577438 480.46198806 236.34413213 480.45062989 C238.24177786 480.44942267 240.13942359 480.44821669 242.03706932 480.44701195 C242.97059918 480.44640841 243.90412903 480.44580487 244.86594767 480.44518304 C251.43029588 480.4413111 257.99463595 480.44169465 264.55898476 480.44359779 C272.55967838 480.44572366 280.56032857 480.44046564 288.56100998 480.42598424 C292.63936483 480.41876053 296.71765653 480.41464596 300.79601669 480.4192276 C304.53447486 480.42332517 308.27280305 480.41807892 312.01124158 480.40560152 C313.99263282 480.40132004 315.97403785 480.40674041 317.95542508 480.4125908 C339.46172734 480.30775121 358.89118068 473.27462544 374.37927246 458.07794189 C390.24083684 441.86150862 396.37901362 422.53617875 396.31983948 400.24481201 C396.3206939 399.06191353 396.32154833 397.87901505 396.32242864 396.66027117 C396.32378626 393.39467778 396.3206789 390.12912453 396.31565058 386.86353588 C396.31131841 383.33535454 396.31279447 379.80717495 396.31355286 376.2789917 C396.31407634 370.17204855 396.31094789 364.06511611 396.30531502 357.95817566 C396.29717622 349.12864515 396.29458236 340.29911981 396.29332703 331.46958596 C396.29114025 317.14307146 396.2844903 302.81656267 396.27502441 288.49005127 C396.26584062 274.57598906 396.25876452 260.6619284 396.2545166 246.74786377 C396.25425388 245.88971083 396.25399115 245.03155789 396.25372047 244.14740032 C396.2524154 239.84215288 396.2511517 235.53690544 396.24990857 231.23165798 C396.2395476 195.53458189 396.22193945 159.83751242 396.19958496 124.14044189 C395.33879119 124.14068542 395.33879119 124.14068542 394.46060765 124.14093387 C360.43182073 124.14980045 326.40320786 124.12743941 292.37447847 124.0646516 C288.28655863 124.05713576 284.19863836 124.04988024 280.11071777 124.04278564 C278.88999568 124.04066052 278.88999568 124.04066052 277.64461254 124.03849246 C264.47579894 124.01618762 251.30706375 124.0149603 238.13823654 124.02155326 C224.6209085 124.02785037 211.10374506 124.01142513 197.58646667 123.97400582 C189.24875486 123.95163806 180.91141835 123.94689129 172.57369427 123.96484526 C166.85242114 123.97546547 161.13145565 123.96396955 155.41024573 123.93528037 C152.11158564 123.9193861 148.81380512 123.91633765 145.51512718 123.93305016 C141.93146385 123.94966948 138.34980552 123.92931341 134.76626587 123.89993286 C133.21661516 123.92031201 133.21661516 123.92031201 131.63565838 123.94110286 C122.67122193 123.79863541 116.3515472 120.25058433 109.87927246 114.17559814 C108.9343592 113.19426076 107.99934884 112.20328978 107.07458496 111.20294189 C106.0570135 110.14376393 105.03748441 109.08646317 104.01599121 108.03106689 C103.53404297 107.53026611 103.05209473 107.02946533 102.55554199 106.51348877 C100.78982189 104.72551437 98.92536923 103.08094521 97.01208496 101.45294189 C94.09775359 98.97304501 91.38736956 96.36485729 88.69958496 93.64044189 C75.98423886 80.13749042 75.98423886 80.13749042 59.09899902 74.96343994 C58.08404358 74.95060471 57.06908813 74.93776947 56.02337646 74.92454529 C54.93168152 74.91715836 53.83998657 74.90977142 52.71520996 74.90216064 C51.02086823 74.89005302 51.02086823 74.89005302 49.29229736 74.87770081 C46.90170826 74.86387492 44.51109953 74.85314609 42.1204834 74.84527588 C38.47719632 74.82807228 34.83481895 74.78417206 31.19177246 74.74005127 C28.86625828 74.729923 26.54073641 74.72140732 24.21520996 74.71466064 C22.58981293 74.68839851 22.58981293 74.68839851 20.93157959 74.66160583 C13.0047816 74.68417414 6.75043863 75.97455866 1.32458496 82.07794189 Z " fill="#F3B943" transform="translate(97.8004150390625,9.85955810546875)"/>
<path d="M0 0 C1.30710937 -0.00064453 2.61421875 -0.00128906 3.9609375 -0.00195312 C4.63479492 0.00843994 5.30865234 0.01883301 6.00292969 0.02954102 C8.05746244 0.05852269 10.10941247 0.05012904 12.1640625 0.03710938 C23.38236181 0.10902155 23.38236181 0.10902155 29.0625 3.49609375 C33.07297913 7.92145003 33.29801499 12.44259462 33.625 18.18359375 C33.66818359 18.88548828 33.71136719 19.58738281 33.75585938 20.31054688 C33.8616736 22.03884581 33.96256581 23.76744485 34.0625 25.49609375 C35.49529297 25.95048828 35.49529297 25.95048828 36.95703125 26.4140625 C44.91130708 28.97746225 52.53736248 31.81957126 60.0625 35.49609375 C60.58199219 34.95339844 61.10148438 34.41070312 61.63671875 33.8515625 C71.00106712 24.24488348 71.00106712 24.24488348 78.8046875 24 C86.20543496 25.62611579 91.21931698 31.22163314 96.3125 36.43359375 C97.01890625 37.13677734 97.7253125 37.83996094 98.453125 38.56445312 C106.82723312 47.02579154 106.82723312 47.02579154 107.4375 53.43359375 C107.0382372 61.64919371 101.74569672 66.17737758 96.0625 71.49609375 C96.61679687 72.69105469 97.17109375 73.88601562 97.7421875 75.1171875 C98.47441218 76.72244931 99.20615743 78.32792987 99.9375 79.93359375 C100.30230469 80.71669922 100.66710937 81.49980469 101.04296875 82.30664062 C103.46535441 87.65791076 104.96453534 92.72311113 106.0625 98.49609375 C107.07570313 98.46128906 108.08890625 98.42648438 109.1328125 98.390625 C110.4843583 98.3624678 111.83592219 98.33516972 113.1875 98.30859375 C113.85265625 98.28345703 114.5178125 98.25832031 115.203125 98.23242188 C119.95640723 98.16252067 123.11777685 98.83089128 127.0625 101.49609375 C130.64008988 105.9601191 131.57287787 108.96617854 131.59375 114.65234375 C131.5975769 115.31770142 131.60140381 115.98305908 131.60534668 116.6685791 C131.60805313 118.06699142 131.60078094 119.46545547 131.58398438 120.86376953 C131.56255063 122.99106869 131.5838231 125.114992 131.609375 127.2421875 C131.60673149 128.60808029 131.60160602 129.973971 131.59375 131.33984375 C131.58923828 132.56896484 131.58472656 133.79808594 131.58007812 135.06445312 C130.85555761 139.86816084 128.58337369 142.83220212 125.359375 146.359375 C121.75907087 148.14115817 118.26542873 147.81142478 114.3125 147.68359375 C113.51972656 147.67005859 112.72695313 147.65652344 111.91015625 147.64257812 C109.96064436 147.60734598 108.01148374 147.55354196 106.0625 147.49609375 C105.90394531 148.1509375 105.74539063 148.80578125 105.58203125 149.48046875 C103.70928465 156.8059085 101.0689036 163.57045114 98.0625 170.49609375 C97.38994132 172.16039151 96.7213076 173.82630491 96.0625 175.49609375 C96.77277344 176.19476563 97.48304688 176.8934375 98.21484375 177.61328125 C99.13394531 178.52335938 100.05304688 179.4334375 101 180.37109375 C101.91652344 181.27601563 102.83304688 182.1809375 103.77734375 183.11328125 C107.07306192 186.54984207 107.20453903 188.50388514 107.390625 193.23046875 C106.28657123 200.85369718 100.35014585 205.62421165 95.125 210.74609375 C94.31353516 211.56078125 93.50207031 212.37546875 92.66601562 213.21484375 C84.07878051 221.72458946 84.07878051 221.72458946 77.3125 222.05859375 C71.97628038 221.97977219 69.44783459 219.99881734 65.75390625 216.3203125 C64.0625 214.49609375 64.0625 214.49609375 62.65234375 212.703125 C61.09547968 211.24993552 61.09547968 211.24993552 58.8125 211.625 C55.45351548 212.68899652 52.28699699 214.01245229 49.0625 215.43359375 C46.73009056 216.45653625 44.39682435 217.47752861 42.0625 218.49609375 C41.175625 218.88925781 40.28875 219.28242188 39.375 219.6875 C37.0625 220.49609375 37.0625 220.49609375 33.0625 220.49609375 C33.10890625 221.58148438 33.1553125 222.666875 33.203125 223.78515625 C33.24066487 225.23044106 33.27706264 226.67575586 33.3125 228.12109375 C33.34601563 228.83394531 33.37953125 229.54679688 33.4140625 230.28125 C33.50960229 235.48816867 32.57749326 238.41917979 29.0625 242.49609375 C23.38426654 246.74922679 17.10916974 245.98197051 10.34301758 245.94213867 C8.13463027 245.93363085 5.92883515 245.96240964 3.72070312 245.99414062 C2.30468827 245.99575309 0.88866887 245.99517424 -0.52734375 245.9921875 C-1.80472412 245.99404053 -3.08210449 245.99589355 -4.39819336 245.99780273 C-8.55372487 245.40874174 -10.69409669 244.1136766 -13.9375 241.49609375 C-17.00207358 236.96026787 -17.32645357 232.95186527 -17.125 227.62109375 C-17.10469727 226.58855469 -17.10469727 226.58855469 -17.08398438 225.53515625 C-17.0489837 223.85512374 -16.99518954 222.17550025 -16.9375 220.49609375 C-18.79375 220.15578125 -18.79375 220.15578125 -20.6875 219.80859375 C-27.79451795 218.24053741 -34.87410382 215.53835787 -40.9375 211.49609375 C-44.5040279 211.78622796 -46.08476895 213.36163094 -48.4375 215.93359375 C-52.1323498 219.9559416 -55.16274365 221.78587489 -60.6875 222.05859375 C-67.10948113 221.85353775 -69.66530989 218.988784 -73.9375 214.49609375 C-75.19961445 213.24774282 -76.46560748 212.00330722 -77.734375 210.76171875 C-80.44738513 208.09437028 -83.15537012 205.42265871 -85.83984375 202.7265625 C-86.41210693 202.15317139 -86.98437012 201.57978027 -87.57397461 200.98901367 C-90.63642936 197.63594102 -90.61762081 193.96248546 -90.640625 189.5859375 C-89.46190979 184.406139 -85.8099889 181.4804114 -82.02734375 178.00390625 C-79.69204898 175.7380233 -79.69204898 175.7380233 -79.91015625 173.13671875 C-81.50592861 169.0350377 -83.42514553 165.12140861 -85.41015625 161.19921875 C-87.50402061 156.90635877 -88.49443866 153.25900312 -88.9375 148.49609375 C-89.93910156 148.5425 -90.94070312 148.58890625 -91.97265625 148.63671875 C-105.62311253 149.08579202 -105.62311253 149.08579202 -110.9375 144.49609375 C-114.8145686 138.15263788 -114.46093631 131.88187396 -114.43847656 124.70117188 C-114.4375023 122.50127982 -114.47921382 120.30485989 -114.5234375 118.10546875 C-114.52864433 116.69401762 -114.5313327 115.28255448 -114.53125 113.87109375 C-114.53833984 112.60007812 -114.54542969 111.3290625 -114.55273438 110.01953125 C-113.67228473 104.97721013 -111.23751637 102.24610621 -107.140625 99.12890625 C-103.6873805 98.13701687 -100.24489031 98.28938691 -96.6875 98.37109375 C-95.94242188 98.38011719 -95.19734375 98.38914062 -94.4296875 98.3984375 C-92.59881941 98.42191017 -90.76811762 98.4577785 -88.9375 98.49609375 C-88.8446875 97.50867188 -88.751875 96.52125 -88.65625 95.50390625 C-88.02524602 91.08910024 -86.32428422 87.37956303 -84.4375 83.37109375 C-81.25391325 77.16962641 -81.25391325 77.16962641 -79.9375 70.49609375 C-81.74973652 67.99371896 -81.74973652 67.99371896 -84.3125 65.80859375 C-88.4710201 61.97837787 -90.12628307 60.18307003 -90.5625 54.49609375 C-90.48057261 48.19587728 -88.09058642 45.43755229 -83.72265625 41.125 C-82.80355469 40.25746094 -81.88445312 39.38992187 -80.9375 38.49609375 C-79.88948079 37.42680171 -78.84669483 36.35236099 -77.80859375 35.2734375 C-67.55984124 24.70421607 -67.55984124 24.70421607 -61 24.18359375 C-53.24721622 24.45486979 -48.99695173 30.21066155 -43.9375 35.49609375 C-40.48494314 34.15343275 -37.15237521 32.65874292 -33.8125 31.05859375 C-28.32659967 28.53582598 -22.80125611 26.89114598 -16.9375 25.49609375 C-16.98390625 24.48289063 -17.0303125 23.4696875 -17.078125 22.42578125 C-17.11566758 21.07424843 -17.15206506 19.72268347 -17.1875 18.37109375 C-17.22101563 17.7059375 -17.25453125 17.04078125 -17.2890625 16.35546875 C-17.39045091 11.18465985 -16.27717622 8.39975502 -12.9375 4.49609375 C-8.50986073 1.00249677 -5.61846024 -0.00876931 0 0 Z " fill="#EC5563" transform="translate(168.9375,141.50390625)"/>
<path d="M0 0 C2.26171875 1.78515625 2.26171875 1.78515625 4.6875 4.0625 C6.00041016 5.27486328 6.00041016 5.27486328 7.33984375 6.51171875 C8.65662109 7.74341797 8.65662109 7.74341797 10 9 C11.57660137 10.46560863 13.15952177 11.92446232 14.75 13.375 C15.42546875 14.00148438 16.1009375 14.62796875 16.796875 15.2734375 C23.08096929 20.19820643 28.3851732 20.43445715 36.08566284 20.39872742 C37.20559919 20.40537424 38.32553553 20.41202107 39.47940934 20.41886932 C43.23359824 20.43752764 46.98746922 20.43489203 50.74169922 20.43237305 C53.43221897 20.44138847 56.12271011 20.45158394 58.81321716 20.46325684 C64.60643992 20.48603777 70.39960256 20.49792706 76.19286728 20.50238609 C84.56890364 20.50884886 92.94483136 20.53178844 101.32082392 20.55872939 C114.91080743 20.60199431 128.50078637 20.63196275 142.09082031 20.65356445 C155.29103854 20.67457503 168.49121914 20.70188496 181.69140625 20.73754883 C182.92466176 20.74086909 182.92466176 20.74086909 184.18283153 20.74425644 C190.61289388 20.76161709 197.04295522 20.77934271 203.47301626 20.79718363 C234.98198749 20.88451538 266.49094191 20.9400182 298 21 C298 75.12 298 129.24 298 185 C262.36 185 226.72 185 190 185 C189.34 182.36 188.68 179.72 188 177 C186.08328283 174.66400095 184.68105411 173.34052706 182 172 C177.90195531 171.70304024 173.7950376 171.72193995 169.6875 171.6875 C168.54603516 171.65849609 167.40457031 171.62949219 166.22851562 171.59960938 C159.84632333 171.52003879 159.84632333 171.52003879 153.89453125 173.51953125 C152.13706241 175.82054715 151.34462482 177.47490787 150.3815918 180.1550293 C150.12024948 180.87514694 149.85890717 181.59526459 149.58964539 182.33720398 C149.39506241 182.88592667 149.20047943 183.43464935 149 184 C141.46013119 184.02562012 133.92027384 184.04297872 126.38037109 184.05493164 C123.8220986 184.05992135 121.26382889 184.06671549 118.70556641 184.07543945 C91.45007993 184.16597155 91.45007993 184.16597155 78 183 C78.33 180.69 78.66 178.38 79 176 C80.75376953 175.96132813 80.75376953 175.96132813 82.54296875 175.921875 C84.09118226 175.86557633 85.6393579 175.80822938 87.1875 175.75 C87.95642578 175.73582031 88.72535156 175.72164062 89.51757812 175.70703125 C94.55039367 175.49103058 97.39555965 174.82844512 101 171 C104.29893464 165.93354544 103.37193524 159.60762179 103.37060547 153.78320312 C103.37497249 151.6385112 103.41129656 149.49588981 103.44921875 147.3515625 C103.45508905 145.97656948 103.45905702 144.60156676 103.4609375 143.2265625 C103.46915527 141.98471191 103.47737305 140.74286133 103.48583984 139.46337891 C102.91019084 135.35978252 101.57484494 133.20776938 99 130 C95.01037548 127.64343422 90.72426122 127.58338712 86.1875 127.375 C85.14819336 127.31699219 85.14819336 127.31699219 84.08789062 127.2578125 C82.39232985 127.16426432 80.69620288 127.08107636 79 127 C78.43732422 125.45892578 78.43732422 125.45892578 77.86328125 123.88671875 C74.87468528 115.77061045 71.73874547 107.80835338 68 100 C68.62648438 99.40832031 69.25296875 98.81664062 69.8984375 98.20703125 C70.71570313 97.41683594 71.53296875 96.62664062 72.375 95.8125 C73.18710937 95.03519531 73.99921875 94.25789063 74.8359375 93.45703125 C78.36526445 89.44990734 79.62234667 85.47250817 79.421875 80.08984375 C78.08599598 73.47229488 71.60816327 68.42043506 67.0625 63.75 C66.57297852 63.24243164 66.08345703 62.73486328 65.57910156 62.21191406 C61.0347542 57.67954916 56.54730314 54.40433383 50.0625 53.375 C44.92082885 53.64352054 41.72436037 56.73587428 38 60 C36.9212689 60.90473144 35.84043619 61.80696141 34.7578125 62.70703125 C33.39269531 63.84205078 33.39269531 63.84205078 32 65 C30.54980469 64.29423828 30.54980469 64.29423828 29.0703125 63.57421875 C22.40499949 60.37274219 15.94308261 57.38119976 8.7578125 55.5078125 C7 55 7 55 6 54 C5.75214662 50.27760948 5.61559162 46.5602068 5.4765625 42.83203125 C4.97289843 38.78207676 4.29126344 36.36864476 2 33 C-4.18550482 29.21277232 -9.87358813 29.50917476 -16.94042969 29.55395508 C-18.99515566 29.5624799 -21.04710941 29.53363945 -23.1015625 29.50195312 C-25.06222656 29.50291992 -25.06222656 29.50291992 -27.0625 29.50390625 C-28.84333984 29.50112671 -28.84333984 29.50112671 -30.66015625 29.49829102 C-35.5604614 30.23441142 -38.73720887 32.44103184 -41.83203125 36.26171875 C-43.32419319 39.76006497 -43.56196128 43.06427237 -43.6875 46.8125 C-43.72166016 47.50537109 -43.75582031 48.19824219 -43.79101562 48.91210938 C-43.87286344 50.60752849 -43.93812365 52.30373458 -44 54 C-44.63164062 54.20753906 -45.26328125 54.41507813 -45.9140625 54.62890625 C-53.01055691 57.07279986 -59.38183417 60.18840903 -65.93359375 63.8046875 C-69 65 -69 65 -71.203125 64.37109375 C-74.70644936 61.69790495 -74.70644936 61.69790495 -76.3125 60.1875 C-76.84488281 59.70667969 -77.37726563 59.22585937 -77.92578125 58.73046875 C-79 57 -79 57 -78.79077148 54.64648438 C-77.86297976 51.54143274 -76.70589885 50.20345138 -74.421875 47.92578125 C-73.67993896 47.18078369 -72.93800293 46.43578613 -72.17358398 45.66821289 C-71.37380127 44.89082764 -70.57401855 44.11344238 -69.75 43.3125 C-68.93023682 42.5073999 -68.11047363 41.7022998 -67.26586914 40.87280273 C-60.87769156 34.68079999 -54.35926117 29.0230211 -47 24 C-46.36803711 23.56671387 -45.73607422 23.13342773 -45.08496094 22.68701172 C-34.4343333 15.45595789 -23.36225813 9.0410013 -12 3 C-11.28602051 2.60151855 -10.57204102 2.20303711 -9.83642578 1.79248047 C-8.79010986 1.22811279 -8.79010986 1.22811279 -7.72265625 0.65234375 C-7.10269775 0.31066162 -6.48273926 -0.03102051 -5.84399414 -0.38305664 C-3.49359704 -1.16942676 -2.29888606 -0.86097958 0 0 Z " fill="#F4F4F9" transform="translate(196,113)"/>
<path d="M0 0 C1.41428314 -0.00258616 2.82856555 -0.00560002 4.24284697 -0.0090034 C8.1202174 -0.01704733 11.99756929 -0.01886152 15.87494707 -0.01960087 C20.06056747 -0.02145601 24.24617835 -0.02900571 28.43179321 -0.03573608 C37.58085309 -0.04930201 46.72990857 -0.05534158 55.87897682 -0.05974674 C61.59607155 -0.06251245 67.31316459 -0.06675044 73.03025818 -0.07125092 C88.87130883 -0.08344195 104.71235815 -0.09374118 120.55341339 -0.09712601 C121.56675238 -0.09734557 122.58009138 -0.09756514 123.62413761 -0.09779136 C124.63985113 -0.09800964 125.65556465 -0.09822791 126.70205736 -0.09845281 C128.7601525 -0.09889627 130.81824764 -0.09934283 132.87634277 -0.09979248 C133.89722109 -0.10001391 134.9180994 -0.10023534 135.96991342 -0.10046348 C152.50072999 -0.10440898 169.03150241 -0.12185617 185.56230193 -0.145152 C202.55007415 -0.16889776 219.53782424 -0.18132935 236.52561331 -0.18249393 C246.0571645 -0.18340894 255.58865818 -0.18911738 265.12019348 -0.20731354 C273.2388384 -0.22275818 281.35740803 -0.22780938 289.47606486 -0.21957543 C293.61362297 -0.21568416 297.75102967 -0.21652347 301.88856888 -0.23063278 C305.68623022 -0.24346388 309.48362782 -0.24209453 313.28128928 -0.23004207 C315.28501972 -0.22719064 317.28875512 -0.23895069 319.29244852 -0.25146413 C343.93806405 -0.11875791 365.88244683 9.06031956 383.45349121 26.27325439 C398.17271634 41.64154919 408.29568012 62.51712209 408.33380604 84.09429646 C408.33826388 85.26966317 408.34272173 86.44502989 408.34731466 87.65601379 C408.34703811 89.57927852 408.34703811 89.57927852 408.34675598 91.54139709 C408.35005789 92.92451842 408.35378414 94.30763878 408.35789746 95.69075793 C408.3678888 99.48671325 408.37162964 103.28265276 408.37428677 107.07861936 C408.37819846 111.17499864 408.38777631 115.27136549 408.39649963 119.36773682 C408.41624161 129.25935896 408.42632824 139.1509821 408.43522742 149.04261902 C408.4396148 153.70610894 408.44498052 158.36959774 408.45021629 163.03308678 C408.46722774 178.54554032 408.48171988 194.05799316 408.48896503 209.5704546 C408.49087479 213.59402785 408.49279514 217.61760109 408.49475098 221.64117432 C408.49523472 222.64115921 408.49571846 223.6411441 408.49621686 224.67143156 C408.50450955 240.85501649 408.52983399 257.03852731 408.56233165 273.22207991 C408.59545802 289.85500595 408.6134189 306.48789441 408.61660928 323.1208536 C408.61876942 332.45241465 408.62744498 341.78386771 408.65307045 351.1153965 C408.67485393 359.06603936 408.68279053 367.01654799 408.67310367 374.9672173 C408.66858075 379.01797804 408.6703268 383.06846228 408.68986511 387.11918449 C408.82452763 416.68693031 405.16240602 440.94891999 385.19958496 464.14044189 C384.68009277 464.74501221 384.16060059 465.34958252 383.62536621 465.97247314 C368.1126411 482.65744449 345.61466385 491.64112827 323.12713623 492.50862122 C315.18214872 492.69305748 307.2381652 492.68915668 299.29147816 492.66334057 C295.11960631 492.65419798 290.94779856 492.66830489 286.77593994 492.67926025 C278.62683548 492.69695291 270.47787923 492.69324706 262.32876921 492.68160969 C255.69985975 492.67253895 249.07099153 492.67136703 242.44207764 492.67570496 C241.4949892 492.67631789 240.54790076 492.67693082 239.57211268 492.67756233 C237.64751544 492.67884136 235.72291822 492.68013821 233.79832101 492.68145269 C215.79399966 492.69283138 197.78976006 492.67978748 179.78545213 492.65825123 C164.37072113 492.64038272 148.95611066 492.6434876 133.54138184 492.66192627 C115.59705055 492.68338104 97.65279073 492.691733 79.70844841 492.67947721 C77.79132971 492.67820315 75.874211 492.67694567 73.95709229 492.67570496 C72.54257528 492.6747793 72.54257528 492.6747793 71.09948218 492.67383495 C64.48628676 492.67039584 57.87313706 492.67617918 51.25994873 492.68562317 C43.18956283 492.6968959 35.11933235 492.6936931 27.04896402 492.67250019 C22.93928136 492.6620602 18.82985686 492.65774583 14.7201767 492.6710968 C-12.21733427 492.75112693 -37.23315058 491.06300585 -58.80041504 473.14044189 C-60.09398926 472.07309814 -60.09398926 472.07309814 -61.41369629 470.98419189 C-78.63751103 456.13877949 -88.77787142 436.58474402 -91.80041504 414.14044189 C-92.07204611 409.47928742 -92.075057 404.83083443 -92.06111145 400.16271973 C-92.06413788 398.7779815 -92.06802981 397.39324495 -92.07270402 396.0085113 C-92.08292963 392.23136532 -92.08081617 388.45431484 -92.07652342 384.67716122 C-92.07404622 380.59249299 -92.08308271 376.50784716 -92.09056091 372.42318726 C-92.1032829 364.43125012 -92.10510469 356.43934663 -92.10276065 348.44740108 C-92.10097435 341.94750217 -92.10273382 335.44761345 -92.10698509 328.94771576 C-92.10758028 328.02101562 -92.10817547 327.09431547 -92.1087887 326.1395335 C-92.11000051 324.25664435 -92.11121464 322.37375519 -92.11243107 320.49086604 C-92.12329721 302.8491309 -92.12114864 285.2074149 -92.11504623 267.56567869 C-92.10987923 251.44897036 -92.12112843 235.33232252 -92.14014445 219.21562615 C-92.15954692 202.64356791 -92.16777454 186.07153824 -92.16402119 169.49946856 C-92.16211263 160.20496044 -92.16456288 150.91050377 -92.17873573 141.61600494 C-92.19068133 133.70239851 -92.19201898 125.78887518 -92.17994557 117.87526754 C-92.17407881 113.84299821 -92.17289589 109.81088067 -92.18494797 105.77862167 C-92.19588157 102.07733323 -92.19261586 98.37632194 -92.17868628 94.67504606 C-92.17482876 92.72320666 -92.18552509 90.7713546 -92.19698316 88.81954503 C-92.04479284 63.61472824 -82.25362932 42.08468224 -64.92541504 23.95294189 C-47.06104259 6.74382635 -24.27006617 -0.01607933 0 0 Z M-36.11291504 18.82794189 C-37.09808105 19.34904541 -37.09808105 19.34904541 -38.10314941 19.88067627 C-56.67947715 29.95874264 -70.13981524 44.97988487 -76.80041504 65.14044189 C-79.61141763 75.88966456 -80.18891989 86.02773206 -79.98791504 97.07794189 C-79.97281017 98.55123519 -79.95913223 100.02454383 -79.94689941 101.49786377 C-79.91442367 105.0457181 -79.86297776 108.59297497 -79.80041504 112.14044189 C-72.32457056 112.21004507 -64.84879631 112.26330531 -57.37269306 112.29587841 C-53.90097394 112.31151432 -50.42947701 112.33271402 -46.95788574 112.36676025 C-42.96396792 112.40568253 -38.97028241 112.42016818 -34.97619629 112.43341064 C-33.73332352 112.4488945 -32.49045074 112.46437836 -31.20991516 112.48033142 C-30.0490892 112.48055801 -28.88826324 112.48078461 -27.69226074 112.48101807 C-26.67300003 112.4876799 -25.65373932 112.49434174 -24.60359192 112.50120544 C-21.29783381 112.07576064 -19.45821109 111.12903044 -16.80041504 109.14044189 C-13.99480113 104.12341615 -13.48122562 100.01504007 -13.42541504 94.32794189 C-13.20074772 87.207716 -11.54505691 82.15986621 -7.80041504 76.14044189 C-7.50006348 75.43403564 -7.19971191 74.72762939 -6.89025879 73.99981689 C-5.50562374 71.63750047 -4.29784743 71.19461173 -1.80041504 70.14044189 C0.46687183 68.85910548 2.72515478 67.56318671 4.98083496 66.26153564 C8.83123061 64.31600123 12.25782128 64.00841989 16.54382324 63.96343994 C18.14666672 63.94418709 18.14666672 63.94418709 19.78189087 63.92454529 C20.93293304 63.91715836 22.08397522 63.90977142 23.26989746 63.90216064 C24.46130341 63.8940889 25.65270935 63.88601715 26.88021851 63.87770081 C29.40365142 63.86387047 31.92710297 63.85314362 34.45056152 63.84527588 C38.28914394 63.82810047 42.12685664 63.78420713 45.96520996 63.74005127 C48.42093282 63.72992055 50.87666297 63.72140564 53.33239746 63.71466064 C54.47129425 63.69715256 55.61019104 63.67964447 56.78359985 63.66160583 C71.37119992 63.70084996 80.27261742 70.10522107 90.26208496 80.14044189 C91.09739746 80.99509033 91.93270996 81.84973877 92.79333496 82.73028564 C95.48390115 85.42521964 98.31140101 87.88998279 101.20349121 90.36309814 C103.46091122 92.37312966 105.57694209 94.48877143 107.69958496 96.64044189 C111.69683573 100.68593534 115.83530902 104.4946748 120.19958496 108.14044189 C120.8396281 108.82363369 121.47967123 109.50682549 122.13910961 110.21072006 C126.69508678 113.08340081 130.80575353 112.68065683 136.08906555 112.62145996 C137.75543777 112.62658651 137.75543777 112.62658651 139.45547408 112.63181663 C143.18529858 112.63841554 146.91440661 112.61638505 150.64416504 112.59454346 C153.31483585 112.59341541 155.98546251 112.59387176 158.65612793 112.59631348 C164.40960445 112.59841044 170.16289947 112.58586517 175.91633034 112.56336212 C184.23478406 112.53084784 192.55315005 112.5204357 200.87166043 112.51541016 C214.36798125 112.5066566 227.86420534 112.48003939 241.36047363 112.44219971 C254.47049475 112.40548118 267.5804896 112.37716865 280.69055176 112.36016846 C281.49871394 112.35911756 282.30687613 112.35806667 283.13952807 112.35698393 C287.19385805 112.35176376 291.2481882 112.34670894 295.30251849 112.34173632 C328.93494412 112.30027238 362.56725269 112.22982232 396.19958496 112.14044189 C396.24969886 107.80289144 396.28563535 103.46550246 396.30944824 99.12774658 C396.31939424 97.65766457 396.33295587 96.18760173 396.35046387 94.71759033 C396.6191683 71.54578496 391.0155691 51.82385279 374.81018066 34.65753174 C360.81268037 20.38021159 341.87324817 12.22913358 321.94998932 12.00901413 C319.44583745 12.00093392 316.94166434 11.99831628 314.4375 12 C313.03956569 11.99741297 311.64163212 11.99439888 310.24369955 11.9909966 C306.41612533 11.98296285 302.58856989 11.98113906 298.76098824 11.98039913 C294.62717313 11.97854222 290.49336762 11.97099165 286.35955811 11.96426392 C277.32618911 11.95070545 268.29282457 11.94465964 259.2594471 11.94025326 C253.6135308 11.9374864 247.9676162 11.93324822 242.32170105 11.92874908 C226.67448281 11.91655924 211.02726592 11.90625964 195.38004303 11.90287399 C194.37936117 11.90265443 193.3786793 11.90243486 192.34767374 11.90220864 C191.34466358 11.90199036 190.34165341 11.90177209 189.308249 11.90154719 C187.2759339 11.90110374 185.24361881 11.90065717 183.21130371 11.90020752 C181.69917165 11.89987537 181.69917165 11.89987537 180.15649146 11.89953652 C163.83334262 11.89559114 147.51023849 11.87814377 131.18710691 11.854848 C114.40835048 11.83109628 97.62961645 11.81867039 80.85084295 11.81750607 C71.43832303 11.81659142 62.02586136 11.81089202 52.61335754 11.79268646 C44.5961411 11.77723377 36.57900092 11.77219533 28.56177241 11.78042457 C24.47673964 11.78431296 20.3918602 11.78349086 16.30684662 11.76936722 C12.55604923 11.75651858 8.80551866 11.7579204 5.05472106 11.76995793 C3.07861924 11.77280366 1.10251232 11.7610628 -0.87355185 11.74853587 C-12.73263243 11.8130541 -25.56867644 12.97003156 -36.11291504 18.82794189 Z M1.32458496 82.07794189 C-2.45056033 87.51859246 -3.03426367 91.93075071 -3.17541504 98.45294189 C-3.49462848 105.86639881 -4.16686614 111.31701633 -9.44494629 116.87091064 C-14.50167622 121.50900062 -18.94952468 123.37179907 -25.87585449 123.45928955 C-27.07672195 123.47915924 -28.27758942 123.49902893 -29.5148468 123.51950073 C-31.4447773 123.53682755 -31.4447773 123.53682755 -33.41369629 123.55450439 C-34.75177693 123.57322788 -36.0898459 123.59280217 -37.42790222 123.6131897 C-40.9376842 123.66439259 -44.44750442 123.70408125 -47.9574585 123.74133301 C-51.54387782 123.78144728 -55.13013974 123.83250563 -58.71643066 123.88262939 C-65.74431003 123.97924817 -72.77228826 124.06369757 -79.80041504 124.14044189 C-79.84621853 160.64269437 -79.88144747 197.1449418 -79.9025457 233.64721711 C-79.90504703 237.95916774 -79.90763569 242.27111831 -79.91027832 246.58306885 C-79.91080294 247.44148049 -79.91132756 248.29989213 -79.91186808 249.18431624 C-79.92056457 263.07345919 -79.93633038 276.96258553 -79.95472063 290.85171864 C-79.97344071 305.10913718 -79.98453622 319.36654704 -79.98859203 333.62397736 C-79.99133271 342.41762128 -79.99998097 351.21121826 -80.01624797 360.00484773 C-80.02684088 366.03951254 -80.03001045 372.07415319 -80.02741779 378.10882661 C-80.02614009 381.58760425 -80.02806314 385.06630003 -80.03882599 388.54506302 C-80.04880604 392.32478965 -80.04637258 396.10431703 -80.04092407 399.88404846 C-80.04674976 400.97260032 -80.05257544 402.06115217 -80.05857766 403.18269044 C-79.97498731 424.70152762 -71.85528992 443.98964626 -56.78088379 459.35137939 C-40.05545757 475.50504362 -19.62906074 480.64593486 2.95735168 480.5146637 C4.36575611 480.51741357 5.77415847 480.52147351 7.18255585 480.52670735 C11.0017876 480.53716693 14.82078095 480.52924939 18.64000189 480.51795685 C22.77835699 480.50903551 26.91668351 480.51758088 31.05503845 480.52381897 C39.14055716 480.53326195 47.22598603 480.52674749 55.31149802 480.51455603 C64.73897867 480.50087496 74.16643839 480.50257916 83.59392645 480.50468936 C100.41798267 480.50787245 117.24199641 480.49624902 134.06604004 480.47662354 C150.37236829 480.45760713 166.67864681 480.4505408 182.98498535 480.45611572 C200.77137548 480.46217872 218.5577438 480.46198806 236.34413213 480.45062989 C238.24177786 480.44942267 240.13942359 480.44821669 242.03706932 480.44701195 C242.97059918 480.44640841 243.90412903 480.44580487 244.86594767 480.44518304 C251.43029588 480.4413111 257.99463595 480.44169465 264.55898476 480.44359779 C272.55967838 480.44572366 280.56032857 480.44046564 288.56100998 480.42598424 C292.63936483 480.41876053 296.71765653 480.41464596 300.79601669 480.4192276 C304.53447486 480.42332517 308.27280305 480.41807892 312.01124158 480.40560152 C313.99263282 480.40132004 315.97403785 480.40674041 317.95542508 480.4125908 C339.46172734 480.30775121 358.89118068 473.27462544 374.37927246 458.07794189 C390.24083684 441.86150862 396.37901362 422.53617875 396.31983948 400.24481201 C396.3206939 399.06191353 396.32154833 397.87901505 396.32242864 396.66027117 C396.32378626 393.39467778 396.3206789 390.12912453 396.31565058 386.86353588 C396.31131841 383.33535454 396.31279447 379.80717495 396.31355286 376.2789917 C396.31407634 370.17204855 396.31094789 364.06511611 396.30531502 357.95817566 C396.29717622 349.12864515 396.29458236 340.29911981 396.29332703 331.46958596 C396.29114025 317.14307146 396.2844903 302.81656267 396.27502441 288.49005127 C396.26584062 274.57598906 396.25876452 260.6619284 396.2545166 246.74786377 C396.25425388 245.88971083 396.25399115 245.03155789 396.25372047 244.14740032 C396.2524154 239.84215288 396.2511517 235.53690544 396.24990857 231.23165798 C396.2395476 195.53458189 396.22193945 159.83751242 396.19958496 124.14044189 C395.33879119 124.14068542 395.33879119 124.14068542 394.46060765 124.14093387 C360.43182073 124.14980045 326.40320786 124.12743941 292.37447847 124.0646516 C288.28655863 124.05713576 284.19863836 124.04988024 280.11071777 124.04278564 C278.88999568 124.04066052 278.88999568 124.04066052 277.64461254 124.03849246 C264.47579894 124.01618762 251.30706375 124.0149603 238.13823654 124.02155326 C224.6209085 124.02785037 211.10374506 124.01142513 197.58646667 123.97400582 C189.24875486 123.95163806 180.91141835 123.94689129 172.57369427 123.96484526 C166.85242114 123.97546547 161.13145565 123.96396955 155.41024573 123.93528037 C152.11158564 123.9193861 148.81380512 123.91633765 145.51512718 123.93305016 C141.93146385 123.94966948 138.34980552 123.92931341 134.76626587 123.89993286 C133.21661516 123.92031201 133.21661516 123.92031201 131.63565838 123.94110286 C122.67122193 123.79863541 116.3515472 120.25058433 109.87927246 114.17559814 C108.9343592 113.19426076 107.99934884 112.20328978 107.07458496 111.20294189 C106.0570135 110.14376393 105.03748441 109.08646317 104.01599121 108.03106689 C103.53404297 107.53026611 103.05209473 107.02946533 102.55554199 106.51348877 C100.78982189 104.72551437 98.92536923 103.08094521 97.01208496 101.45294189 C94.09775359 98.97304501 91.38736956 96.36485729 88.69958496 93.64044189 C75.98423886 80.13749042 75.98423886 80.13749042 59.09899902 74.96343994 C58.08404358 74.95060471 57.06908813 74.93776947 56.02337646 74.92454529 C54.93168152 74.91715836 53.83998657 74.90977142 52.71520996 74.90216064 C51.02086823 74.89005302 51.02086823 74.89005302 49.29229736 74.87770081 C46.90170826 74.86387492 44.51109953 74.85314609 42.1204834 74.84527588 C38.47719632 74.82807228 34.83481895 74.78417206 31.19177246 74.74005127 C28.86625828 74.729923 26.54073641 74.72140732 24.21520996 74.71466064 C22.58981293 74.68839851 22.58981293 74.68839851 20.93157959 74.66160583 C13.0047816 74.68417414 6.75043863 75.97455866 1.32458496 82.07794189 Z " fill="#464C55" transform="translate(97.8004150390625,9.85955810546875)"/>
<path d="M0 0 C1.71219727 -0.0309375 1.71219727 -0.0309375 3.45898438 -0.0625 C4.56177734 -0.06765625 5.66457031 -0.0728125 6.80078125 -0.078125 C7.80923096 -0.0874707 8.81768066 -0.09681641 9.85668945 -0.10644531 C13.17771569 0.31172617 15.00773763 1.270831 17.6875 3.25 C19.95704631 6.65431947 20.05299949 8.41524202 20.3125 12.4375 C20.42464844 14.06751953 20.42464844 14.06751953 20.5390625 15.73046875 C20.58804688 16.56191406 20.63703125 17.39335937 20.6875 18.25 C22.72626949 19.06974263 24.76866075 19.8804807 26.8125 20.6875 C27.94945312 21.13996094 29.08640625 21.59242188 30.2578125 22.05859375 C33.51035364 23.18846283 36.2453081 24.10158839 39.6875 24.25 C41.91365923 22.63097511 43.46558426 20.78950593 45.26953125 18.71875 C48.49455951 16.75976676 50.58073702 16.7987361 54.2644043 17.37744141 C59.11743695 19.12502213 62.26326047 22.97035815 65.6875 26.6875 C66.83025391 27.87182617 66.83025391 27.87182617 67.99609375 29.08007812 C74.62965647 36.01516643 74.62965647 36.01516643 74.77734375 39.16796875 C74.39445172 44.87207829 73.10508519 47.68003747 68.8671875 51.546875 C67.44662046 53.21834118 67.44662046 53.21834118 67.84765625 55.52734375 C68.84737069 58.76827847 70.00680166 61.90668884 71.25 65.0625 C71.70503906 66.22394531 72.16007813 67.38539063 72.62890625 68.58203125 C72.97824219 69.46246094 73.32757813 70.34289062 73.6875 71.25 C74.42355469 71.28738281 75.15960938 71.32476562 75.91796875 71.36328125 C85.85124786 72.0324982 85.85124786 72.0324982 89.6875 75.25 C92.91290664 80.08810996 92.09722064 85.37390366 92.125 91.0625 C92.15787109 92.23876953 92.19074219 93.41503906 92.22460938 94.62695312 C92.28488062 104.31966549 92.28488062 104.31966549 89.28515625 108.01171875 C85.70213791 111.09904132 83.70605702 111.43453606 79.0625 111.8125 C78.05960938 111.89628906 77.05671875 111.98007812 76.0234375 112.06640625 C75.25257813 112.12699219 74.48171875 112.18757813 73.6875 112.25 C72.86993762 114.31049855 72.05865266 116.37348853 71.25 118.4375 C70.79753906 119.58605469 70.34507812 120.73460937 69.87890625 121.91796875 C68.37706681 126.00104352 68.37706681 126.00104352 67.6875 130.25 C68.81158961 132.27358333 68.81158961 132.27358333 70.5625 133.9375 C74.56028728 138.13052805 74.56028728 138.13052805 75 142 C74.34847522 148.77585767 68.82300162 153.42756642 64.1875 158 C63.61902344 158.57621094 63.05054688 159.15242187 62.46484375 159.74609375 C61.90925781 160.29910156 61.35367188 160.85210937 60.78125 161.421875 C60.28302734 161.9178418 59.78480469 162.41380859 59.27148438 162.92480469 C56.33492127 165.38159639 54.288777 166.23843698 50.4375 166.3125 C45.33694698 164.86734331 42.3895361 161.93280475 38.6875 158.25 C37.97851562 158.53617188 37.26953125 158.82234375 36.5390625 159.1171875 C33.72437827 160.23534973 30.90118805 161.31928957 28.0625 162.375 C27.12148438 162.72820312 26.18046875 163.08140625 25.2109375 163.4453125 C22.6875 164.25 22.6875 164.25 19.6875 164.25 C19.74550781 165.04664063 19.80351562 165.84328125 19.86328125 166.6640625 C20.27783741 176.4002101 20.27783741 176.4002101 17.375 179.9375 C12.20617234 184.38509589 6.38032656 183.54056508 -0.125 183.625 C-1.20587891 183.66238281 -2.28675781 183.69976562 -3.40039062 183.73828125 C-12.33988112 183.83706015 -12.33988112 183.83706015 -16.01171875 180.9140625 C-19.30936128 177.09573958 -19.43238263 174.44002389 -19.375 169.5625 C-19.36597656 168.56863281 -19.35695313 167.57476562 -19.34765625 166.55078125 C-19.33605469 165.79152344 -19.32445312 165.03226563 -19.3125 164.25 C-20.16070312 164.14816406 -21.00890625 164.04632813 -21.8828125 163.94140625 C-25.67553101 163.17681493 -28.70337753 161.8584567 -32.1875 160.1875 C-33.33992188 159.63964844 -34.49234375 159.09179688 -35.6796875 158.52734375 C-36.54851562 158.10582031 -37.41734375 157.68429687 -38.3125 157.25 C-38.60125 157.86359375 -38.89 158.4771875 -39.1875 159.109375 C-40.81819507 162.21222535 -42.26379226 163.47158715 -45.3125 165.25 C-49.66121621 166.20057996 -53.52036588 166.31864294 -57.421875 163.9921875 C-59.52502481 162.18347866 -61.41065723 160.26933113 -63.3125 158.25 C-64.12460937 157.45851563 -64.93671875 156.66703125 -65.7734375 155.8515625 C-73.45726909 148.36164464 -73.45726909 148.36164464 -73.8125 142.5625 C-73.8125 139.30439711 -73.64394595 137.71982464 -71.75 135.03515625 C-70.00804432 133.31778463 -68.24948233 131.742267 -66.3125 130.25 C-67.69307386 125.76313495 -69.47881366 121.61934749 -71.5078125 117.3984375 C-72.3125 115.25 -72.3125 115.25 -72.3125 111.25 C-73.10914063 111.30800781 -73.90578125 111.36601562 -74.7265625 111.42578125 C-84.4627101 111.84033741 -84.4627101 111.84033741 -88 108.9375 C-92.42809722 103.79133296 -91.63864482 97.98163947 -91.75 91.5 C-91.79576172 90.4275 -91.84152344 89.355 -91.88867188 88.25 C-91.96156007 83.10345958 -91.91973057 79.20644379 -88.71484375 75.01171875 C-86.27959572 72.64460719 -85.35367733 72.25820733 -81.8828125 71.56640625 C-80.17738281 71.68822266 -80.17738281 71.68822266 -78.4375 71.8125 C-77.28507812 71.87566406 -76.13265625 71.93882812 -74.9453125 72.00390625 C-73.64207031 72.12572266 -73.64207031 72.12572266 -72.3125 72.25 C-72.250625 71.30125 -72.18875 70.3525 -72.125 69.375 C-71.54241574 64.90548637 -69.42384833 61.42980105 -67.17578125 57.58203125 C-66.05496656 55.29381029 -66.05496656 55.29381029 -67.00390625 53.1171875 C-68.40631702 51.00911164 -68.40631702 51.00911164 -70.9375 48.5625 C-73.63270051 45.35892335 -74.17461556 42.68702992 -73.91796875 38.5390625 C-72.73627834 34.07151039 -69.56296308 31.36997004 -66.3125 28.25 C-65.16007812 27.04730469 -65.16007812 27.04730469 -63.984375 25.8203125 C-56.06117909 17.60852336 -56.06117909 17.60852336 -50.4375 16.875 C-45.86140182 17.42413178 -42.74337948 19.5901798 -39.75 23.0625 C-39.275625 23.454375 -38.80125 23.84625 -38.3125 24.25 C-33.56388384 23.62016609 -29.27944686 21.8002905 -24.8359375 20.08984375 C-22.3125 19.25 -22.3125 19.25 -19.3125 19.25 C-19.37050781 18.45335937 -19.42851562 17.65671875 -19.48828125 16.8359375 C-19.90275703 7.10167775 -19.90275703 7.10167775 -16.9375 3.5625 C-11.79184071 -0.9705808 -6.60633535 0.02954203 0 0 Z " fill="#50BDE5" transform="translate(365.3125,283.75)"/>
<path d="M0 0 C36.50225248 -0.04580349 73.00449991 -0.08103244 109.50677522 -0.10213066 C113.81872584 -0.10463199 118.13067641 -0.10722065 122.44262695 -0.10986328 C123.73024441 -0.11065021 123.73024441 -0.11065021 125.04387435 -0.11145304 C138.93301729 -0.12014953 152.82214364 -0.13591535 166.71127675 -0.15430559 C180.96869529 -0.17302567 195.22610515 -0.18412118 209.48353547 -0.18817699 C218.27717938 -0.19091767 227.07077637 -0.19956593 235.86440583 -0.21583293 C241.89907065 -0.22642584 247.93371129 -0.22959541 253.96838472 -0.22700275 C257.44716236 -0.22572505 260.92585814 -0.2276481 264.40462112 -0.23841095 C268.18434775 -0.248391 271.96387513 -0.24595754 275.74360657 -0.24050903 C277.37643435 -0.24924756 277.37643435 -0.24924756 279.04224855 -0.25816262 C300.56267567 -0.17456609 319.83674705 7.94724692 335.20703125 23.01171875 C342.51593952 30.57690362 351.65700313 42.03362106 352.12109375 52.8125 C352.08113281 53.534375 352.04117187 54.25625 352 55 C340.32446893 55.62839961 328.69591188 56.17691295 317 56 C316.99742187 55.24976563 316.99484375 54.49953125 316.9921875 53.7265625 C316.69228369 45.78910837 315.05563574 40.20785039 310 34 C307.09846449 31.45201834 307.09846449 31.45201834 304 30 C303.21625 29.5875 302.4325 29.175 301.625 28.75 C294.82266196 26.80647485 288.29975078 27.98059282 282 31 C280.99040834 31.99031545 279.98860509 32.98873348 279 34 C278.34 34 277.68 34 277 34 C276.31225595 35.32258472 275.65288627 36.65986503 275 38 C274.46375 38.99 273.9275 39.98 273.375 41 C271.14601108 46.11883385 271.81558281 51.5289567 272 57 C266.39 57 260.78 57 255 57 C254.773125 55.185 254.54625 53.37 254.3125 51.5 C253.11085441 44.32397563 250.75847739 39.62055352 245.5 34.625 C238.72975394 30.22434006 231.88950417 30.02804111 224 31 C217.67395699 33.37339417 213.82098547 37.63298298 210.86328125 43.609375 C209.48606132 47.42321481 209.19248002 50.9579195 209 55 C206.72975032 55.08097324 204.45867925 55.13917704 202.1875 55.1875 C200.29064453 55.23970703 200.29064453 55.23970703 198.35546875 55.29296875 C195 55 195 55 193.16796875 53.79296875 C191.76659979 51.64170336 190.95898149 49.55314081 190.125 47.125 C187.60315932 40.6023444 183.77590624 36.66348697 177.4375 33.734375 C171.6529859 31.99160473 165.20497645 31.76459044 159.52734375 33.953125 C153.33121541 37.61289426 150.00467994 42.53993813 147 49 C136.95332841 49.51893965 127.35261732 47.60960869 117.5 45.875 C116.58948883 45.71693878 115.67897766 45.55887756 114.74087524 45.39602661 C25.34200153 29.84587955 25.34200153 29.84587955 0 1 C0 0.67 0 0.34 0 0 Z " fill="#FECB53" transform="translate(138,22)"/>
<path d="M0 0 C1.30710937 -0.00064453 2.61421875 -0.00128906 3.9609375 -0.00195312 C4.63479492 0.00843994 5.30865234 0.01883301 6.00292969 0.02954102 C8.05746244 0.05852269 10.10941247 0.05012904 12.1640625 0.03710938 C23.38236181 0.10902155 23.38236181 0.10902155 29.0625 3.49609375 C33.07297913 7.92145003 33.29801499 12.44259462 33.625 18.18359375 C33.66818359 18.88548828 33.71136719 19.58738281 33.75585938 20.31054688 C33.8616736 22.03884581 33.96256581 23.76744485 34.0625 25.49609375 C35.49529297 25.95048828 35.49529297 25.95048828 36.95703125 26.4140625 C44.91130708 28.97746225 52.53736248 31.81957126 60.0625 35.49609375 C60.58199219 34.95339844 61.10148438 34.41070312 61.63671875 33.8515625 C71.00106712 24.24488348 71.00106712 24.24488348 78.8046875 24 C86.20543496 25.62611579 91.21931698 31.22163314 96.3125 36.43359375 C97.01890625 37.13677734 97.7253125 37.83996094 98.453125 38.56445312 C106.82723312 47.02579154 106.82723312 47.02579154 107.4375 53.43359375 C107.0382372 61.64919371 101.74569672 66.17737758 96.0625 71.49609375 C96.61679687 72.69105469 97.17109375 73.88601562 97.7421875 75.1171875 C98.47441218 76.72244931 99.20615743 78.32792987 99.9375 79.93359375 C100.30230469 80.71669922 100.66710937 81.49980469 101.04296875 82.30664062 C103.46535441 87.65791076 104.96453534 92.72311113 106.0625 98.49609375 C107.07570313 98.46128906 108.08890625 98.42648438 109.1328125 98.390625 C110.4843583 98.3624678 111.83592219 98.33516972 113.1875 98.30859375 C113.85265625 98.28345703 114.5178125 98.25832031 115.203125 98.23242188 C119.95640723 98.16252067 123.11777685 98.83089128 127.0625 101.49609375 C130.64008988 105.9601191 131.57287787 108.96617854 131.59375 114.65234375 C131.5975769 115.31770142 131.60140381 115.98305908 131.60534668 116.6685791 C131.60805313 118.06699142 131.60078094 119.46545547 131.58398438 120.86376953 C131.56255063 122.99106869 131.5838231 125.114992 131.609375 127.2421875 C131.60673149 128.60808029 131.60160602 129.973971 131.59375 131.33984375 C131.58923828 132.56896484 131.58472656 133.79808594 131.58007812 135.06445312 C130.85555761 139.86816084 128.58337369 142.83220212 125.359375 146.359375 C121.75907087 148.14115817 118.26542873 147.81142478 114.3125 147.68359375 C113.51972656 147.67005859 112.72695313 147.65652344 111.91015625 147.64257812 C109.96064436 147.60734598 108.01148374 147.55354196 106.0625 147.49609375 C105.90394531 148.1509375 105.74539063 148.80578125 105.58203125 149.48046875 C103.70928465 156.8059085 101.0689036 163.57045114 98.0625 170.49609375 C97.38994132 172.16039151 96.7213076 173.82630491 96.0625 175.49609375 C96.77277344 176.19476563 97.48304688 176.8934375 98.21484375 177.61328125 C99.13394531 178.52335938 100.05304688 179.4334375 101 180.37109375 C101.91652344 181.27601563 102.83304688 182.1809375 103.77734375 183.11328125 C107.07306192 186.54984207 107.20453903 188.50388514 107.390625 193.23046875 C106.28657123 200.85369718 100.35014585 205.62421165 95.125 210.74609375 C94.31353516 211.56078125 93.50207031 212.37546875 92.66601562 213.21484375 C84.07878051 221.72458946 84.07878051 221.72458946 77.3125 222.05859375 C71.97628038 221.97977219 69.44783459 219.99881734 65.75390625 216.3203125 C64.0625 214.49609375 64.0625 214.49609375 62.65234375 212.703125 C61.09547968 211.24993552 61.09547968 211.24993552 58.8125 211.625 C55.45351548 212.68899652 52.28699699 214.01245229 49.0625 215.43359375 C46.73009056 216.45653625 44.39682435 217.47752861 42.0625 218.49609375 C41.175625 218.88925781 40.28875 219.28242188 39.375 219.6875 C37.0625 220.49609375 37.0625 220.49609375 33.0625 220.49609375 C33.10890625 221.58148438 33.1553125 222.666875 33.203125 223.78515625 C33.24066487 225.23044106 33.27706264 226.67575586 33.3125 228.12109375 C33.34601563 228.83394531 33.37953125 229.54679688 33.4140625 230.28125 C33.50960229 235.48816867 32.57749326 238.41917979 29.0625 242.49609375 C23.38426654 246.74922679 17.10916974 245.98197051 10.34301758 245.94213867 C8.13463027 245.93363085 5.92883515 245.96240964 3.72070312 245.99414062 C2.30468827 245.99575309 0.88866887 245.99517424 -0.52734375 245.9921875 C-1.80472412 245.99404053 -3.08210449 245.99589355 -4.39819336 245.99780273 C-8.55372487 245.40874174 -10.69409669 244.1136766 -13.9375 241.49609375 C-17.00207358 236.96026787 -17.32645357 232.95186527 -17.125 227.62109375 C-17.10469727 226.58855469 -17.10469727 226.58855469 -17.08398438 225.53515625 C-17.0489837 223.85512374 -16.99518954 222.17550025 -16.9375 220.49609375 C-18.79375 220.15578125 -18.79375 220.15578125 -20.6875 219.80859375 C-27.79451795 218.24053741 -34.87410382 215.53835787 -40.9375 211.49609375 C-44.5040279 211.78622796 -46.08476895 213.36163094 -48.4375 215.93359375 C-52.1323498 219.9559416 -55.16274365 221.78587489 -60.6875 222.05859375 C-67.10948113 221.85353775 -69.66530989 218.988784 -73.9375 214.49609375 C-75.19961445 213.24774282 -76.46560748 212.00330722 -77.734375 210.76171875 C-80.44738513 208.09437028 -83.15537012 205.42265871 -85.83984375 202.7265625 C-86.41210693 202.15317139 -86.98437012 201.57978027 -87.57397461 200.98901367 C-90.63642936 197.63594102 -90.61762081 193.96248546 -90.640625 189.5859375 C-89.46190979 184.406139 -85.8099889 181.4804114 -82.02734375 178.00390625 C-79.69204898 175.7380233 -79.69204898 175.7380233 -79.91015625 173.13671875 C-81.50592861 169.0350377 -83.42514553 165.12140861 -85.41015625 161.19921875 C-87.50402061 156.90635877 -88.49443866 153.25900312 -88.9375 148.49609375 C-89.93910156 148.5425 -90.94070312 148.58890625 -91.97265625 148.63671875 C-105.62311253 149.08579202 -105.62311253 149.08579202 -110.9375 144.49609375 C-114.8145686 138.15263788 -114.46093631 131.88187396 -114.43847656 124.70117188 C-114.4375023 122.50127982 -114.47921382 120.30485989 -114.5234375 118.10546875 C-114.52864433 116.69401762 -114.5313327 115.28255448 -114.53125 113.87109375 C-114.53833984 112.60007812 -114.54542969 111.3290625 -114.55273438 110.01953125 C-113.67228473 104.97721013 -111.23751637 102.24610621 -107.140625 99.12890625 C-103.6873805 98.13701687 -100.24489031 98.28938691 -96.6875 98.37109375 C-95.94242188 98.38011719 -95.19734375 98.38914062 -94.4296875 98.3984375 C-92.59881941 98.42191017 -90.76811762 98.4577785 -88.9375 98.49609375 C-88.8446875 97.50867188 -88.751875 96.52125 -88.65625 95.50390625 C-88.02524602 91.08910024 -86.32428422 87.37956303 -84.4375 83.37109375 C-81.25391325 77.16962641 -81.25391325 77.16962641 -79.9375 70.49609375 C-81.74973652 67.99371896 -81.74973652 67.99371896 -84.3125 65.80859375 C-88.4710201 61.97837787 -90.12628307 60.18307003 -90.5625 54.49609375 C-90.48057261 48.19587728 -88.09058642 45.43755229 -83.72265625 41.125 C-82.80355469 40.25746094 -81.88445312 39.38992187 -80.9375 38.49609375 C-79.88948079 37.42680171 -78.84669483 36.35236099 -77.80859375 35.2734375 C-67.55984124 24.70421607 -67.55984124 24.70421607 -61 24.18359375 C-53.24721622 24.45486979 -48.99695173 30.21066155 -43.9375 35.49609375 C-40.48494314 34.15343275 -37.15237521 32.65874292 -33.8125 31.05859375 C-28.32659967 28.53582598 -22.80125611 26.89114598 -16.9375 25.49609375 C-16.98390625 24.48289063 -17.0303125 23.4696875 -17.078125 22.42578125 C-17.11566758 21.07424843 -17.15206506 19.72268347 -17.1875 18.37109375 C-17.22101563 17.7059375 -17.25453125 17.04078125 -17.2890625 16.35546875 C-17.39045091 11.18465985 -16.27717622 8.39975502 -12.9375 4.49609375 C-8.50986073 1.00249677 -5.61846024 -0.00876931 0 0 Z M-4.9375 12.49609375 C-5.06830886 18.94264737 -5.06830886 18.94264737 -5.14526367 25.38989258 C-5.37507609 31.96621516 -5.37507609 31.96621516 -8.09765625 34.53125 C-11.1119523 35.55536434 -14.08729929 36.39379548 -17.1875 37.12109375 C-24.11027683 38.96862807 -29.93565643 41.91644559 -36.07519531 45.58642578 C-39.2477196 47.41149633 -41.33609876 48.46882619 -45.0390625 48.63671875 C-49.06167846 47.05369468 -51.41047851 44.5684935 -54.3125 41.43359375 C-54.85777344 40.86576172 -55.40304688 40.29792969 -55.96484375 39.71289062 C-57.30074853 38.31839353 -58.62076588 36.90870657 -59.9375 35.49609375 C-64.78059854 37.66388686 -68.02461009 41.17718601 -71.75 44.87109375 C-72.45576172 45.54398438 -73.16152344 46.216875 -73.88867188 46.91015625 C-74.55060547 47.565 -75.21253906 48.21984375 -75.89453125 48.89453125 C-76.50272705 49.48927246 -77.11092285 50.08401367 -77.73754883 50.69677734 C-79.15159115 52.42131099 -79.15159115 52.42131099 -78.80004883 54.54589844 C-77.0859287 58.42146922 -73.22166836 61.13846549 -70.06640625 63.8984375 C-68.4296875 65.42578125 -68.4296875 65.42578125 -65.9375 68.49609375 C-65.88303683 72.81502274 -67.31332876 75.54016987 -69.6875 79.05859375 C-74.25005354 86.34113113 -77.37915658 94.26565104 -79.125 102.68359375 C-79.9375 106.49609375 -79.9375 106.49609375 -81.9375 108.49609375 C-83.98461914 108.79907227 -83.98461914 108.79907227 -86.47265625 108.875 C-87.36404297 108.90916016 -88.25542969 108.94332031 -89.17382812 108.97851562 C-90.10646484 109.00494141 -91.03910156 109.03136719 -92 109.05859375 C-93.84518982 109.11827986 -95.69025897 109.18186838 -97.53515625 109.25 C-98.35508057 109.27392822 -99.17500488 109.29785645 -100.01977539 109.32250977 C-101.94531262 109.29041165 -101.94531262 109.29041165 -102.9375 110.49609375 C-103.03709621 112.33768398 -103.06830411 114.18306342 -103.0703125 116.02734375 C-103.07160156 117.14753906 -103.07289062 118.26773438 -103.07421875 119.421875 C-103.07035156 120.60136719 -103.06648438 121.78085937 -103.0625 122.99609375 C-103.06636719 124.17558594 -103.07023437 125.35507812 -103.07421875 126.5703125 C-103.07292969 127.69050781 -103.07164063 128.81070313 -103.0703125 129.96484375 C-103.06918457 131.00060547 -103.06805664 132.03636719 -103.06689453 133.10351562 C-103.20715153 135.44907198 -103.20715153 135.44907198 -101.9375 136.49609375 C-100.55858277 136.62833143 -99.1736405 136.69925373 -97.7890625 136.7421875 C-96.52835938 136.79149414 -96.52835938 136.79149414 -95.2421875 136.84179688 C-93.46366245 136.90272302 -91.68501018 136.96004749 -89.90625 137.01367188 C-89.06320313 137.04783203 -88.22015625 137.08199219 -87.3515625 137.1171875 C-86.19068115 137.15477173 -86.19068115 137.15477173 -85.00634766 137.19311523 C-82.9375 137.49609375 -82.9375 137.49609375 -79.9375 139.49609375 C-79.09696392 142.04443282 -78.39634146 144.52399706 -77.75 147.12109375 C-75.83195617 154.3135656 -73.16463451 160.64946115 -69.52856445 167.14111328 C-67.36690035 171.10944071 -66.00008622 173.99530579 -66.9375 178.49609375 C-68.70385828 180.8304633 -70.80100312 182.69973559 -73 184.62109375 C-75.14453429 186.51094972 -77.0125776 188.35993566 -78.9375 190.49609375 C-78.58860023 195.84115708 -73.68250394 199.26353952 -70.125 202.80859375 C-69.39990234 203.56205078 -68.67480469 204.31550781 -67.92773438 205.09179688 C-67.22326172 205.79884766 -66.51878906 206.50589844 -65.79296875 207.234375 C-64.82846802 208.2095105 -64.82846802 208.2095105 -63.84448242 209.2043457 C-62.03264657 210.71679113 -62.03264657 210.71679113 -59.85595703 210.35644531 C-56.25697839 208.74244675 -53.80862948 205.3079664 -51.26757812 202.35742188 C-48.65140923 199.53403168 -47.22471812 198.53699009 -43.37109375 197.98828125 C-39.87088715 198.50594548 -38.17107073 199.17855386 -35.3125 201.18359375 C-27.17613386 206.42648014 -18.04617524 209.34336449 -8.765625 211.91796875 C-6.9375 212.49609375 -6.9375 212.49609375 -5.9375 213.49609375 C-5.79297282 214.97116493 -5.71055075 216.45245415 -5.65625 217.93359375 C-5.60017578 219.27550781 -5.60017578 219.27550781 -5.54296875 220.64453125 C-5.47265625 222.54557292 -5.40234375 224.44661458 -5.33203125 226.34765625 C-5.27595703 227.68957031 -5.27595703 227.68957031 -5.21875 229.05859375 C-5.18845703 229.88488281 -5.15816406 230.71117187 -5.12695312 231.5625 C-5.14348341 233.50170531 -5.14348341 233.50170531 -3.9375 234.49609375 C-2.09590977 234.59568996 -0.25053033 234.62689786 1.59375 234.62890625 C3.27404297 234.63083984 3.27404297 234.63083984 4.98828125 234.6328125 C6.75751953 234.62701172 6.75751953 234.62701172 8.5625 234.62109375 C9.74199219 234.62496094 10.92148438 234.62882813 12.13671875 234.6328125 C13.25691406 234.63152344 14.37710938 234.63023437 15.53125 234.62890625 C17.08489258 234.62721436 17.08489258 234.62721436 18.66992188 234.62548828 C21.01547823 234.76574528 21.01547823 234.76574528 22.0625 233.49609375 C22.19499264 232.03233892 22.26571995 230.56286346 22.30859375 229.09375 C22.34146484 228.20365234 22.37433594 227.31355469 22.40820312 226.39648438 C22.46927086 224.50858191 22.52657887 222.62055398 22.58007812 220.73242188 C22.61423828 219.84103516 22.64839844 218.94964844 22.68359375 218.03125 C22.72117798 216.79967163 22.72117798 216.79967163 22.75952148 215.54321289 C23.0625 213.49609375 23.0625 213.49609375 25.0625 211.49609375 C27.57819808 210.75827417 30.08695926 210.08412834 32.625 209.43359375 C40.19136152 207.39474408 46.71344429 204.35793569 53.43969727 200.35522461 C56.20939144 198.75426279 58.43881219 197.52975606 61.66796875 197.35546875 C65.87986414 199.3617876 68.61586177 202.93673723 71.68945312 206.3671875 C73.37222809 208.2169369 73.37222809 208.2169369 76.0625 210.49609375 C79.71098404 210.2709128 81.47673881 208.43473626 83.953125 205.8984375 C85.01660156 204.82045898 85.01660156 204.82045898 86.1015625 203.72070312 C86.83117187 202.96595703 87.56078125 202.21121094 88.3125 201.43359375 C89.05757812 200.67498047 89.80265625 199.91636719 90.5703125 199.13476562 C92.40796694 197.26177168 94.23825724 195.38213764 96.0625 193.49609375 C93.8212911 188.63148411 90.19288496 185.7130028 86.27734375 182.12890625 C83.67302879 179.03312444 83.02178675 177.53179476 83.0625 173.49609375 C84.14993271 171.08252358 85.24333305 169.03670647 86.625 166.80859375 C90.56652634 160.02927249 93.00299261 153.19052491 95.15844727 145.66723633 C95.38201904 144.89275146 95.60559082 144.1182666 95.8359375 143.3203125 C96.02591309 142.63026123 96.21588867 141.94020996 96.41162109 141.22924805 C97.0625 139.49609375 97.0625 139.49609375 99.0625 137.49609375 C101.12548828 137.17724609 101.12548828 137.17724609 103.6328125 137.08203125 C104.84348389 137.02861572 104.84348389 137.02861572 106.07861328 136.97412109 C107.1045459 136.94012207 108.13047852 136.90612305 109.1875 136.87109375 C114.075625 136.68546875 114.075625 136.68546875 119.0625 136.49609375 C119.0625 127.58609375 119.0625 118.67609375 119.0625 109.49609375 C108.1725 109.00109375 108.1725 109.00109375 97.0625 108.49609375 C96.5675 106.18609375 96.0725 103.87609375 95.5625 101.49609375 C93.2040244 91.42059357 88.79982426 82.10208013 83.0625 73.49609375 C82.53125 71.234375 82.53125 71.234375 83.0625 68.49609375 C84.98128855 65.9624068 87.24230797 63.84701605 89.5625 61.68359375 C90.18253906 61.08611328 90.80257812 60.48863281 91.44140625 59.87304688 C92.97075488 58.40251934 94.51521466 56.94773645 96.0625 55.49609375 C94.6360422 52.23743015 92.89545838 50.09360835 90.3671875 47.60546875 C89.65175781 46.89648438 88.93632812 46.1875 88.19921875 45.45703125 C87.45285156 44.72742188 86.70648438 43.9978125 85.9375 43.24609375 C85.18339844 42.50101563 84.42929688 41.7559375 83.65234375 40.98828125 C81.79349228 39.15295955 79.93012995 37.32247465 78.0625 35.49609375 C73.60821325 39.27572629 69.27283337 43.13266217 65.0546875 47.17578125 C62.45362735 48.89962112 61.13665714 48.96046794 58.0625 48.49609375 C55.546875 47.17578125 55.546875 47.17578125 52.8125 45.37109375 C46.44738612 41.47295568 39.91069009 39.09841152 32.84765625 36.7578125 C24.5625 33.99609375 24.5625 33.99609375 23.0625 32.49609375 C22.90594973 31.00970383 22.81183057 29.51660248 22.74609375 28.0234375 C22.70798584 27.21382568 22.66987793 26.40421387 22.63061523 25.57006836 C22.56596069 24.01751343 22.56596069 24.01751343 22.5 22.43359375 C22.2834375 17.51453125 22.2834375 17.51453125 22.0625 12.49609375 C13.1525 12.49609375 4.2425 12.49609375 -4.9375 12.49609375 Z " fill="#464B55" transform="translate(168.9375,141.50390625)"/>
<path d="M0 0 C1.71219727 -0.0309375 1.71219727 -0.0309375 3.45898438 -0.0625 C4.56177734 -0.06765625 5.66457031 -0.0728125 6.80078125 -0.078125 C7.80923096 -0.0874707 8.81768066 -0.09681641 9.85668945 -0.10644531 C13.17771569 0.31172617 15.00773763 1.270831 17.6875 3.25 C19.95704631 6.65431947 20.05299949 8.41524202 20.3125 12.4375 C20.42464844 14.06751953 20.42464844 14.06751953 20.5390625 15.73046875 C20.58804688 16.56191406 20.63703125 17.39335937 20.6875 18.25 C22.72626949 19.06974263 24.76866075 19.8804807 26.8125 20.6875 C27.94945312 21.13996094 29.08640625 21.59242188 30.2578125 22.05859375 C33.51035364 23.18846283 36.2453081 24.10158839 39.6875 24.25 C41.91365923 22.63097511 43.46558426 20.78950593 45.26953125 18.71875 C48.49455951 16.75976676 50.58073702 16.7987361 54.2644043 17.37744141 C59.11743695 19.12502213 62.26326047 22.97035815 65.6875 26.6875 C66.83025391 27.87182617 66.83025391 27.87182617 67.99609375 29.08007812 C74.62965647 36.01516643 74.62965647 36.01516643 74.77734375 39.16796875 C74.39445172 44.87207829 73.10508519 47.68003747 68.8671875 51.546875 C67.44662046 53.21834118 67.44662046 53.21834118 67.84765625 55.52734375 C68.84737069 58.76827847 70.00680166 61.90668884 71.25 65.0625 C71.70503906 66.22394531 72.16007813 67.38539063 72.62890625 68.58203125 C72.97824219 69.46246094 73.32757813 70.34289062 73.6875 71.25 C74.42355469 71.28738281 75.15960938 71.32476562 75.91796875 71.36328125 C85.85124786 72.0324982 85.85124786 72.0324982 89.6875 75.25 C92.91290664 80.08810996 92.09722064 85.37390366 92.125 91.0625 C92.15787109 92.23876953 92.19074219 93.41503906 92.22460938 94.62695312 C92.28488062 104.31966549 92.28488062 104.31966549 89.28515625 108.01171875 C85.70213791 111.09904132 83.70605702 111.43453606 79.0625 111.8125 C78.05960938 111.89628906 77.05671875 111.98007812 76.0234375 112.06640625 C75.25257813 112.12699219 74.48171875 112.18757813 73.6875 112.25 C72.86993762 114.31049855 72.05865266 116.37348853 71.25 118.4375 C70.79753906 119.58605469 70.34507812 120.73460937 69.87890625 121.91796875 C68.37706681 126.00104352 68.37706681 126.00104352 67.6875 130.25 C68.81158961 132.27358333 68.81158961 132.27358333 70.5625 133.9375 C74.56028728 138.13052805 74.56028728 138.13052805 75 142 C74.34847522 148.77585767 68.82300162 153.42756642 64.1875 158 C63.61902344 158.57621094 63.05054688 159.15242187 62.46484375 159.74609375 C61.90925781 160.29910156 61.35367188 160.85210937 60.78125 161.421875 C60.28302734 161.9178418 59.78480469 162.41380859 59.27148438 162.92480469 C56.33492127 165.38159639 54.288777 166.23843698 50.4375 166.3125 C45.33694698 164.86734331 42.3895361 161.93280475 38.6875 158.25 C37.97851562 158.53617188 37.26953125 158.82234375 36.5390625 159.1171875 C33.72437827 160.23534973 30.90118805 161.31928957 28.0625 162.375 C27.12148438 162.72820312 26.18046875 163.08140625 25.2109375 163.4453125 C22.6875 164.25 22.6875 164.25 19.6875 164.25 C19.74550781 165.04664063 19.80351562 165.84328125 19.86328125 166.6640625 C20.27783741 176.4002101 20.27783741 176.4002101 17.375 179.9375 C12.20617234 184.38509589 6.38032656 183.54056508 -0.125 183.625 C-1.20587891 183.66238281 -2.28675781 183.69976562 -3.40039062 183.73828125 C-12.33988112 183.83706015 -12.33988112 183.83706015 -16.01171875 180.9140625 C-19.30936128 177.09573958 -19.43238263 174.44002389 -19.375 169.5625 C-19.36597656 168.56863281 -19.35695313 167.57476562 -19.34765625 166.55078125 C-19.33605469 165.79152344 -19.32445312 165.03226563 -19.3125 164.25 C-20.16070312 164.14816406 -21.00890625 164.04632813 -21.8828125 163.94140625 C-25.67553101 163.17681493 -28.70337753 161.8584567 -32.1875 160.1875 C-33.33992188 159.63964844 -34.49234375 159.09179688 -35.6796875 158.52734375 C-36.54851562 158.10582031 -37.41734375 157.68429687 -38.3125 157.25 C-38.60125 157.86359375 -38.89 158.4771875 -39.1875 159.109375 C-40.81819507 162.21222535 -42.26379226 163.47158715 -45.3125 165.25 C-49.66121621 166.20057996 -53.52036588 166.31864294 -57.421875 163.9921875 C-59.52502481 162.18347866 -61.41065723 160.26933113 -63.3125 158.25 C-64.12460937 157.45851563 -64.93671875 156.66703125 -65.7734375 155.8515625 C-73.45726909 148.36164464 -73.45726909 148.36164464 -73.8125 142.5625 C-73.8125 139.30439711 -73.64394595 137.71982464 -71.75 135.03515625 C-70.00804432 133.31778463 -68.24948233 131.742267 -66.3125 130.25 C-67.69307386 125.76313495 -69.47881366 121.61934749 -71.5078125 117.3984375 C-72.3125 115.25 -72.3125 115.25 -72.3125 111.25 C-73.10914063 111.30800781 -73.90578125 111.36601562 -74.7265625 111.42578125 C-84.4627101 111.84033741 -84.4627101 111.84033741 -88 108.9375 C-92.42809722 103.79133296 -91.63864482 97.98163947 -91.75 91.5 C-91.79576172 90.4275 -91.84152344 89.355 -91.88867188 88.25 C-91.96156007 83.10345958 -91.91973057 79.20644379 -88.71484375 75.01171875 C-86.27959572 72.64460719 -85.35367733 72.25820733 -81.8828125 71.56640625 C-80.17738281 71.68822266 -80.17738281 71.68822266 -78.4375 71.8125 C-77.28507812 71.87566406 -76.13265625 71.93882812 -74.9453125 72.00390625 C-73.64207031 72.12572266 -73.64207031 72.12572266 -72.3125 72.25 C-72.250625 71.30125 -72.18875 70.3525 -72.125 69.375 C-71.54241574 64.90548637 -69.42384833 61.42980105 -67.17578125 57.58203125 C-66.05496656 55.29381029 -66.05496656 55.29381029 -67.00390625 53.1171875 C-68.40631702 51.00911164 -68.40631702 51.00911164 -70.9375 48.5625 C-73.63270051 45.35892335 -74.17461556 42.68702992 -73.91796875 38.5390625 C-72.73627834 34.07151039 -69.56296308 31.36997004 -66.3125 28.25 C-65.16007812 27.04730469 -65.16007812 27.04730469 -63.984375 25.8203125 C-56.06117909 17.60852336 -56.06117909 17.60852336 -50.4375 16.875 C-45.86140182 17.42413178 -42.74337948 19.5901798 -39.75 23.0625 C-39.275625 23.454375 -38.80125 23.84625 -38.3125 24.25 C-33.56388384 23.62016609 -29.27944686 21.8002905 -24.8359375 20.08984375 C-22.3125 19.25 -22.3125 19.25 -19.3125 19.25 C-19.37050781 18.45335937 -19.42851562 17.65671875 -19.48828125 16.8359375 C-19.90275703 7.10167775 -19.90275703 7.10167775 -16.9375 3.5625 C-11.79184071 -0.9705808 -6.60633535 0.02954203 0 0 Z M-8.3125 11.25 C-8.415625 13.498125 -8.51875 15.74625 -8.625 18.0625 C-8.92689767 24.64386925 -8.92689767 24.64386925 -10.48046875 27.0859375 C-12.98648917 28.67824898 -15.44306394 29.30720373 -18.3125 30.0625 C-24.0825546 31.71108703 -28.80834954 33.98595405 -33.875 37.17578125 C-36.93216994 38.52309172 -38.20067343 38.41755337 -41.3125 37.25 C-43.55078125 35.40234375 -43.55078125 35.40234375 -45.625 33.1875 C-46.32238281 32.45402344 -47.01976562 31.72054688 -47.73828125 30.96484375 C-48.25777344 30.39894531 -48.77726562 29.83304687 -49.3125 29.25 C-52.99319887 30.78643852 -55.30025204 33.03150945 -58.0625 35.875 C-59.26132812 37.10089844 -59.26132812 37.10089844 -60.484375 38.3515625 C-61.08765625 38.97804688 -61.6909375 39.60453125 -62.3125 40.25 C-60.92581159 43.4253155 -60.1329588 44.38923603 -57.25 46.625 C-54.3125 49.25 -54.3125 49.25 -53.39453125 51.9296875 C-53.28303843 56.44249229 -54.8925418 59.13525355 -57.0625 63 C-59.96079609 68.42010089 -62.31498352 73.50695514 -63.7421875 79.52734375 C-63.93039062 80.09582031 -64.11859375 80.66429687 -64.3125 81.25 C-68.85851728 83.52300864 -75.39929597 82.93734156 -80.3125 83.25 C-80.3125 88.86 -80.3125 94.47 -80.3125 100.25 C-75.51133401 100.34131287 -75.51133401 100.34131287 -70.7097168 100.36767578 C-68.88671875 100.4453125 -68.88671875 100.4453125 -65.3125 101.25 C-62.80245808 104.87561611 -61.70812607 108.86268729 -60.4375 113.0625 C-58.89288996 117.90668556 -56.95602906 121.97143232 -54.16796875 126.21484375 C-52.99752377 128.99932701 -53.33933847 130.41456116 -54.3125 133.25 C-55.94140625 135.3828125 -55.94140625 135.3828125 -57.875 137.375 C-60.8670984 140.25024349 -60.8670984 140.25024349 -61.3125 144.25 C-59.09181288 146.83618137 -59.09181288 146.83618137 -56.3125 149.4375 C-55.384375 150.33855469 -54.45625 151.23960937 -53.5 152.16796875 C-52.778125 152.85503906 -52.05625 153.54210937 -51.3125 154.25 C-48.1371845 152.86331159 -47.17326397 152.0704588 -44.9375 149.1875 C-42.3125 146.25 -42.3125 146.25 -39.5625 145.3671875 C-35.39578091 145.21694523 -33.31306323 146.41635268 -29.6875 148.4375 C-24.11379131 151.4431585 -18.62243962 153.67630632 -12.54296875 155.5234375 C-10.3125 156.25 -10.3125 156.25 -9.3125 157.25 C-9.07578017 159.77793394 -8.8910675 162.27934966 -8.75 164.8125 C-8.5334375 168.4940625 -8.5334375 168.4940625 -8.3125 172.25 C-2.7025 172.25 2.9075 172.25 8.6875 172.25 C8.93682741 167.40405588 8.93682741 167.40405588 9.16552734 162.55712891 C9.46527778 157.47222222 9.46527778 157.47222222 11.6875 155.25 C14.20292297 154.42121902 16.70461145 153.66054961 19.25 152.9375 C24.1149213 151.51084639 28.46339107 150.05309624 32.8125 147.375 C35.45325096 145.81251408 36.61990502 145.25689745 39.75 144.9375 C43.68963897 146.69776422 46.07685023 149.36345015 48.953125 152.53515625 C50.51803228 154.48436384 50.51803228 154.48436384 52.6875 154.25 C54.39234466 152.56477271 54.39234466 152.56477271 56.125 150.4375 C58.23213676 147.93897282 60.33991398 145.5257944 62.6875 143.25 C61.25483672 139.52507546 58.91741621 137.50949922 55.9296875 135.0078125 C53.99921989 132.27601871 54.27295808 130.54696424 54.6875 127.25 C55.75035296 124.37010526 57.10681835 121.67006897 58.5 118.9375 C61.35869382 113.12561526 63.87304522 107.48718831 65.6875 101.25 C70.6375 100.92 75.5875 100.59 80.6875 100.25 C80.6875 94.64 80.6875 89.03 80.6875 83.25 C77.3153125 83.12625 77.3153125 83.12625 73.875 83 C67.24672518 82.75676056 67.24672518 82.75676056 64.85546875 80.58984375 C63.4612175 77.7966782 62.62648149 75.07711286 61.8125 72.0625 C60.5759023 67.78713119 59.23305596 64.12545736 56.9375 60.3125 C54.84294771 56.71248826 53.6085036 54.47606923 54.6875 50.25 C56.39579154 48.08080802 58.19222104 46.12033516 60.15625 44.1796875 C62.10189739 42.13834412 62.10189739 42.13834412 61.6875 38.25 C59.8685798 35.75686205 59.8685798 35.75686205 57.4375 33.4375 C56.25414062 32.22126953 56.25414062 32.22126953 55.046875 30.98046875 C52.8900753 29.03732535 52.8900753 29.03732535 50.56640625 29.265625 C48.28970711 30.45840708 47.34454817 31.71617048 45.875 33.8125 C43.65624291 36.47721075 43.03427579 37.1598383 39.5625 38.0625 C34.83301509 37.07083381 31.14600506 35.1127442 26.90234375 32.84375 C22.75304295 30.78674547 18.51420694 29.434369 14.0859375 28.109375 C11.6875 27.25 11.6875 27.25 9.6875 25.25 C9.09564488 20.59332856 8.94335524 15.94067934 8.6875 11.25 C3.0775 11.25 -2.5325 11.25 -8.3125 11.25 Z " fill="#444C56" transform="translate(365.3125,283.75)"/>
<path d="M0 0 C8.33888901 6.84135696 14.25690257 16.25639975 15.4375 27.10546875 C15.65067712 38.83021037 13.5384521 48.07191807 5.81640625 57.1328125 C-3.29556825 66.42581961 -12.40771319 70.9316663 -25.37109375 71.1328125 C-36.63094871 71.04377769 -44.69226708 67.43113028 -52.93359375 59.6953125 C-61.60792209 50.62669651 -64.61795104 40.89128959 -64.62182617 28.55029297 C-64.198398 18.5498231 -59.50917434 10.14100773 -52.93359375 2.6953125 C-36.74243215 -10.59391562 -17.43645347 -12.41450533 0 0 Z " fill="#F3F3F8" transform="translate(201.93359375,233.3046875)"/>
<path d="M0 0 C11.60410911 7.96624617 19.84713393 18.91654269 23.1875 32.75 C23.57505527 36.07643258 23.61840051 39.34150102 23.5625 42.6875 C23.55234863 43.56849365 23.54219727 44.4494873 23.53173828 45.35717773 C23.21627643 58.55399869 18.22747938 70.18129684 9.16015625 79.90625 C-2.17578604 90.50142774 -16.02280912 95.33597589 -31.40625 95.06640625 C-45.61005043 93.74701653 -57.09393207 86.85001343 -66.8125 76.75 C-76.71473963 64.79380237 -79.8674586 50.92060178 -78.8125 35.75 C-76.09920318 21.78039751 -68.57532958 9.66307762 -57.25 1.0625 C-39.65398769 -10.45681136 -18.06491655 -10.79940976 0 0 Z M-52.8125 12.75 C-53.699375 13.3275 -54.58625 13.905 -55.5 14.5 C-62.22054715 21.03891074 -67.13353609 30.81767954 -67.28100586 40.20727539 C-67.27077393 40.96387451 -67.26054199 41.72047363 -67.25 42.5 C-67.24170166 43.29204834 -67.23340332 44.08409668 -67.22485352 44.90014648 C-66.91492887 55.71000923 -63.29936813 63.92281968 -55.8125 71.75 C-46.82437834 80.18680565 -38.16929574 83.34141268 -26 83.15258789 C-14.00203941 82.68074296 -4.65274882 77.39606083 3.62109375 68.73828125 C11.34456381 58.93467461 13.16903095 47.91352908 12.1875 35.75 C9.92359053 24.97270644 3.1293184 16.03811746 -5.8125 9.75 C-21.62920852 0.25997489 -38.34041156 1.99683468 -52.8125 12.75 Z " fill="#464B55" transform="translate(204.8125,221.25)"/>
<path d="M0 0 C3.83827287 3.79562539 7.57074818 7.67521496 11.25 11.625 C12.06210938 12.48351562 12.06210938 12.48351562 12.890625 13.359375 C15.23618917 15.88085648 16.89806214 17.69418643 18 21 C19.32097201 21.69083657 20.65686601 22.35330586 22 23 C23.51215983 24.3172221 24.98803561 25.67658717 26.4375 27.0625 C50.90665121 49.3883679 82.62186833 60.50862356 115 65 C112.31498843 66.79000771 110.39919848 67.6217477 107.375 68.5625 C104.42831448 69.338786 104.42831448 69.338786 102 71 C101.85547282 72.47507118 101.77305075 73.9563604 101.71875 75.4375 C101.68136719 76.33210938 101.64398438 77.22671875 101.60546875 78.1484375 C101.57066406 79.08945312 101.53585938 80.03046875 101.5 81 C101.43141512 82.85433195 101.35872187 84.70851808 101.28125 86.5625 C101.25095703 87.38878906 101.22066406 88.21507812 101.18945312 89.06640625 C101 91 101 91 100 92 C98.15840977 92.09959621 96.31303033 92.13080411 94.46875 92.1328125 C93.34855469 92.13410156 92.22835937 92.13539063 91.07421875 92.13671875 C89.89472656 92.13285156 88.71523437 92.12898438 87.5 92.125 C85.73076172 92.13080078 85.73076172 92.13080078 83.92578125 92.13671875 C82.80558594 92.13542969 81.68539062 92.13414062 80.53125 92.1328125 C79.49548828 92.13168457 78.45972656 92.13055664 77.39257812 92.12939453 C75 92 75 92 74 91 C73.84344973 89.51361008 73.74933057 88.02050873 73.68359375 86.52734375 C73.64169922 85.62822266 73.59980469 84.72910156 73.55664062 83.80273438 C73.51732422 82.85720703 73.47800781 81.91167969 73.4375 80.9375 C73.39431641 79.98810547 73.35113281 79.03871094 73.30664062 78.06054688 C73.20020724 75.70718647 73.09818992 73.35371646 73 71 C69.04741993 68.90607366 65.31190224 67.41597356 61 66.25 C54.19475827 64.23508396 44.12401045 61.12401045 39 56 C34.45540167 55.36534112 34.45540167 55.36534112 30.36572266 57.14501953 C28.76559887 58.72578493 27.27832295 60.35650319 25.8125 62.0625 C23.9436541 64.20205547 22.11041161 66.07413778 20 68 C14.65483231 67.65069573 11.23258614 62.74503596 7.6875 59.1875 C6.93404297 58.46240234 6.18058594 57.73730469 5.40429688 56.99023438 C4.69724609 56.28576172 3.99019531 55.58128906 3.26171875 54.85546875 C2.61162842 54.21246826 1.96153809 53.56946777 1.29174805 52.90698242 C0 51 0 51 0.13964844 48.9206543 C1.76289959 45.29689811 5.1925994 42.82684588 8.13867188 40.2421875 C10.58928057 37.95538096 11.9107309 36.44695277 12.57421875 33.125 C11.82888991 29.06878863 10.22236001 25.96577358 8.25 22.375 C0 6.68617725 0 6.68617725 0 0 Z " fill="#D94554" transform="translate(90,284)"/>
<path d="M0 0 C1.8046875 1.12109375 1.8046875 1.12109375 3.4375 2.3125 C4.489375 3.055 5.54125 3.7975 6.625 4.5625 C12.49625745 10.30328506 15.56316007 16.12454222 15.75 24.375 C15.6900697 32.05464037 13.70817398 37.66320253 9.6875 44.125 C3.71167458 49.93483027 -3.36741991 53.57642648 -11.75 53.75 C-20.19430854 53.59733453 -26.19281625 50.70817064 -32.4375 45.125 C-38.31453462 38.67832373 -40.41040665 31.02454733 -40.06640625 22.40234375 C-38.78643564 14.55384179 -35.17670919 8.1763805 -29 3.1875 C-20.96213895 -2.5722507 -9.17859932 -4.39363184 0 0 Z " fill="#E3E6EA" transform="translate(377.5625,349.6875)"/>
<path d="M0 0 C9.05273647 6.40231552 15.48242302 15.55576962 17.6171875 26.578125 C18.86675142 38.84843299 15.34397898 49.57633856 7.74609375 59.203125 C0.26884561 67.54471558 -8.71919491 71.5288674 -19.86791992 72.20385742 C-32.12719264 72.52921104 -41.27531707 68.69876228 -50.4453125 60.328125 C-59.14445664 50.88380278 -60.87797709 40.18431163 -60.65625 27.8515625 C-60.20921201 17.72017671 -54.82418373 9.56419782 -47.46875 2.82421875 C-32.99101728 -8.68298316 -15.91499874 -9.49681892 0 0 Z M-37.3828125 9.578125 C-38.4140625 10.238125 -39.4453125 10.898125 -40.5078125 11.578125 C-45.62487715 16.17504846 -48.78304571 22.97498056 -49.8984375 29.67578125 C-50.22732652 38.7789596 -47.90781904 46.23220974 -41.6953125 52.953125 C-34.66489 59.33736896 -28.09332138 61.33477265 -18.60546875 61.03515625 C-13.53089403 60.31548929 -9.65046727 58.3324838 -5.3828125 55.578125 C-4.4546875 55.000625 -3.5265625 54.423125 -2.5703125 53.828125 C4.5022297 46.55351017 5.98624764 38.64165026 5.8984375 28.83984375 C5.50870284 24.32000425 4.20072499 21.2556686 1.6171875 17.578125 C1.03904297 16.74861328 1.03904297 16.74861328 0.44921875 15.90234375 C-3.43998791 10.83001274 -8.35861755 7.56636423 -14.3828125 5.578125 C-22.67187766 4.77984997 -30.41658296 4.54974349 -37.3828125 9.578125 Z " fill="#444D57" transform="translate(387.3828125,342.421875)"/>
<path d="M0 0 C5.44523366 0.10293447 9.89956783 2.29775466 14.3125 5.375 C16.68875247 7.84415122 18.57666918 10.42526046 20.3125 13.375 C20.68632812 14.00921875 21.06015625 14.6434375 21.4453125 15.296875 C23.76050292 20.84498898 22.94212584 27.63131918 20.8125 33.125 C18.00362442 38.69277117 13.50373479 42.81588366 7.921875 45.54296875 C1.87330604 47.47162921 -5.22988248 47.43099688 -11.0625 44.8125 C-17.38333402 41.08044831 -21.55806253 35.35482281 -23.6875 28.375 C-24.60395658 21.47328999 -23.64226217 16.13323677 -19.6875 10.375 C-13.91761005 3.69407479 -8.59812972 0.87438607 0 0 Z " fill="#484D55" transform="translate(432.6875,48.625)"/>
<path d="M0 0 C7.26217378 3.19579726 10.67566557 8.27320613 14.13671875 15.1953125 C15.05366836 23.18089898 14.590573 29.38029977 9.9921875 36.09765625 C5.83239535 40.80041074 0.57683748 43.86588937 -5.71875 44.46875 C-13.17945563 44.69615721 -18.22158243 44.30225314 -23.86328125 39.1953125 C-29.27289638 33.89666384 -31.15985138 28.90183552 -31.30078125 21.3828125 C-31.18427744 13.95763646 -29.53543181 9.84867969 -24.3359375 4.67578125 C-17.15445349 -1.66512193 -9.20841854 -2.5879048 0 0 Z " fill="#464C54" transform="translate(315.86328125,54.8046875)"/>
<path d="M0 0 C6.08552587 2.77045341 11.07418655 8.11263052 13.5078125 14.3515625 C14.33833098 22.19320206 14.58842997 29.94491877 9.5078125 36.3515625 C3.95757915 42.34527697 -1.22492943 44.39063331 -9.3671875 44.7890625 C-16.38516962 44.65009256 -20.31439423 42.46551617 -25.2421875 37.63671875 C-30.66405522 31.68048425 -32.03071802 26.43914174 -31.86328125 18.421875 C-31.1603601 12.60612738 -28.77061686 8.41652525 -24.44921875 4.5 C-16.99013603 -1.23357542 -9.33554616 -2.4289979 0 0 Z " fill="#464C54" transform="translate(378.4921875,52.6484375)"/>
<path d="M0 0 C2.57646114 2.55782489 5.1215168 5.12803633 7.62109375 7.76171875 C26.65502288 27.68976839 50.28722662 38.27354918 77 44 C76.38125 44.28875 75.7625 44.5775 75.125 44.875 C72.86674235 45.93720042 72.86674235 45.93720042 71 48 C70.69309346 50.57685678 70.48985507 53.04103303 70.375 55.625 C70.189375 59.275625 70.189375 59.275625 70 63 C64.39 63 58.78 63 53 63 C52.505 55.575 52.505 55.575 52 48 C47.54925086 46.03338991 43.05865535 44.26608055 38.5 42.5625 C34.78931809 41.16408723 31.39682925 39.77114956 28.0625 37.625 C25.13261855 35.81281509 25.13261855 35.81281509 22 35.75 C17.45012063 37.64578307 14.95918003 41.15656795 12 45 C8.31930113 43.46356148 6.01224796 41.21849055 3.25 38.375 C2.45078125 37.55773437 1.6515625 36.74046875 0.828125 35.8984375 C0.22484375 35.27195312 -0.3784375 34.64546875 -1 34 C-0.40251953 33.31164062 -0.40251953 33.31164062 0.20703125 32.609375 C1.29829013 31.34553259 2.3827039 30.07575415 3.4609375 28.80078125 C4.58649652 27.48382006 5.75135635 26.20016904 6.9375 24.9375 C8.52816339 22.03687852 7.73552148 20.17836745 7 17 C6.06957943 14.94620232 5.06636332 12.92411436 4 10.9375 C2.02968386 7.25736625 0.60829186 4.14398833 0 0 Z " fill="#3BABD6" transform="translate(304,393)"/>
<path d="M0 0 C4.03806872 0.62941557 7.70319913 1.90932277 11.53515625 3.27270508 C20.90036756 6.58072231 30.30067143 9.17454846 40 11.3125 C41.09586426 11.55444092 42.19172852 11.79638184 43.32080078 12.0456543 C49.99262163 13.47116686 56.65157728 14.58467768 63.41796875 15.46166992 C66 16 66 16 68 18 C56.93473107 28.55298796 48.43960695 31.54837586 33.23828125 31.2734375 C22.92983778 30.81467884 14.85657949 25.2432198 7.98828125 17.828125 C3.64327024 12.5448831 0 7.06738688 0 0 Z " fill="#E3E6EA" transform="translate(139,273)"/>
<path d="M0 0 C2.83740268 1.9124094 4.56190113 3.89278236 6 7 C6.45246512 10.27338965 6.12171628 12.89639122 5 16 C2.43464804 19.24044458 0.913195 20.69560167 -3 22 C-8.85159247 22.66244443 -8.85159247 22.66244443 -11.75390625 20.98828125 C-14.45293581 18.82255391 -15.89643164 17.31070508 -17 14 C-17.56968464 6.93591048 -17.56968464 6.93591048 -15.25 3.125 C-10.51385366 -1.34802709 -6.16314804 -1.9658317 0 0 Z " fill="#FAFAFA" transform="translate(313,66)"/>
<path d="M0 0 C3.70390021 2.02666238 5.65363011 3.48044516 8 7 C8.47364652 11.81540624 8.49199653 14.05114955 6.25 18.375 C3.07436849 22.07990343 1.47564685 22.77726085 -3.3125 23.5 C-7.59265375 22.91964017 -9.52406937 21.84649263 -12.609375 18.9140625 C-15.07887436 15.51503249 -15.39525924 12.11221629 -15 8 C-13.72125385 4.73209317 -12.46372362 3.37355514 -9.75 1.1875 C-6.1888795 -0.35025658 -3.85081154 -0.47290668 0 0 Z " fill="#FAFAFA" transform="translate(373,63)"/>
<path d="M0 0 C3.58552881 1.63687185 4.79315055 2.68972583 7 6 C7.69920885 10.79689791 7.71482085 14.77459282 5.25 19 C2.13011459 21.77323148 0.28044213 22.83298581 -3.875 23.375 C-7.84487514 22.89861498 -9.89536536 21.46959574 -13 19 C-15.68121076 14.97818385 -15.81344335 11.72763609 -15 7 C-11.44119166 0.61002071 -7.02544551 -0.7686188 0 0 Z " fill="#FBFBFB" transform="translate(436,61)"/>
<path d="M0 0 C1.4540625 0.0309375 1.4540625 0.0309375 2.9375 0.0625 C3.44539063 1.10148438 3.95328125 2.14046875 4.4765625 3.2109375 C8.03236119 10.42994512 11.59806345 17.49037646 16.00390625 24.2421875 C16.31199219 24.84289062 16.62007812 25.44359375 16.9375 26.0625 C16.6075 26.7225 16.2775 27.3825 15.9375 28.0625 C12.79128318 27.92427801 9.64564434 27.77564916 6.5 27.625 C5.60216797 27.58568359 4.70433594 27.54636719 3.77929688 27.50585938 C2.49829102 27.44301758 2.49829102 27.44301758 1.19140625 27.37890625 C0.40064697 27.34224854 -0.3901123 27.30559082 -1.20483398 27.26782227 C-3.0625 27.0625 -3.0625 27.0625 -4.0625 26.0625 C-4.16209621 24.22090977 -4.19330411 22.37553033 -4.1953125 20.53125 C-4.19660156 19.41105469 -4.19789062 18.29085938 -4.19921875 17.13671875 C-4.19535156 15.95722656 -4.19148438 14.77773438 -4.1875 13.5625 C-4.19136719 12.38300781 -4.19523437 11.20351563 -4.19921875 9.98828125 C-4.19792969 8.86808594 -4.19664063 7.74789063 -4.1953125 6.59375 C-4.19418457 5.55798828 -4.19305664 4.52222656 -4.19189453 3.45507812 C-3.99668237 -0.1545052 -3.68912471 0.07528826 0 0 Z " fill="#D84554" transform="translate(70.0625,250.9375)"/>
<path d="M0 0 C1.65 0 3.3 0 5 0 C7.64 5.61 10.28 11.22 13 17 C8.71 17 4.42 17 0 17 C0 11.39 0 5.78 0 0 Z " fill="#3BABD6" transform="translate(285,367)"/>
<path d="M0 0 C-0.90027588 1.03531726 -1.82093035 2.05294165 -2.75 3.0625 C-3.26046875 3.63097656 -3.7709375 4.19945312 -4.296875 4.78515625 C-6 6 -6 6 -8.09375 5.8125 C-10.59521016 4.74630387 -11.5475869 3.2512403 -13 1 C-11.58622218 0.63447197 -10.16879424 0.28304505 -8.75 -0.0625 C-7.96109375 -0.25972656 -7.1721875 -0.45695312 -6.359375 -0.66015625 C-3.89605178 -1.01497267 -2.34395868 -0.76877544 0 0 Z " fill="#D14654" transform="translate(254,346)"/>
</svg>
